<svg width="24" height="24" viewBox="0 0 24 24" fill="none" xmlns="http://www.w3.org/2000/svg">
<path fill-rule="evenodd" clip-rule="evenodd" d="M12.75 4.79933C13.1984 4.53997 13.5 4.05521 13.5 3.5C13.5 2.67157 12.8284 2 12 2C11.1716 2 10.5 2.67157 10.5 3.5C10.5 4.05521 10.8016 4.53997 11.25 4.79933V5.79454C10.6521 5.86604 10.0801 6.02195 9.54637 6.25002L9.04921 5.38891C9.30776 4.94014 9.32659 4.36955 9.049 3.88876C8.63479 3.17132 7.7174 2.92551 6.99997 3.33972C6.28253 3.75394 6.03671 4.67132 6.45093 5.38876C6.72856 5.86962 7.23223 6.13862 7.75023 6.13901L8.24795 7.00108C7.77599 7.35589 7.3559 7.77598 7.00109 8.24794L6.13913 7.75028C6.13875 7.23226 5.86976 6.72857 5.38888 6.45093C4.67144 6.03672 3.75406 6.28253 3.33984 6.99997C2.92563 7.71741 3.17144 8.6348 3.88888 9.04901C4.36966 9.32659 4.94023 9.30776 5.38899 9.04924L6.25002 9.54636C6.02196 10.0801 5.86604 10.6521 5.79454 11.25H4.79933C4.53997 10.8016 4.05521 10.5 3.5 10.5C2.67157 10.5 2 11.1716 2 12C2 12.8284 2.67157 13.5 3.5 13.5C4.05521 13.5 4.53997 13.1984 4.79933 12.75H5.79454C5.86604 13.3479 6.02196 13.9199 6.25004 14.4537L5.38906 14.9508C4.94029 14.6922 4.36969 14.6733 3.88888 14.9509C3.17144 15.3651 2.92563 16.2825 3.33984 17C3.75406 17.7174 4.67144 17.9632 5.38888 17.549C5.86973 17.2714 6.13872 16.7677 6.13913 16.2498L7.00111 15.7521C7.35588 16.224 7.77591 16.644 8.2478 16.9988L7.75002 17.861C7.23211 17.8615 6.72857 18.1305 6.451 18.6112C6.03678 19.3287 6.2826 20.2461 7.00003 20.6603C7.71747 21.0745 8.63486 20.8287 9.04907 20.1112C9.32671 19.6304 9.30782 19.0597 9.04914 18.6109L9.5462 17.7499C10.08 17.978 10.652 18.134 11.25 18.2055V19.2007C10.8016 19.46 10.5 19.9448 10.5 20.5C10.5 21.3284 11.1716 22 12 22C12.8284 22 13.5 21.3284 13.5 20.5C13.5 19.9448 13.1984 19.46 12.75 19.2007V18.2055C13.3479 18.134 13.9199 17.978 14.4536 17.75L14.9508 18.6111C14.6922 19.0599 14.6734 19.6304 14.951 20.1112C15.3652 20.8287 16.2826 21.0745 17 20.6603C17.7175 20.2461 17.9633 19.3287 17.5491 18.6112C17.2714 18.1304 16.7678 17.8614 16.2498 17.861L15.7521 16.9989C16.224 16.6441 16.6441 16.224 16.9989 15.7521L17.8609 16.2497C17.8612 16.7677 18.1302 17.2714 18.6111 17.5491C19.3286 17.9633 20.2459 17.7175 20.6602 17C21.0744 16.2826 20.8286 15.3652 20.1111 14.951C19.6303 14.6734 19.0598 14.6922 18.611 14.9508L17.75 14.4536C17.978 13.9199 18.134 13.3479 18.2055 12.75H19.2007C19.46 13.1984 19.9448 13.5 20.5 13.5C21.3284 13.5 22 12.8284 22 12C22 11.1716 21.3284 10.5 20.5 10.5C19.9448 10.5 19.46 10.8016 19.2007 11.25H18.2055C18.134 10.6521 17.978 10.0801 17.75 9.54633L18.6109 9.04925C19.0597 9.30782 19.6303 9.32666 20.1111 9.04907C20.8286 8.63485 21.0744 7.71747 20.6602 7.00003C20.2459 6.28259 19.3286 6.03678 18.6111 6.45099C18.1303 6.72861 17.8613 7.23226 17.8609 7.75025L16.9989 8.24791C16.6441 7.77601 16.2241 7.35597 15.7522 7.00119L16.25 6.13901C16.7679 6.13852 17.2714 5.86954 17.549 5.38876C17.9632 4.67132 17.7174 3.75394 17 3.33972C16.2825 2.92551 15.3651 3.17132 14.9509 3.88876C14.6733 4.36964 14.6922 4.94034 14.9509 5.38915L14.4538 6.25009C13.92 6.02199 13.348 5.86605 12.75 5.79454V4.79933ZM12 7.25C9.37665 7.25 7.25 9.37665 7.25 12C7.25 14.6234 9.37665 16.75 12 16.75C14.6234 16.75 16.75 14.6234 16.75 12C16.75 9.37665 14.6234 7.25 12 7.25Z" fill="#ffffff"/>
</svg>
