<svg width="24" height="24" viewBox="0 0 24 24" fill="none" xmlns="http://www.w3.org/2000/svg">
<path fill-rule="evenodd" clip-rule="evenodd" d="M3.78662 10.541C3.39658 11.1863 3.25 11.7008 3.25 12C3.25 12.2992 3.39658 12.8137 3.78662 13.459C4.1659 14.0865 4.73905 14.7761 5.49561 15.4165C7.00541 16.6946 9.21271 17.75 12 17.75C14.7873 17.75 16.9946 16.6946 18.5044 15.4165C19.2609 14.7761 19.8341 14.0865 20.2134 13.459C20.6034 12.8137 20.75 12.2992 20.75 12C20.75 11.7008 20.6034 11.1863 20.2134 10.541C19.8341 9.91355 19.2609 9.22391 18.5044 8.58348C16.9946 7.30543 14.7873 6.25 12 6.25C9.21271 6.25 7.00541 7.30543 5.49561 8.58348C4.73905 9.22391 4.1659 9.91355 3.78662 10.541ZM4.52647 7.4386C6.27402 5.95929 8.81673 4.75 12 4.75C15.1833 4.75 17.726 5.95929 19.4735 7.4386C20.3457 8.17685 21.028 8.98905 21.4971 9.76507C21.9554 10.5233 22.25 11.3139 22.25 12C22.25 12.6861 21.9554 13.4767 21.4971 14.2349C21.028 15.011 20.3457 15.8232 19.4735 16.5614C17.726 18.0407 15.1833 19.25 12 19.25C8.81673 19.25 6.27402 18.0407 4.52647 16.5614C3.65435 15.8232 2.97198 15.011 2.50291 14.2349C2.0446 13.4767 1.75 12.6861 1.75 12C1.75 11.3139 2.0446 10.5233 2.50291 9.76507C2.97198 8.98905 3.65435 8.17685 4.52647 7.4386Z" fill="#ffffff"/>
<path fill-rule="evenodd" clip-rule="evenodd" d="M12 9.75C10.7574 9.75 9.75 10.7574 9.75 12C9.75 13.2426 10.7574 14.25 12 14.25C13.2426 14.25 14.25 13.2426 14.25 12C14.25 10.7574 13.2426 9.75 12 9.75ZM8.25 12C8.25 9.92893 9.92893 8.25 12 8.25C14.0711 8.25 15.75 9.92893 15.75 12C15.75 14.0711 14.0711 15.75 12 15.75C9.92893 15.75 8.25 14.0711 8.25 12Z" fill="#ffffff"/>
</svg>
