<svg width="24" height="24" viewBox="0 0 24 24" fill="none" xmlns="http://www.w3.org/2000/svg">
<path fill-rule="evenodd" clip-rule="evenodd" d="M12 3.75C7.44365 3.75 3.75 7.44365 3.75 12C3.75 16.5563 7.44365 20.25 12 20.25C16.5563 20.25 20.25 16.5563 20.25 12C20.25 7.44365 16.5563 3.75 12 3.75ZM2.25 12C2.25 6.61522 6.61522 2.25 12 2.25C17.3848 2.25 21.75 6.61522 21.75 12C21.75 17.3848 17.3848 21.75 12 21.75C6.61522 21.75 2.25 17.3848 2.25 12Z" fill="#ffffff"/>
<path fill-rule="evenodd" clip-rule="evenodd" d="M12 7.3C9.37665 7.3 7.25 9.42665 7.25 12.05C7.25 14.6734 9.37665 16.8 12 16.8C14.6234 16.8 16.75 14.6734 16.75 12.05C16.75 9.42665 14.6234 7.3 12 7.3ZM5.75 12.05C5.75 8.59822 8.54822 5.8 12 5.8C15.4518 5.8 18.25 8.59822 18.25 12.05C18.25 15.5018 15.4518 18.3 12 18.3C8.54822 18.3 5.75 15.5018 5.75 12.05Z" fill="#ffffff"/>
<path d="M12.5 11C12.5 11.8284 11.8284 12.5 11 12.5C10.1716 12.5 9.5 11.8284 9.5 11C9.5 10.1716 10.1716 9.5 11 9.5C11.8284 9.5 12.5 10.1716 12.5 11Z" fill="#ffffff"/>
</svg>
