<?xml version="1.0" standalone="no"?>
<!DOCTYPE svg PUBLIC "-//W3C//DTD SVG 20010904//EN"
 "http://www.w3.org/TR/2001/REC-SVG-20010904/DTD/svg10.dtd">
<svg version="1.0" xmlns="http://www.w3.org/2000/svg"
 width="700.000000pt" height="700.000000pt" viewBox="0 0 700.000000 700.000000"
 preserveAspectRatio="xMidYMid meet">
<metadata>
Created by potrace 1.14, written by Peter Selinger 2001-2017
</metadata>
<g transform="translate(0.000000,700.000000) scale(0.100000,-0.100000)"
fill="#000000" stroke="none">
<path d="M3239 6996 c-2 -2 -41 -7 -85 -10 -80 -7 -100 -9 -174 -22 -19 -3
-46 -8 -60 -10 -235 -38 -535 -140 -785 -267 -449 -229 -849 -596 -1110 -1017
-81 -131 -166 -299 -220 -433 -65 -164 -58 -183 72 -191 37 -3 93 -7 123 -10
30 -4 71 -8 90 -10 54 -6 76 8 96 61 26 68 119 257 162 328 316 521 795 896
1367 1071 61 18 121 35 135 38 14 2 59 12 100 21 41 9 95 18 120 21 25 3 72 9
105 14 84 11 473 6 575 -9 215 -30 433 -91 645 -179 181 -75 448 -243 615
-388 210 -181 419 -443 553 -695 87 -163 185 -431 223 -614 7 -35 34 -187 34
-195 0 -4 -46 -14 -102 -24 -116 -18 -146 -24 -185 -32 -16 -3 -41 -7 -58 -10
-76 -14 -341 -86 -445 -122 -354 -121 -685 -289 -999 -506 l-108 -74 -18 31
c-10 18 -21 34 -25 37 -3 3 -17 21 -30 40 -120 176 -402 483 -605 660 -243
211 -572 426 -889 579 l-129 62 34 37 c84 91 191 188 274 247 162 117 420 228
600 259 17 3 52 10 79 15 65 12 335 12 411 0 189 -31 309 -67 465 -141 311
-149 537 -374 711 -707 42 -81 55 -89 111 -73 24 7 52 14 63 17 11 3 31 9 45
14 21 8 38 13 90 26 39 9 88 32 97 44 18 24 9 53 -53 175 -194 382 -511 686
-916 879 -84 40 -277 111 -331 121 -12 2 -29 7 -37 10 -21 8 -184 36 -255 43
-132 14 -372 6 -505 -17 -93 -16 -112 -20 -190 -41 -482 -131 -901 -445 -1156
-869 -81 -134 -116 -214 -105 -243 10 -25 19 -30 146 -73 348 -118 704 -308
1005 -538 58 -44 110 -85 116 -91 6 -5 40 -35 75 -65 271 -233 586 -620 745
-915 20 -38 44 -78 52 -87 28 -33 65 -22 138 43 544 482 1180 774 1902 874 20
3 51 7 67 10 29 4 140 13 253 19 91 6 95 15 88 186 -3 80 -7 154 -10 165 -2
11 -7 51 -10 89 -4 38 -9 72 -10 75 -2 3 -7 27 -10 52 -9 65 -40 201 -69 299
-98 329 -241 614 -447 889 -103 138 -144 185 -270 311 -301 303 -651 521
-1065 666 -69 25 -260 79 -306 87 -13 3 -51 10 -84 16 -33 6 -69 13 -80 15
-12 2 -48 7 -80 11 -33 4 -71 9 -85 12 -29 5 -476 14 -481 9z"/>
<path d="M518 4575 c-2 -1 -45 -5 -95 -9 -112 -8 -227 -22 -306 -37 -81 -16
-80 -15 -104 -234 -10 -90 -10 -531 0 -610 12 -93 19 -148 23 -170 9 -47 25
-137 30 -162 36 -194 150 -509 263 -728 228 -442 543 -805 956 -1101 385 -276
938 -492 1381 -540 82 -9 98 10 119 136 3 19 8 46 10 60 31 155 37 485 10 640
-2 14 -9 54 -15 90 -87 513 -404 1031 -814 1335 -281 208 -584 346 -893 406
-111 22 -113 22 -134 3 -18 -16 -20 -27 -16 -69 11 -101 80 -321 105 -334 10
-5 53 -18 97 -30 326 -89 649 -300 877 -574 214 -257 361 -611 394 -949 5 -53
7 -248 2 -253 -7 -7 -332 107 -434 152 -686 308 -1211 887 -1437 1588 -26 81
-71 254 -81 310 -17 99 -25 156 -30 200 -3 28 -8 73 -11 100 -8 69 -9 355 -1
362 11 12 324 18 426 8 399 -36 670 -111 1009 -277 584 -288 1056 -811 1288
-1428 42 -112 95 -295 109 -375 2 -16 7 -37 9 -45 3 -8 11 -60 19 -115 38
-255 38 -512 1 -766 -8 -53 -17 -118 -20 -145 -4 -27 -8 -60 -11 -74 -39 -227
-15 -842 35 -893 10 -10 38 -20 67 -22 27 -3 56 -7 64 -10 8 -2 63 -7 122 -10
99 -6 108 -5 127 14 22 22 22 31 1 166 -26 167 -34 459 -17 644 46 499 254
1011 573 1411 75 94 306 329 369 375 22 17 42 32 45 35 17 20 145 111 231 165
332 210 720 349 1121 400 121 15 388 26 435 17 l22 -4 -4 -202 c-2 -110 -6
-214 -9 -231 -3 -16 -10 -64 -16 -105 -23 -167 -56 -311 -107 -465 -262 -796
-876 -1407 -1692 -1686 -46 -16 -87 -27 -90 -25 -16 11 3 266 30 401 106 527
433 968 911 1228 74 41 219 103 289 123 25 8 53 22 61 31 15 17 56 144 92 283
20 77 11 116 -27 125 -14 4 -65 -5 -118 -20 -52 -14 -101 -28 -109 -30 -92
-22 -345 -136 -479 -217 -600 -359 -993 -982 -1057 -1673 -15 -167 -7 -391 21
-545 3 -14 7 -41 10 -60 10 -64 25 -108 40 -120 16 -13 102 -8 163 9 18 6 35
10 37 10 3 0 18 2 33 5 15 4 36 8 47 10 248 48 660 220 934 390 95 60 290 202
371 272 99 84 331 325 408 421 279 352 477 746 582 1163 12 47 23 92 25 100
12 63 35 193 39 228 4 23 8 59 11 80 16 130 22 429 10 562 -20 226 -30 282
-53 303 -55 47 -653 59 -917 17 -33 -5 -78 -12 -100 -16 -31 -4 -161 -32 -230
-48 -111 -27 -312 -94 -439 -148 -556 -232 -1032 -628 -1368 -1136 l-82 -124
-31 124 c-54 214 -138 443 -226 619 -45 90 -152 273 -161 277 -4 2 -8 8 -8 14
0 8 -39 68 -77 118 -6 8 -28 38 -49 65 -265 357 -663 688 -1074 895 -230 115
-549 228 -726 256 -21 3 -42 8 -45 10 -4 2 -24 6 -44 10 -21 3 -46 7 -55 9
-10 2 -40 6 -67 10 -26 4 -59 8 -73 10 -87 13 -492 28 -502 20z"/>
</g>
</svg>
