<svg width="24" height="24" viewBox="0 0 24 24" fill="none" xmlns="http://www.w3.org/2000/svg">
<path d="M2.49999 9.85715C2.49999 9.06036 2.49999 8.66197 2.5752 8.33242C2.83163 7.20894 3.70893 6.33163 4.83242 6.0752C5.16196 5.99998 5.56036 5.99998 6.35714 5.99998V5.99998C6.4966 5.99998 6.56633 5.99998 6.63209 5.99122C6.85296 5.96179 7.05767 5.85943 7.21374 5.7004C7.2602 5.65305 7.30204 5.59727 7.38572 5.4857L7.54 5.27998C7.892 4.81065 8.068 4.57599 8.29105 4.40674C8.4886 4.25683 8.71232 4.14498 8.95077 4.07688C9.22 3.99998 9.51334 3.99998 10.1 3.99998H13.9C14.4867 3.99998 14.78 3.99998 15.0492 4.07688C15.2877 4.14498 15.5114 4.25683 15.7089 4.40674C15.932 4.57599 16.108 4.81065 16.46 5.27998L16.6143 5.48572C16.698 5.59727 16.7398 5.65304 16.7862 5.70038C16.9423 5.85943 17.1471 5.9618 17.3679 5.99123C17.4337 5.99998 17.5034 5.99998 17.6428 5.99998V5.99998C18.4394 5.99998 18.8378 5.99998 19.1672 6.07517C20.2908 6.33157 21.1682 7.20896 21.4246 8.33255C21.4998 8.66203 21.4998 9.06034 21.4998 9.85696L21.4998 14.2C21.4998 15.8801 21.4998 16.7202 21.1728 17.362C20.8852 17.9265 20.4263 18.3854 19.8618 18.673C19.22 19 18.38 19 16.6998 19H7.29999C5.61984 19 4.77976 19 4.13803 18.673C3.57354 18.3854 3.1146 17.9265 2.82698 17.362C2.5 16.7202 2.5 15.8802 2.49999 14.2L2.49999 9.85715Z" stroke="currentColor" stroke-width="1.5"/>
<circle cx="12" cy="12" r="3.5" stroke="currentColor" stroke-width="1.5"/>
</svg>
