<svg width="24" height="24" viewBox="0 0 24 24" fill="none" xmlns="http://www.w3.org/2000/svg">
<path fill-rule="evenodd" clip-rule="evenodd" d="M12 3.75C7.44365 3.75 3.75 7.44365 3.75 12C3.75 16.5563 7.44365 20.25 12 20.25C16.5563 20.25 20.25 16.5563 20.25 12C20.25 7.44365 16.5563 3.75 12 3.75ZM2.25 12C2.25 6.61522 6.61522 2.25 12 2.25C17.3848 2.25 21.75 6.61522 21.75 12C21.75 17.3848 17.3848 21.75 12 21.75C6.61522 21.75 2.25 17.3848 2.25 12Z" fill="#EE6A5E"/>
<path d="M14.4393 15.5C14.7322 15.7929 15.207 15.7929 15.4999 15.5C15.7928 15.2071 15.7928 14.7322 15.4999 14.4393L13.0606 12L15.5 9.56066C15.7928 9.26777 15.7928 8.7929 15.5 8.5C15.2071 8.20711 14.7322 8.20711 14.4393 8.5L11.9999 10.9393L9.5606 8.5C9.26771 8.20711 8.79284 8.20711 8.49994 8.5C8.20705 8.7929 8.20705 9.26777 8.49994 9.56066L10.9393 12L8.49995 14.4393C8.20706 14.7322 8.20706 15.2071 8.49995 15.5C8.79285 15.7929 9.26772 15.7929 9.56061 15.5L11.9999 13.0607L14.4393 15.5Z" fill="#EE6A5E"/>
</svg>
