<svg width="24" height="24" viewBox="0 0 24 24" fill="none" xmlns="http://www.w3.org/2000/svg">
<path fill-rule="evenodd" clip-rule="evenodd" d="M6 3.75C4.75736 3.75 3.75 4.75736 3.75 6V7C3.75 7.41421 3.41421 7.75 3 7.75C2.58579 7.75 2.25 7.41421 2.25 7V6C2.25 3.92893 3.92893 2.25 6 2.25H7C7.41421 2.25 7.75 2.58579 7.75 3C7.75 3.41421 7.41421 3.75 7 3.75H6ZM16.25 3C16.25 2.58579 16.5858 2.25 17 2.25H18C20.0711 2.25 21.75 3.92893 21.75 6V7C21.75 7.41421 21.4142 7.75 21 7.75C20.5858 7.75 20.25 7.41421 20.25 7V6C20.25 4.75736 19.2426 3.75 18 3.75H17C16.5858 3.75 16.25 3.41421 16.25 3ZM6.25 9C6.25 7.48122 7.48122 6.25 9 6.25H15C16.5188 6.25 17.75 7.48122 17.75 9V10.25H20C20.4142 10.25 20.75 10.5858 20.75 11C20.75 11.4142 20.4142 11.75 20 11.75H17.75V15C17.75 16.5188 16.5188 17.75 15 17.75H9C7.48122 17.75 6.25 16.5188 6.25 15V11.75H4C3.58579 11.75 3.25 11.4142 3.25 11C3.25 10.5858 3.58579 10.25 4 10.25H6.25V9ZM7.75 11.75V15C7.75 15.6904 8.30964 16.25 9 16.25H15C15.6904 16.25 16.25 15.6904 16.25 15V11.75H7.75ZM16.25 10.25H7.75V9C7.75 8.30964 8.30964 7.75 9 7.75H15C15.6904 7.75 16.25 8.30964 16.25 9V10.25ZM3 16.25C3.41421 16.25 3.75 16.5858 3.75 17V18C3.75 19.2426 4.75736 20.25 6 20.25H7C7.41421 20.25 7.75 20.5858 7.75 21C7.75 21.4142 7.41421 21.75 7 21.75H6C3.92893 21.75 2.25 20.0711 2.25 18V17C2.25 16.5858 2.58579 16.25 3 16.25ZM21 16.25C21.4142 16.25 21.75 16.5858 21.75 17V18C21.75 20.0711 20.0711 21.75 18 21.75H17C16.5858 21.75 16.25 21.4142 16.25 21C16.25 20.5858 16.5858 20.25 17 20.25H18C19.2426 20.25 20.25 19.2426 20.25 18V17C20.25 16.5858 20.5858 16.25 21 16.25Z" fill="currentColor"/>
</svg>
