<svg width="24" height="24" viewBox="0 0 24 24" fill="none" xmlns="http://www.w3.org/2000/svg">
<path fill-rule="evenodd" clip-rule="evenodd" d="M16.7727 3.69148C15.894 2.8128 14.4694 2.8128 13.5907 3.69148C12.7121 4.57016 12.7121 5.99478 13.5907 6.87346C13.8836 7.16635 13.8836 7.64123 13.5907 7.93412L7.93388 13.591C7.64098 13.8839 7.16611 13.8839 6.87322 13.591C5.99454 12.7123 4.56992 12.7123 3.69124 13.591C2.81256 14.4697 2.81256 15.8943 3.69124 16.773C4.10165 17.1834 4.62939 17.4017 5.16702 17.429C5.90814 17.4667 6.533 18.0916 6.57069 18.8327C6.59803 19.3703 6.81636 19.8981 7.22677 20.3085C8.10545 21.1872 9.53007 21.1872 10.4088 20.3085C11.2874 19.4298 11.2874 18.0052 10.4088 17.1265C10.1159 16.8336 10.1159 16.3587 10.4088 16.0658L16.0656 10.409C16.3585 10.1161 16.8334 10.1161 17.1263 10.409C18.0049 11.2877 19.4296 11.2877 20.3082 10.409C21.1869 9.53031 21.1869 8.10569 20.3082 7.22701C19.8978 6.8166 19.3701 6.59827 18.8325 6.57093C18.0913 6.53325 17.4665 5.90838 17.4288 5.16726C17.4015 4.62963 17.1831 4.10189 16.7727 3.69148ZM12.5301 2.63082C13.9945 1.16635 16.3689 1.16635 17.8334 2.63082C18.5113 3.30871 18.8757 4.1833 18.9257 5.07038L18.9275 5.07222L18.9293 5.07398C19.8164 5.12399 20.691 5.48847 21.3689 6.16635C22.8334 7.63082 22.8334 10.0052 21.3689 11.4697C20.0861 12.7525 18.105 12.9116 16.649 11.9469L11.9467 16.6492C12.9114 18.1052 12.7523 20.0863 11.4694 21.3692C10.0049 22.8336 7.63058 22.8336 6.16611 21.3692C5.48823 20.6913 5.12375 19.8167 5.07373 18.9296L5.07198 18.9277L5.07014 18.926C4.18306 18.876 3.30846 18.5115 2.63058 17.8336C1.16611 16.3692 1.16611 13.9948 2.63058 12.5303C3.91342 11.2475 5.89448 11.0884 7.3505 12.053L12.0528 7.35075C11.0881 5.89472 11.2472 3.91367 12.5301 2.63082Z" fill="currentColor"/>
</svg>
