<svg width="24" height="24" viewBox="0 0 24 24" fill="none" xmlns="http://www.w3.org/2000/svg">
<path fill-rule="evenodd" clip-rule="evenodd" d="M11.5422 2.47705C11.8453 2.42586 12.1549 2.42586 12.458 2.47705C12.8021 2.53516 13.1241 2.67851 13.5333 2.86066L19.5086 5.51631C20.0941 5.77592 20.5536 5.97969 20.9026 6.31406C21.2091 6.60773 21.4435 6.96837 21.5874 7.36773C21.7512 7.82245 21.7507 8.32515 21.7502 8.96561V15.0344C21.7507 15.6749 21.7512 16.1776 21.5874 16.6323C21.4435 17.0317 21.2091 17.3923 20.9026 17.686C20.5536 18.0204 20.0941 18.2241 19.5086 18.4837L13.5333 21.1394C13.1242 21.3215 12.8021 21.4649 12.458 21.523C12.1549 21.5742 11.8453 21.5742 11.5422 21.523C11.1981 21.4649 10.8761 21.3215 10.467 21.1394L4.49167 18.4837C3.90621 18.2241 3.44663 18.0204 3.09764 17.686C2.79113 17.3923 2.55676 17.0317 2.41289 16.6323C2.24908 16.1776 2.24951 15.6749 2.25006 15.0344V8.9656C2.24951 8.32515 2.24908 7.82244 2.41289 7.36773C2.55676 6.96837 2.79113 6.60773 3.09764 6.31406C3.44663 5.97969 3.90619 5.77592 4.49167 5.51631L10.467 2.86066C10.8761 2.67851 11.1981 2.53516 11.5422 2.47705ZM12.2083 3.95611C12.0705 3.93284 11.9298 3.93284 11.792 3.95611C11.6583 3.97869 11.5188 4.03469 11.0051 4.263L9.34678 5.00003L16.5405 8.19722L19.2136 7.02898C19.0976 6.97575 18.9599 6.91398 18.7952 6.84078L12.9952 4.263C12.4815 4.03469 12.342 3.97869 12.2083 3.95611ZM14.6783 9.01106L7.50012 5.82076L5.20509 6.84078C5.04038 6.91398 4.90269 6.97575 4.78667 7.02898L12.0001 10.1815L14.6783 9.01106ZM3.75013 9.07962C3.75013 8.65857 3.753 8.39758 3.76466 8.21932L11.2501 11.4907V19.8452C11.1793 19.8143 11.0984 19.7785 11.0051 19.737L5.20509 17.1593C4.46483 16.8303 4.2703 16.7322 4.13536 16.6029C3.99604 16.4694 3.8895 16.3055 3.82411 16.1239C3.76077 15.9481 3.75013 15.7305 3.75013 14.9204V9.07962ZM12.9952 19.737C12.9019 19.7785 12.8209 19.8143 12.7501 19.8452V11.4907L20.2356 8.21931C20.2473 8.39757 20.2501 8.65856 20.2501 9.07962V14.9204C20.2501 15.7305 20.2395 15.9481 20.1761 16.1239C20.1108 16.3055 20.0042 16.4694 19.8649 16.6029C19.7299 16.7322 19.5354 16.8303 18.7952 17.1593L12.9952 19.737Z" fill="currentColor"/>
</svg>
