<svg width="24" height="24" viewBox="0 0 24 24" fill="none" xmlns="http://www.w3.org/2000/svg">
<path fill-rule="evenodd" clip-rule="evenodd" d="M16 1.75C16.4142 1.75 16.75 2.08579 16.75 2.5V5.5C16.75 5.91421 16.4142 6.25 16 6.25C15.5858 6.25 15.25 5.91421 15.25 5.5V2.5C15.25 2.08579 15.5858 1.75 16 1.75Z" fill="currentColor"/>
<path fill-rule="evenodd" clip-rule="evenodd" d="M16.75 2.5C16.75 2.08579 16.4142 1.75 16 1.75C15.5858 1.75 15.25 2.08579 15.25 2.5V3.25H8.75V2.5C8.75 2.08579 8.41421 1.75 8 1.75C7.58579 1.75 7.25 2.08579 7.25 2.5V3.26598C7.07903 3.27229 6.91879 3.28109 6.76853 3.29336C6.2219 3.33803 5.74175 3.43239 5.29754 3.65873C4.59193 4.01825 4.01825 4.59193 3.65873 5.29754C3.43239 5.74175 3.33803 6.2219 3.29336 6.76853C3.24999 7.29944 3.24999 7.95505 3.25 8.76788V15.2321C3.24999 16.0449 3.24999 16.7006 3.29336 17.2315C3.33803 17.7781 3.43239 18.2582 3.65873 18.7025C4.01825 19.4081 4.59193 19.9818 5.29754 20.3413C5.74175 20.5676 6.2219 20.662 6.76853 20.7066C7.29944 20.75 7.95505 20.75 8.76788 20.75H15.2321C16.045 20.75 16.7006 20.75 17.2315 20.7066C17.7781 20.662 18.2582 20.5676 18.7025 20.3413C19.4081 19.9818 19.9818 19.4081 20.3413 18.7025C20.5676 18.2582 20.662 17.7781 20.7066 17.2315C20.75 16.7006 20.75 16.045 20.75 15.2321V8.76788C20.75 7.95505 20.75 7.29944 20.7066 6.76853C20.662 6.2219 20.5676 5.74175 20.3413 5.29754C19.9818 4.59193 19.4081 4.01825 18.7025 3.65873C18.2582 3.43239 17.7781 3.33803 17.2315 3.29336C17.0812 3.28109 16.921 3.27229 16.75 3.26598V2.5ZM19.2495 8.25C19.2478 7.68053 19.2407 7.24665 19.2116 6.89068C19.1745 6.4368 19.1054 6.17604 19.0048 5.97852C18.789 5.55516 18.4448 5.21095 18.0215 4.99524C17.824 4.8946 17.5632 4.82547 17.1093 4.78838C16.9978 4.77927 16.8786 4.77232 16.75 4.76702V5.5C16.75 5.91421 16.4142 6.25 16 6.25C15.5858 6.25 15.25 5.91421 15.25 5.5V4.75H8.75V5.5C8.75 5.91421 8.41421 6.25 8 6.25C7.58579 6.25 7.25 5.91421 7.25 5.5V4.76702C7.1214 4.77232 7.00221 4.77927 6.89068 4.78838C6.43681 4.82547 6.17604 4.8946 5.97852 4.99524C5.55516 5.21095 5.21095 5.55516 4.99524 5.97852C4.8946 6.17604 4.82547 6.4368 4.78838 6.89068C4.7593 7.24665 4.75225 7.68053 4.75054 8.25H19.2495ZM4.75 9.75H19.25V15.2C19.25 16.0525 19.2494 16.6467 19.2116 17.1093C19.1745 17.5632 19.1054 17.824 19.0048 18.0215C18.789 18.4448 18.4448 18.789 18.0215 19.0048C17.824 19.1054 17.5632 19.1745 17.1093 19.2116C16.6467 19.2494 16.0525 19.25 15.2 19.25H8.8C7.94755 19.25 7.35331 19.2494 6.89068 19.2116C6.43681 19.1745 6.17604 19.1054 5.97852 19.0048C5.55516 18.789 5.21095 18.4448 4.99524 18.0215C4.8946 17.824 4.82547 17.5632 4.78838 17.1093C4.75058 16.6467 4.75 16.0525 4.75 15.2V9.75Z" fill="currentColor"/>
<path d="M17.5 16C17.5 16.8284 16.8284 17.5 16 17.5C15.1716 17.5 14.5 16.8284 14.5 16C14.5 15.1716 15.1716 14.5 16 14.5C16.8284 14.5 17.5 15.1716 17.5 16Z" fill="currentColor"/>
</svg>
