<svg width="24" height="24" viewBox="0 0 24 24" fill="none" xmlns="http://www.w3.org/2000/svg">
<path d="M2.49999 9.85716C2.49999 9.06037 2.49999 8.66198 2.5752 8.33243C2.83163 7.20895 3.70893 6.33165 4.83242 6.07522C5.16196 6 5.56036 6 6.35714 6V6C6.4966 6 6.56633 6 6.63209 5.99124C6.85296 5.96181 7.05767 5.85945 7.21374 5.70041C7.2602 5.65307 7.30204 5.59728 7.38572 5.48571L7.54 5.28C7.892 4.81067 8.068 4.576 8.29105 4.40675C8.4886 4.25685 8.71232 4.14499 8.95077 4.07689C9.22 4 9.51334 4 10.1 4H13.9C14.4867 4 14.78 4 15.0492 4.07689C15.2877 4.14499 15.5114 4.25685 15.7089 4.40675C15.932 4.576 16.108 4.81067 16.46 5.28L16.6143 5.48574C16.698 5.59728 16.7398 5.65306 16.7862 5.70039C16.9423 5.85945 17.1471 5.96181 17.3679 5.99124C17.4337 6 17.5034 6 17.6428 6V6C18.4394 6 18.8378 6 19.1672 6.07519C20.2908 6.33159 21.1682 7.20897 21.4246 8.33256C21.4998 8.66204 21.4998 9.06035 21.4998 9.85697L21.4998 14.2C21.4998 15.8802 21.4998 16.7202 21.1728 17.362C20.8852 17.9265 20.4263 18.3854 19.8618 18.673C19.22 19 18.38 19 16.6998 19H7.29999C5.61984 19 4.77976 19 4.13803 18.673C3.57354 18.3854 3.1146 17.9265 2.82698 17.362C2.5 16.7203 2.5 15.8802 2.49999 14.2L2.49999 9.85716Z" stroke="currentColor" stroke-width="1.5"/>
<circle cx="12" cy="12" r="3.5" stroke="currentColor" stroke-width="1.5"/>
</svg>
