<svg width="24" height="24" viewBox="0 0 24 24" fill="none" xmlns="http://www.w3.org/2000/svg">
<path fill-rule="evenodd" clip-rule="evenodd" d="M10.7629 5.1058C13.0084 2.86028 16.6491 2.86028 18.8946 5.1058C21.1401 7.35131 21.1401 10.992 18.8946 13.2375L16.0764 16.0557C16.0694 16.063 16.0623 16.0701 16.055 16.0771L13.2377 18.8944C10.9922 21.1399 7.35153 21.1399 5.10601 18.8944C2.8605 16.6489 2.8605 13.0082 5.10601 10.7627L7.9233 7.94536C7.93029 7.93808 7.93742 7.93095 7.94468 7.92398L10.7629 5.1058ZM7.77977 10.2102L6.16667 11.8233C4.50694 13.483 4.50694 16.174 6.16667 17.8337C7.8264 19.4934 10.5174 19.4934 12.1771 17.8337L13.7902 16.2206C12.7686 15.9779 11.4683 15.3572 10.0558 13.9446C8.64323 12.5321 8.02253 11.2318 7.77977 10.2102ZM15.1682 14.8426C15.1464 14.8451 15.1223 14.8475 15.0962 14.8495C14.9143 14.864 14.6284 14.8635 14.2588 14.7882C13.5279 14.6392 12.4196 14.1872 11.1164 12.884C9.8132 11.5808 9.36116 10.4725 9.21223 9.74158C9.13692 9.37202 9.13642 9.08604 9.15084 8.9042C9.15291 8.87804 9.1553 8.85401 9.15782 8.83216L11.8235 6.16646C13.4833 4.50673 16.1742 4.50673 17.8339 6.16646C19.4937 7.82618 19.4937 10.5171 17.8339 12.1769L15.1682 14.8426Z" fill="currentColor"/>
</svg>
