<svg width="152" height="152" viewBox="0 0 152 152" fill="none" xmlns="http://www.w3.org/2000/svg">
<ellipse cx="75.5" cy="131" rx="69.5" ry="8" fill="#F5F6FA"/>
<path d="M33.4293 123.493L19.0059 66.5205H133.62L118.446 123.603C117.767 126.157 117.428 127.434 116.701 128.383C116.061 129.221 115.21 129.875 114.236 130.279C113.132 130.737 111.81 130.737 109.168 130.737H42.7357C40.0632 130.737 38.727 130.737 37.6144 130.271C36.6326 129.859 35.778 129.194 35.1382 128.343C34.4131 127.379 34.0851 126.084 33.4293 123.493Z" fill="white"/>
<path d="M19.0059 66.5205L33.4293 123.493C34.0851 126.084 34.4131 127.379 35.1382 128.343C35.778 129.194 36.6326 129.859 37.6144 130.271C38.727 130.737 40.0632 130.737 42.7357 130.737H109.168C111.81 130.737 113.132 130.737 114.236 130.279C115.21 129.875 116.061 129.221 116.701 128.383C117.428 127.434 117.767 126.157 118.446 123.603L133.62 66.5205M19.0059 66.5205H133.62M19.0059 66.5205H5.5M133.62 66.5205H145.5" stroke="#E8EBED" stroke-width="2" stroke-linecap="round" stroke-dasharray="6 6"/>
<path d="M81 106C80.6932 103.532 78.2059 101.754 75.4444 102.028C73.0049 102.27 71.2711 103.82 71 106" stroke="#D9D9D9" stroke-width="2" stroke-linecap="round"/>
<circle cx="67" cy="93" r="2" fill="#D9D9D9"/>
<circle cx="85" cy="93" r="2" fill="#D9D9D9"/>
<path d="M37.7656 75.0234L60.5259 23" stroke="#E8EBED" stroke-width="2" stroke-linecap="round" stroke-dasharray="6 6"/>
<path d="M113.422 75.0234L90.6616 23" stroke="#E8EBED" stroke-width="2" stroke-linecap="round" stroke-dasharray="6 6"/>
</svg>
