<svg width="24" height="24" viewBox="0 0 24 24" fill="none" xmlns="http://www.w3.org/2000/svg">
<path fill-rule="evenodd" clip-rule="evenodd" d="M3.75 9.5C3.75 6.32436 6.32436 3.75 9.5 3.75C11.8795 3.75 13.9213 5.19531 14.7956 7.25593C14.6975 7.25199 14.599 7.25 14.5 7.25C14.0168 7.25 13.5439 7.29738 13.0859 7.38798C12.6796 7.46837 12.4153 7.86293 12.4957 8.26927C12.5761 8.67561 12.9707 8.93985 13.377 8.85946C13.7396 8.78773 14.115 8.75 14.5 8.75C14.7396 8.75 14.9755 8.76462 15.207 8.79295C15.2354 9.02465 15.25 9.26062 15.25 9.5C15.25 12.6756 12.6756 15.25 9.5 15.25C9.26062 15.25 9.02465 15.2354 8.79295 15.207C8.76462 14.9755 8.75 14.7396 8.75 14.5C8.75 14.115 8.78773 13.7396 8.85946 13.377C8.93985 12.9707 8.67561 12.5761 8.26927 12.4957C7.86293 12.4153 7.46837 12.6796 7.38798 13.0859C7.29738 13.5439 7.25 14.0168 7.25 14.5C7.25 14.599 7.25199 14.6975 7.25593 14.7956C5.19531 13.9213 3.75 11.8795 3.75 9.5ZM9.5 2.25C5.49594 2.25 2.25 5.49594 2.25 9.5C2.25 13.5041 5.49594 16.75 9.5 16.75C13.5041 16.75 16.75 13.5041 16.75 9.5C16.75 5.49594 13.5041 2.25 9.5 2.25ZM11.3057 9.71805C11.6499 9.48762 11.7422 9.02178 11.5117 8.67759C11.2813 8.33339 10.8155 8.24116 10.4713 8.4716C9.68096 9.00069 9.00069 9.68096 8.4716 10.4713C8.24116 10.8155 8.33339 11.2813 8.67759 11.5117C9.02178 11.7422 9.48762 11.6499 9.71805 11.3057C10.1381 10.6784 10.6784 10.1381 11.3057 9.71805ZM18.5287 8.4716C18.1845 8.24116 17.7187 8.33339 17.4883 8.67759C17.2578 9.02178 17.3501 9.48762 17.6943 9.71805C18.3216 10.1381 18.8619 10.6784 19.2819 11.3057C19.5124 11.6499 19.9782 11.7422 20.3224 11.5117C20.6666 11.2813 20.7588 10.8155 20.5284 10.4713C19.9993 9.68096 19.319 9.00069 18.5287 8.4716ZM21.612 13.0859C21.5316 12.6796 21.1371 12.4153 20.7307 12.4957C20.3244 12.5761 20.0602 12.9707 20.1405 13.377C20.2123 13.7396 20.25 14.115 20.25 14.5C20.25 14.885 20.2123 15.2604 20.1405 15.623C20.0602 16.0293 20.3244 16.4239 20.7307 16.5043C21.1371 16.5847 21.5316 16.3204 21.612 15.9141C21.7026 15.4561 21.75 14.9832 21.75 14.5C21.75 14.0168 21.7026 13.5439 21.612 13.0859ZM9.71805 17.6943C9.48762 17.3501 9.02178 17.2578 8.67759 17.4883C8.33339 17.7187 8.24116 18.1845 8.4716 18.5287C9.00069 19.319 9.68096 19.9993 10.4713 20.5284C10.8155 20.7588 11.2813 20.6666 11.5117 20.3224C11.7422 19.9782 11.6499 19.5124 11.3057 19.2819C10.6784 18.8619 10.1381 18.3216 9.71805 17.6943ZM20.5284 18.5287C20.7588 18.1845 20.6666 17.7187 20.3224 17.4883C19.9782 17.2578 19.5124 17.3501 19.2819 17.6943C18.8619 18.3216 18.3216 18.8619 17.6943 19.2819C17.3501 19.5124 17.2578 19.9782 17.4883 20.3224C17.7187 20.6666 18.1845 20.7588 18.5287 20.5284C19.319 19.9993 19.9993 19.319 20.5284 18.5287ZM13.377 20.1405C12.9707 20.0602 12.5761 20.3244 12.4957 20.7307C12.4153 21.1371 12.6796 21.5316 13.0859 21.612C13.5439 21.7026 14.0168 21.75 14.5 21.75C14.9832 21.75 15.4561 21.7026 15.9141 21.612C16.3204 21.5316 16.5847 21.1371 16.5043 20.7307C16.4239 20.3244 16.0293 20.0602 15.623 20.1405C15.2604 20.2123 14.885 20.25 14.5 20.25C14.115 20.25 13.7396 20.2123 13.377 20.1405Z" fill="currentColor"/>
</svg>
