<svg width="24" height="24" viewBox="0 0 24 24" fill="none" xmlns="http://www.w3.org/2000/svg">
<path fill-rule="evenodd" clip-rule="evenodd" d="M10.1696 5.25H16.8304C17.3646 5.24999 17.8104 5.24998 18.1747 5.27974C18.5546 5.31078 18.9112 5.37789 19.2485 5.54973C19.7659 5.81338 20.1866 6.23408 20.4503 6.75153C20.6221 7.08879 20.6892 7.44545 20.7203 7.82533C20.75 8.18956 20.75 8.6354 20.75 9.16955V16.8305C20.75 17.3646 20.75 17.8104 20.7203 18.1747C20.6892 18.5546 20.6221 18.9112 20.4503 19.2485C20.1866 19.7659 19.7659 20.1866 19.2485 20.4503C18.9112 20.6221 18.5546 20.6892 18.1747 20.7203C17.8104 20.75 17.3646 20.75 16.8305 20.75H10.1695C9.6354 20.75 9.18956 20.75 8.82533 20.7203C8.44545 20.6892 8.08879 20.6221 7.75153 20.4503C7.23408 20.1866 6.81338 19.7659 6.54973 19.2485C6.37789 18.9112 6.31078 18.5546 6.27974 18.1747C6.24998 17.8104 6.24999 17.3646 6.25 16.8304V9.16957C6.24999 8.63541 6.24998 8.18956 6.27974 7.82533C6.31078 7.44545 6.37789 7.08879 6.54973 6.75153C6.81338 6.23408 7.23408 5.81338 7.75153 5.54973C8.08879 5.37789 8.44545 5.31078 8.82533 5.27974C9.18956 5.24998 9.63541 5.24999 10.1696 5.25ZM8.94748 6.77476C8.66035 6.79822 8.52307 6.8401 8.43251 6.88624C8.19731 7.00608 8.00608 7.19731 7.88624 7.43251C7.8401 7.52307 7.79822 7.66035 7.77476 7.94748C7.75058 8.24336 7.75 8.62757 7.75 9.2V16.8C7.75 17.3724 7.75058 17.7566 7.77476 18.0525C7.79822 18.3396 7.8401 18.4769 7.88624 18.5675C8.00608 18.8027 8.19731 18.9939 8.43251 19.1138C8.52307 19.1599 8.66035 19.2018 8.94748 19.2252C9.24336 19.2494 9.62757 19.25 10.2 19.25H16.8C17.3724 19.25 17.7566 19.2494 18.0525 19.2252C18.3396 19.2018 18.4769 19.1599 18.5675 19.1138C18.8027 18.9939 18.9939 18.8027 19.1138 18.5675C19.1599 18.4769 19.2018 18.3396 19.2252 18.0525C19.2494 17.7566 19.25 17.3724 19.25 16.8V9.2C19.25 8.62757 19.2494 8.24336 19.2252 7.94748C19.2018 7.66035 19.1599 7.52307 19.1138 7.43251C18.9939 7.19731 18.8027 7.00608 18.5675 6.88624C18.4769 6.8401 18.3396 6.79822 18.0525 6.77476C17.7566 6.75058 17.3724 6.75 16.8 6.75H10.2C9.62757 6.75 9.24336 6.75058 8.94748 6.77476Z" fill="currentColor"/>
<path fill-rule="evenodd" clip-rule="evenodd" d="M11.9664 2.25L16 2.25C16.4142 2.25 16.75 2.58579 16.75 3C16.75 3.41421 16.4142 3.75 16 3.75H12C10.5875 3.75 9.57322 3.75058 8.77708 3.81563C7.9897 3.87996 7.48197 4.00359 7.07054 4.21322C6.27085 4.62068 5.62068 5.27085 5.21322 6.07054C5.00359 6.48197 4.87996 6.9897 4.81563 7.77708C4.75058 8.57322 4.75 9.58749 4.75 11V16C4.75 16.4142 4.41421 16.75 4 16.75C3.58579 16.75 3.25 16.4142 3.25 16L3.25 10.9664C3.25 9.59472 3.24999 8.51929 3.32061 7.65494C3.39252 6.77479 3.54138 6.04769 3.87671 5.38955C4.42798 4.30762 5.30762 3.42798 6.38955 2.87671C7.04769 2.54138 7.77479 2.39252 8.65494 2.32061C9.51929 2.24999 10.5947 2.25 11.9664 2.25Z" fill="currentColor"/>
</svg>
