<svg width="24" height="24" viewBox="0 0 24 24" fill="none" xmlns="http://www.w3.org/2000/svg">
<path d="M6.8731 5.81284C6.58021 5.51995 6.10534 5.51995 5.81244 5.81284C5.51955 6.10573 5.51955 6.58061 5.81244 6.8735L10.939 12.0001L5.81257 17.1266C5.51968 17.4195 5.51968 17.8943 5.81257 18.1872C6.10547 18.4801 6.58034 18.4801 6.87323 18.1872L11.9997 13.0608L17.1262 18.1872C17.419 18.4801 17.8939 18.4801 18.1868 18.1872C18.4797 17.8943 18.4797 17.4194 18.1868 17.1265L13.0604 12.0001L18.1869 6.87352C18.4798 6.58063 18.4798 6.10575 18.1869 5.81286C17.894 5.51997 17.4192 5.51997 17.1263 5.81286L11.9997 10.9394L6.8731 5.81284Z" fill="currentColor"/>
</svg>
