<svg width="24" height="24" viewBox="0 0 24 24" fill="none" xmlns="http://www.w3.org/2000/svg">
<path d="M8.50006 14.4393C8.20716 14.7322 8.20716 15.207 8.50006 15.4999C8.79295 15.7928 9.26782 15.7928 9.56072 15.4999L12.0001 13.0606L14.4394 15.5C14.7323 15.7928 15.2072 15.7928 15.5001 15.5C15.7929 15.2071 15.793 14.7322 15.5001 14.4393L13.0607 11.9999L15.5001 9.5606C15.793 9.26771 15.7929 8.79284 15.5001 8.49994C15.2072 8.20705 14.7323 8.20705 14.4394 8.49994L12.0001 10.9393L9.56072 8.49995C9.26782 8.20706 8.79295 8.20706 8.50006 8.49995C8.20716 8.79285 8.20716 9.26772 8.50006 9.56061L10.9394 11.9999L8.50006 14.4393Z" fill="currentColor"/>
</svg>
