<svg width="24" height="24" viewBox="0 0 24 24" fill="none" xmlns="http://www.w3.org/2000/svg">
<path fill-rule="evenodd" clip-rule="evenodd" d="M12 20.25C8.54822 20.25 5.75 17.4518 5.75 14C5.75 12.5835 6.403 10.9975 7.37398 9.4452C8.33534 7.90829 9.55522 6.48786 10.5719 5.42099C11.1847 4.77798 11.3433 4.63625 11.6023 4.54931C11.6854 4.52141 11.8285 4.49749 12 4.49749C12.1715 4.49749 12.3146 4.52141 12.3977 4.54931C12.6567 4.63625 12.8153 4.77798 13.4281 5.42099C14.4448 6.48787 15.6647 7.90829 16.626 9.4452C17.597 10.9975 18.25 12.5835 18.25 14C18.25 17.4518 15.4518 20.25 12 20.25ZM4.25 14C4.25 18.2802 7.71979 21.75 12 21.75C16.2802 21.75 19.75 18.2802 19.75 14C19.75 12.1658 18.9237 10.2899 17.8977 8.64973C16.8622 6.99421 15.5676 5.49175 14.514 4.38617C14.4888 4.35979 14.464 4.33365 14.4393 4.30774C13.934 3.77639 13.5237 3.34498 12.8749 3.12726C12.5974 3.0341 12.2845 2.99749 12 2.99749C11.7155 2.99749 11.4026 3.0341 11.1251 3.12726C10.4763 3.34498 10.066 3.77639 9.56068 4.30774C9.53604 4.33365 9.51118 4.35979 9.48604 4.38617C8.43245 5.49175 7.13783 6.99421 6.10228 8.64973C5.07634 10.2899 4.25 12.1658 4.25 14Z" fill="currentColor"/>
</svg>
