<svg width="24" height="24" viewBox="0 0 24 24" fill="none" xmlns="http://www.w3.org/2000/svg">
<path fill-rule="evenodd" clip-rule="evenodd" d="M19.3238 3.23742C18.6404 2.554 17.5324 2.554 16.849 3.23742L4.12104 15.9653C3.98039 16.106 3.90137 16.2968 3.90137 16.4957L3.90137 19.6777C3.90137 20.0919 4.23715 20.4277 4.65137 20.4277H7.83335C8.03226 20.4276 8.22303 20.3486 8.36368 20.208L21.0916 7.48006C21.775 6.79664 21.775 5.6886 21.0916 5.00518L19.3238 3.23742ZM17.9096 4.29808C18.0073 4.20045 18.1655 4.20045 18.2632 4.29808L20.0309 6.06584C20.1286 6.16347 20.1286 6.32177 20.0309 6.4194L18.7935 7.65683L16.6722 5.53551L17.9096 4.29808ZM15.6115 6.59617L5.40137 16.8063V18.9276H7.52269L17.7328 8.71749L15.6115 6.59617Z" fill="currentColor"/>
</svg>
