<svg width="24" height="24" viewBox="0 0 24 24" fill="none" xmlns="http://www.w3.org/2000/svg">
<path fill-rule="evenodd" clip-rule="evenodd" d="M4.53033 4.46967C4.23744 4.17678 3.76256 4.17678 3.46967 4.46967C3.17678 4.76256 3.17678 5.23744 3.46967 5.53033L4.99942 7.06008C4.83585 7.18381 4.67816 7.31019 4.52647 7.4386C3.65435 8.17685 2.97198 8.98905 2.50291 9.76507C2.0446 10.5233 1.75 11.3139 1.75 12C1.75 12.6861 2.0446 13.4767 2.50291 14.2349C2.97198 15.011 3.65435 15.8232 4.52647 16.5614C6.27402 18.0407 8.81673 19.25 12 19.25C13.6296 19.25 15.0914 18.9331 16.3646 18.4252L17.9697 20.0303C18.2626 20.3232 18.7374 20.3232 19.0303 20.0303C19.3232 19.7374 19.3232 19.2626 19.0303 18.9697L4.53033 4.46967ZM15.1934 17.2541L13.4137 15.4744C12.9774 15.6521 12.5002 15.75 12 15.75C9.92893 15.75 8.25 14.0711 8.25 12C8.25 11.4998 8.34791 11.0226 8.52562 10.5863L6.0718 8.13246C5.86974 8.27859 5.67761 8.42942 5.49561 8.58348C4.73905 9.22391 4.1659 9.91355 3.78662 10.541C3.39658 11.1863 3.25 11.7008 3.25 12C3.25 12.2992 3.39658 12.8137 3.78662 13.459C4.1659 14.0865 4.73905 14.7761 5.49561 15.4165C7.00541 16.6946 9.21271 17.75 12 17.75C13.1695 17.75 14.2369 17.5642 15.1934 17.2541ZM9.75726 11.8179C9.75245 11.878 9.75 11.9387 9.75 12C9.75 13.2426 10.7574 14.25 12 14.25C12.0613 14.25 12.122 14.2475 12.1821 14.2427L9.75726 11.8179Z" fill="currentColor"/>
<path d="M10.5863 8.52562L11.8179 9.75726C11.878 9.75245 11.9387 9.75 12 9.75C13.2426 9.75 14.25 10.7574 14.25 12C14.25 12.0613 14.2475 12.122 14.2427 12.1821L15.4744 13.4137C15.6521 12.9774 15.75 12.5001 15.75 12C15.75 9.92893 14.0711 8.25 12 8.25C11.4999 8.25 11.0226 8.34791 10.5863 8.52562Z" fill="currentColor"/>
<path d="M18.5044 15.4165C18.3224 15.5706 18.1303 15.7214 17.9282 15.8675L19.0006 16.9399C19.1642 16.8162 19.3218 16.6898 19.4735 16.5614C20.3457 15.8232 21.028 15.011 21.4971 14.2349C21.9554 13.4767 22.25 12.6861 22.25 12C22.25 11.3139 21.9554 10.5233 21.4971 9.76507C21.028 8.98905 20.3457 8.17685 19.4735 7.4386C17.726 5.95929 15.1833 4.75 12 4.75C10.3704 4.75 8.90858 5.06693 7.63544 5.57478L8.80655 6.74589C9.76314 6.4358 10.8305 6.25 12 6.25C14.7873 6.25 16.9946 7.30543 18.5044 8.58348C19.2609 9.22391 19.8341 9.91355 20.2134 10.541C20.6034 11.1863 20.75 11.7008 20.75 12C20.75 12.2992 20.6034 12.8137 20.2134 13.459C19.8341 14.0865 19.2609 14.7761 18.5044 15.4165Z" fill="currentColor"/>
</svg>
