<svg width="24" height="24" viewBox="0 0 24 24" fill="none" xmlns="http://www.w3.org/2000/svg">
<path fill-rule="evenodd" clip-rule="evenodd" d="M12.0392 0.0902846C12.3942 -0.101527 12.8373 0.0218811 13.042 0.369572C13.844 1.73147 15.0007 2.86259 16.3852 3.63417C16.4603 3.67288 16.5377 3.71457 16.615 3.75919C18.1786 4.63204 19.4681 5.9365 20.3256 7.51183L20.3259 7.51241C21.0551 8.85501 21.4705 10.3937 21.4705 12.03C21.4705 12.7995 21.3788 13.5502 21.2048 14.2681L21.2048 14.2682C20.1983 18.4179 16.4609 21.5001 12.0004 21.5001C6.77007 21.5001 2.53027 17.2603 2.53027 12.03C2.53027 8.81232 4.13514 5.96798 6.58829 4.25936C6.78897 4.11959 7.0452 4.08644 7.27484 4.17053C7.50449 4.25463 7.67871 4.44541 7.74166 4.68172C7.78692 4.85159 7.83875 5.01872 7.89689 5.18284C8.08903 4.53685 8.35552 3.92242 8.68657 3.35C9.47856 1.97787 10.6408 0.845888 12.0392 0.0902846ZM12.1581 1.76991C11.2681 2.37075 10.5231 3.1687 9.9854 4.10035L9.98505 4.10096C9.40873 5.09749 9.06977 6.24832 9.04483 7.47555C9.03837 7.7936 8.83196 8.07297 8.52985 8.17258C8.22773 8.2722 7.89564 8.17039 7.70127 7.91856C7.27874 7.37114 6.92489 6.76775 6.65241 6.12103C5.04048 7.57895 4.03027 9.6867 4.03027 12.03C4.03027 16.4319 7.5985 20.0001 12.0004 20.0001C15.7525 20.0001 18.8999 17.4074 19.7471 13.9146C19.893 13.3122 19.9705 12.6801 19.9705 12.03C19.9705 10.6507 19.621 9.3575 19.0079 8.22867C18.2849 6.90038 17.1968 5.8008 15.8794 5.0665L15.8688 5.06055L15.8688 5.06046C15.8122 5.02766 15.752 4.99516 15.689 4.9629C15.6816 4.95911 15.6743 4.95519 15.6671 4.95116C14.2661 4.17284 13.0647 3.08031 12.1581 1.76991Z" fill="currentColor"/>
</svg>
