<svg width="24" height="24" viewBox="0 0 24 24" fill="none" xmlns="http://www.w3.org/2000/svg">
<path fill-rule="evenodd" clip-rule="evenodd" d="M8 4.75C5.65279 4.75 3.75 6.65279 3.75 9C3.75 11.0348 5.20094 13.1993 7.06716 15.1026C8.89873 16.9705 10.972 18.4287 11.9051 19.047C11.9667 19.0879 12.0333 19.0879 12.0949 19.047C13.028 18.4287 15.1013 16.9705 16.9328 15.1026C18.7991 13.1993 20.25 11.0348 20.25 9C20.25 6.65279 18.3472 4.75 16 4.75C14.6102 4.75 13.3763 5.41628 12.5996 6.45002C12.458 6.63858 12.2358 6.74952 12 6.74952C11.7642 6.74952 11.542 6.63858 11.4004 6.45002C10.6237 5.41628 9.38978 4.75 8 4.75ZM2.25 9C2.25 5.82436 4.82436 3.25 8 3.25C9.55491 3.25 10.9657 3.86773 12 4.86939C13.0343 3.86773 14.4451 3.25 16 3.25C19.1756 3.25 21.75 5.82436 21.75 9C21.75 11.6706 19.9072 14.2116 18.0039 16.1527C16.0659 18.1292 13.8938 19.6544 12.9235 20.2974C12.3597 20.6711 11.6403 20.6711 11.0765 20.2974C10.1062 19.6544 7.93412 18.1292 5.99612 16.1527C4.09279 14.2116 2.25 11.6706 2.25 9Z" fill="currentColor"/>
</svg>
