<svg width="24" height="24" viewBox="0 0 24 24" fill="none" xmlns="http://www.w3.org/2000/svg">
<path fill-rule="evenodd" clip-rule="evenodd" d="M10.409 4.03035C11.2877 3.15167 12.7123 3.15167 13.591 4.03035L19.9445 10.3839C20.4603 10.8996 20.75 11.5991 20.75 12.3284V18.5C20.75 19.7427 19.7426 20.75 18.5 20.75H14C13.5858 20.75 13.25 20.4142 13.25 20V16C13.25 15.3097 12.6904 14.75 12 14.75C11.3096 14.75 10.75 15.3097 10.75 16V20C10.75 20.4142 10.4142 20.75 10 20.75H5.5C4.25736 20.75 3.25 19.7427 3.25 18.5V12.3284C3.25 11.5991 3.53973 10.8996 4.05546 10.3839L10.409 4.03035ZM12.5303 5.09101C12.2374 4.79811 11.7626 4.79811 11.4697 5.09101L5.11612 11.4446C4.8817 11.679 4.75 11.9969 4.75 12.3284V18.5C4.75 18.9142 5.08579 19.25 5.5 19.25H9.25V16C9.25 14.4812 10.4812 13.25 12 13.25C13.5188 13.25 14.75 14.4812 14.75 16V19.25H18.5C18.9142 19.25 19.25 18.9142 19.25 18.5V12.3284C19.25 11.9969 19.1183 11.679 18.8839 11.4446L12.5303 5.09101Z" fill="currentColor"/>
</svg>
