<svg width="20" height="20" viewBox="0 0 20 20" fill="none" xmlns="http://www.w3.org/2000/svg">
<path d="M9.9979 0C7.28281 0 6.94207 0.0118752 5.87569 0.0604169C4.8114 0.109167 4.08493 0.277708 3.44927 0.525C2.79174 0.780417 2.23397 1.12208 1.67829 1.67813C1.12219 2.23396 0.78062 2.79187 0.52444 3.44937C0.276591 4.08542 0.107887 4.81229 0.0599837 5.87646C0.0124966 6.94312 0 7.28417 0 10C0 12.7158 0.0120802 13.0556 0.0604004 14.1223C0.109345 15.1869 0.277841 15.9135 0.524857 16.5494C0.780412 17.2071 1.12199 17.765 1.67788 18.3208C2.23335 18.8771 2.79111 19.2196 3.44823 19.475C4.0843 19.7223 4.81098 19.8908 5.87507 19.9396C6.94144 19.9881 7.28197 20 9.99686 20C12.7122 20 13.0519 19.9881 14.1182 19.9396C15.1825 19.8908 15.9098 19.7223 16.5459 19.475C17.2032 19.2196 17.7602 18.8771 18.3156 18.3208C18.8717 17.765 19.2133 17.2071 19.4695 16.5496C19.7153 15.9135 19.884 15.1867 19.9339 14.1225C19.9818 13.0558 19.9943 12.7158 19.9943 10C19.9943 7.28417 19.9818 6.94333 19.9339 5.87667C19.884 4.81208 19.7153 4.08542 19.4695 3.44958C19.2133 2.79187 18.8717 2.23396 18.3156 1.67813C17.7595 1.12188 17.2034 0.780208 16.5453 0.525C15.908 0.277708 15.1811 0.109167 14.1168 0.0604169C13.0504 0.0118752 12.7109 0 9.99498 0H9.9979ZM9.10106 1.80208C9.36724 1.80167 9.66424 1.80208 9.9979 1.80208C12.6672 1.80208 12.9835 1.81167 14.0376 1.85958C15.0124 1.90417 15.5414 2.06708 15.8938 2.20396C16.3603 2.38521 16.6929 2.60188 17.0426 2.95187C17.3926 3.30188 17.6092 3.63521 17.7908 4.10187C17.9276 4.45396 18.0907 4.98312 18.1351 5.95812C18.183 7.01229 18.1934 7.32896 18.1934 9.99771C18.1934 12.6665 18.183 12.9831 18.1351 14.0373C18.0905 15.0123 17.9276 15.5415 17.7908 15.8935C17.6096 16.3602 17.3926 16.6925 17.0426 17.0423C16.6927 17.3923 16.3605 17.609 15.8938 17.7902C15.5418 17.9277 15.0124 18.0902 14.0376 18.1348C12.9838 18.1827 12.6672 18.1931 9.9979 18.1931C7.32842 18.1931 7.01205 18.1827 5.95817 18.1348C4.98343 18.0898 4.45441 17.9269 4.1018 17.79C3.63526 17.6087 3.30202 17.3921 2.95211 17.0421C2.60221 16.6921 2.3856 16.3596 2.20398 15.8927C2.06714 15.5406 1.90406 15.0115 1.8597 14.0365C1.8118 12.9823 1.80222 12.6656 1.80222 9.99521C1.80222 7.32479 1.8118 7.00979 1.8597 5.95563C1.90427 4.98063 2.06714 4.45146 2.20398 4.09896C2.38518 3.63229 2.60221 3.29896 2.95211 2.94896C3.30202 2.59896 3.63526 2.38229 4.1018 2.20062C4.4542 2.06312 4.98343 1.90063 5.95817 1.85583C6.88042 1.81417 7.23782 1.80167 9.10106 1.79958V1.80208ZM15.3344 3.4625C15.0971 3.4625 14.8651 3.53289 14.6678 3.66477C14.4705 3.79664 14.3168 3.98408 14.226 4.20338C14.1352 4.42267 14.1114 4.66397 14.1578 4.89676C14.2041 5.12955 14.3184 5.34337 14.4862 5.51118C14.654 5.67898 14.8678 5.79324 15.1006 5.83949C15.3333 5.88575 15.5745 5.86193 15.7937 5.77104C16.0129 5.68015 16.2003 5.52627 16.3321 5.32888C16.4638 5.13149 16.5341 4.89944 16.534 4.66208C16.534 3.99958 15.9967 3.46208 15.3344 3.46208V3.4625ZM9.9979 4.86458C7.16263 4.86458 4.86388 7.16396 4.86388 10C4.86388 12.836 7.16263 15.1344 9.9979 15.1344C12.8332 15.1344 15.1313 12.836 15.1313 10C15.1313 7.16396 12.833 4.86458 9.99769 4.86458H9.9979ZM9.9979 6.66667C11.8382 6.66667 13.3303 8.15896 13.3303 10C13.3303 11.8408 11.8382 13.3333 9.9979 13.3333C8.15736 13.3333 6.66547 11.8408 6.66547 10C6.66547 8.15896 8.15736 6.66667 9.9979 6.66667Z" fill="currentColor"/>
</svg>
