<svg width="24" height="24" viewBox="0 0 24 24" fill="none" xmlns="http://www.w3.org/2000/svg">
<path fill-rule="evenodd" clip-rule="evenodd" d="M12 3.75C9.97431 3.75 8.75 5.35145 8.75 7V8.25H15.25V7C15.25 5.35145 14.0257 3.75 12 3.75ZM7.25 7V8.25H7.16957C6.63541 8.24999 6.18956 8.24998 5.82533 8.27974C5.44545 8.31077 5.08879 8.37789 4.75153 8.54973C4.23408 8.81338 3.81339 9.23408 3.54973 9.75152C3.37789 10.0888 3.31078 10.4454 3.27974 10.8253C3.24998 11.1896 3.24999 11.6354 3.25 12.1695V12.1696V12.1696V17.8304V17.8304V17.8305C3.24999 18.3646 3.24998 18.8104 3.27974 19.1747C3.31078 19.5546 3.37789 19.9112 3.54973 20.2485C3.81339 20.7659 4.23408 21.1866 4.75153 21.4503C5.08879 21.6221 5.44545 21.6892 5.82533 21.7203C6.18952 21.75 6.6353 21.75 7.16936 21.75H7.16955H16.8305H16.8306C17.3647 21.75 17.8105 21.75 18.1747 21.7203C18.5546 21.6892 18.9112 21.6221 19.2485 21.4503C19.7659 21.1866 20.1866 20.7659 20.4503 20.2485C20.6221 19.9112 20.6892 19.5546 20.7203 19.1747C20.75 18.8104 20.75 18.3646 20.75 17.8305V12.1695C20.75 11.6354 20.75 11.1896 20.7203 10.8253C20.6892 10.4454 20.6221 10.0888 20.4503 9.75152C20.1866 9.23408 19.7659 8.81338 19.2485 8.54973C18.9112 8.37789 18.5546 8.31077 18.1747 8.27974C17.8104 8.24998 17.3646 8.24999 16.8304 8.25H16.75L16.75 7C16.75 4.64855 14.9743 2.25 12 2.25C9.02569 2.25 7.25 4.64855 7.25 7ZM7.2 9.75L8 9.75H16L16.8 9.75C17.3724 9.75 17.7566 9.75058 18.0525 9.77476C18.3396 9.79821 18.4769 9.8401 18.5675 9.88624C18.8027 10.0061 18.9939 10.1973 19.1138 10.4325C19.1599 10.5231 19.2018 10.6604 19.2252 10.9475C19.2494 11.2434 19.25 11.6276 19.25 12.2V17.8C19.25 18.3724 19.2494 18.7566 19.2252 19.0525C19.2018 19.3396 19.1599 19.4769 19.1138 19.5675C18.9939 19.8027 18.8027 19.9939 18.5675 20.1138C18.4769 20.1599 18.3396 20.2018 18.0525 20.2252C17.7566 20.2494 17.3724 20.25 16.8 20.25H7.2C6.62757 20.25 6.24336 20.2494 5.94748 20.2252C5.66036 20.2018 5.52307 20.1599 5.43251 20.1138C5.19731 19.9939 5.00609 19.8027 4.88624 19.5675C4.8401 19.4769 4.79822 19.3396 4.77476 19.0525C4.75058 18.7566 4.75 18.3724 4.75 17.8V12.2C4.75 11.6276 4.75058 11.2434 4.77476 10.9475C4.79822 10.6604 4.8401 10.5231 4.88624 10.4325C5.00609 10.1973 5.19731 10.0061 5.43251 9.88624C5.52307 9.8401 5.66036 9.79821 5.94748 9.77476C6.24336 9.75058 6.62757 9.75 7.2 9.75ZM12.75 13.5C12.75 13.0858 12.4142 12.75 12 12.75C11.5858 12.75 11.25 13.0858 11.25 13.5V16.5C11.25 16.9142 11.5858 17.25 12 17.25C12.4142 17.25 12.75 16.9142 12.75 16.5V13.5Z" fill="currentColor"/>
</svg>
