<svg width="24" height="24" viewBox="0 0 24 24" fill="none" xmlns="http://www.w3.org/2000/svg">
<path fill-rule="evenodd" clip-rule="evenodd" d="M15.4697 7.46967C15.7626 7.17678 16.2374 7.17678 16.5303 7.46967L20.5303 11.4697C20.8232 11.7626 20.8232 12.2374 20.5303 12.5303L16.5303 16.5303C16.2374 16.8232 15.7626 16.8232 15.4697 16.5303C15.1768 16.2374 15.1768 15.7626 15.4697 15.4697L18.1893 12.75H9.5C9.08579 12.75 8.75 12.4142 8.75 12C8.75 11.5858 9.08579 11.25 9.5 11.25H18.1893L15.4697 8.53033C15.1768 8.23744 15.1768 7.76256 15.4697 7.46967Z" fill="currentColor"/>
<path fill-rule="evenodd" clip-rule="evenodd" d="M6.89068 4.78838C7.35331 4.75058 7.94755 4.75 8.8 4.75H11.5C11.9142 4.75 12.25 4.41421 12.25 4C12.25 3.58579 11.9142 3.25 11.5 3.25L8.7679 3.25C7.95506 3.24999 7.29944 3.24999 6.76853 3.29336C6.22189 3.33803 5.74175 3.43239 5.29754 3.65873C4.59193 4.01825 4.01825 4.59193 3.65873 5.29754C3.43238 5.74175 3.33803 6.2219 3.29336 6.76853C3.24999 7.29944 3.24999 7.95505 3.25 8.76788V15.2321C3.24999 16.045 3.24999 16.7006 3.29336 17.2315C3.33803 17.7781 3.43238 18.2582 3.65873 18.7025C4.01825 19.4081 4.59193 19.9818 5.29754 20.3413C5.74175 20.5676 6.22189 20.662 6.76853 20.7066C7.29944 20.75 7.95505 20.75 8.76788 20.75H11.5C11.9142 20.75 12.25 20.4142 12.25 20C12.25 19.5858 11.9142 19.25 11.5 19.25H8.8C7.94755 19.25 7.35331 19.2494 6.89068 19.2116C6.4368 19.1745 6.17604 19.1054 5.97852 19.0048C5.55516 18.789 5.21095 18.4448 4.99524 18.0215C4.8946 17.824 4.82546 17.5632 4.78838 17.1093C4.75058 16.6467 4.75 16.0525 4.75 15.2V8.8C4.75 7.94755 4.75058 7.35331 4.78838 6.89068C4.82546 6.4368 4.8946 6.17604 4.99524 5.97852C5.21095 5.55516 5.55516 5.21095 5.97852 4.99524C6.17604 4.8946 6.4368 4.82547 6.89068 4.78838Z" fill="currentColor"/>
</svg>
