<svg width="24" height="24" viewBox="0 0 24 24" fill="none" xmlns="http://www.w3.org/2000/svg">
<path fill-rule="evenodd" clip-rule="evenodd" d="M17.1093 4.78838C16.6467 4.75058 16.0525 4.75 15.2 4.75H12C11.5858 4.75 11.25 4.41421 11.25 4C11.25 3.58579 11.5858 3.25 12 3.25L15.2321 3.25C16.0449 3.24999 16.7006 3.24999 17.2315 3.29336C17.7781 3.33803 18.2582 3.43239 18.7025 3.65873C19.4081 4.01825 19.9818 4.59193 20.3413 5.29754C20.5676 5.74175 20.662 6.2219 20.7066 6.76853C20.75 7.29944 20.75 7.95505 20.75 8.76788V15.2321C20.75 16.045 20.75 16.7006 20.7066 17.2315C20.662 17.7781 20.5676 18.2582 20.3413 18.7025C19.9818 19.4081 19.4081 19.9818 18.7025 20.3413C18.2582 20.5676 17.7781 20.662 17.2315 20.7066C16.7006 20.75 16.045 20.75 15.2321 20.75H12C11.5858 20.75 11.25 20.4142 11.25 20C11.25 19.5858 11.5858 19.25 12 19.25H15.2C16.0525 19.25 16.6467 19.2494 17.1093 19.2116C17.5632 19.1745 17.824 19.1054 18.0215 19.0048C18.4448 18.7891 18.789 18.4448 19.0048 18.0215C19.1054 17.824 19.1745 17.5632 19.2116 17.1093C19.2494 16.6467 19.25 16.0525 19.25 15.2V8.8C19.25 7.94755 19.2494 7.35331 19.2116 6.89068C19.1745 6.4368 19.1054 6.17604 19.0048 5.97852C18.789 5.55516 18.4448 5.21095 18.0215 4.99524C17.824 4.8946 17.5632 4.82547 17.1093 4.78838ZM9.96967 7.46967C10.2626 7.17678 10.7374 7.17678 11.0303 7.46967L15.0303 11.4697C15.3232 11.7626 15.3232 12.2374 15.0303 12.5303L11.0303 16.5303C10.7374 16.8232 10.2626 16.8232 9.96967 16.5303C9.67678 16.2374 9.67678 15.7626 9.96967 15.4697L12.6893 12.75H4C3.58579 12.75 3.25 12.4142 3.25 12C3.25 11.5858 3.58579 11.25 4 11.25H12.6893L9.96967 8.53033C9.67678 8.23744 9.67678 7.76256 9.96967 7.46967Z" fill="currentColor"/>
</svg>
