<svg width="24" height="24" viewBox="0 0 24 24" fill="none" xmlns="http://www.w3.org/2000/svg">
<path fill-rule="evenodd" clip-rule="evenodd" d="M17.8304 4.25H6.16957C5.63542 4.24999 5.18956 4.24998 4.82533 4.27974C4.44545 4.31078 4.08879 4.37789 3.75153 4.54973C3.23408 4.81338 2.81338 5.23408 2.54973 5.75153C2.37789 6.08879 2.31078 6.44545 2.27974 6.82533C2.24998 7.18956 2.24999 7.63541 2.25 8.16956V15.8304C2.24999 16.3646 2.24998 16.8104 2.27974 17.1747C2.31078 17.5546 2.37789 17.9112 2.54973 18.2485C2.81338 18.7659 3.23408 19.1866 3.75153 19.4503C4.08879 19.6221 4.44545 19.6892 4.82533 19.7203C5.18955 19.75 5.63538 19.75 6.16951 19.75H17.8305C18.3646 19.75 18.8104 19.75 19.1747 19.7203C19.5546 19.6892 19.9112 19.6221 20.2485 19.4503C20.7659 19.1866 21.1866 18.7659 21.4503 18.2485C21.6221 17.9112 21.6892 17.5546 21.7203 17.1747C21.75 16.8104 21.75 16.3646 21.75 15.8305V8.16955C21.75 7.6354 21.75 7.18956 21.7203 6.82533C21.6892 6.44545 21.6221 6.08879 21.4503 5.75153C21.1866 5.23408 20.7659 4.81338 20.2485 4.54973C19.9112 4.37789 19.5546 4.31078 19.1747 4.27974C18.8104 4.24998 18.3646 4.24999 17.8304 4.25ZM4.94518 5.77495C4.94595 5.77488 4.94671 5.77482 4.94748 5.77476C5.24336 5.75058 5.62757 5.75 6.2 5.75H17.8C18.3724 5.75 18.7566 5.75058 19.0525 5.77476C19.0533 5.77482 19.0541 5.77488 19.0548 5.77495L13.621 10.5695C13.2375 10.9079 12.9814 11.1332 12.7696 11.2928C12.5653 11.4468 12.4478 11.5037 12.3565 11.5309C12.1239 11.6001 11.8761 11.6001 11.6435 11.5309C11.5522 11.5037 11.4347 11.4468 11.2304 11.2928C11.0186 11.1332 10.7625 10.9079 10.379 10.5695L4.94518 5.77495ZM3.79528 6.76076C3.78746 6.81491 3.78055 6.87663 3.77476 6.94748C3.75058 7.24336 3.75 7.62757 3.75 8.2V15.8C3.75 16.3724 3.75058 16.7566 3.77476 17.0525C3.79822 17.3396 3.8401 17.4769 3.88624 17.5675C4.00608 17.8027 4.19731 17.9939 4.43251 18.1138C4.52307 18.1599 4.66036 18.2018 4.94748 18.2252C5.24336 18.2494 5.62757 18.25 6.2 18.25H17.8C18.3724 18.25 18.7566 18.2494 19.0525 18.2252C19.3396 18.2018 19.4769 18.1599 19.5675 18.1138C19.8027 17.9939 19.9939 17.8027 20.1138 17.5675C20.1599 17.4769 20.2018 17.3396 20.2252 17.0525C20.2494 16.7566 20.25 16.3724 20.25 15.8V8.2C20.25 7.62757 20.2494 7.24336 20.2252 6.94748C20.2195 6.87663 20.2125 6.81491 20.2047 6.76075L14.5923 11.7129C14.2355 12.0277 13.936 12.292 13.6725 12.4906C13.3964 12.6988 13.1153 12.87 12.7842 12.9686C12.2725 13.1208 11.7275 13.1208 11.2158 12.9686C10.8847 12.87 10.6036 12.6988 10.3275 12.4906C10.064 12.292 9.76454 12.0278 9.40774 11.7129L3.79528 6.76076Z" fill="currentColor"/>
</svg>
