<svg width="24" height="24" viewBox="0 0 24 24" fill="none" xmlns="http://www.w3.org/2000/svg">
<path fill-rule="evenodd" clip-rule="evenodd" d="M14.9635 7.96111C12.3132 5.83846 8.43381 6.00553 5.97703 8.46231C3.34099 11.0984 3.34099 15.3722 5.97703 18.0083C8.61307 20.6443 12.8869 20.6443 15.523 18.0083C17.9798 15.5515 18.1468 11.672 16.0242 9.02177L18.4853 6.56066L18.4853 8.28553C18.4853 8.69975 18.8211 9.03553 19.2353 9.03553C19.6495 9.03553 19.9853 8.69975 19.9853 8.28553V4.75C19.9853 4.64831 19.965 4.55134 19.9284 4.46291C19.8964 4.38572 19.851 4.31277 19.7922 4.24765C19.7836 4.23815 19.7748 4.22882 19.7656 4.21967C19.6299 4.08395 19.4424 4 19.2353 4L15.6997 4C15.2855 4 14.9497 4.33579 14.9497 4.75C14.9497 5.16421 15.2855 5.5 15.6997 5.5L17.4246 5.5L14.9635 7.96111ZM14.4623 16.9476C12.4121 18.9978 9.08794 18.9978 7.03769 16.9476C4.98744 14.8973 4.98744 11.5732 7.03769 9.52297C9.08794 7.47272 12.4121 7.47272 14.4623 9.52297C16.5126 11.5732 16.5126 14.8973 14.4623 16.9476Z" fill="currentColor"/>
</svg>
