<svg width="24" height="24" viewBox="0 0 24 24" fill="none" xmlns="http://www.w3.org/2000/svg">
<path fill-rule="evenodd" clip-rule="evenodd" d="M7.75 6.5C7.75 4.15279 9.65279 2.25 12 2.25C14.3472 2.25 16.25 4.15279 16.25 6.5V11.5C16.25 13.8472 14.3472 15.75 12 15.75C9.65279 15.75 7.75 13.8472 7.75 11.5V6.5ZM12 3.75C10.4812 3.75 9.25 4.98122 9.25 6.5V11.5C9.25 13.0188 10.4812 14.25 12 14.25C13.5188 14.25 14.75 13.0188 14.75 11.5V6.5C14.75 4.98122 13.5188 3.75 12 3.75Z" fill="currentColor"/>
<path d="M5.5 10.75C5.91422 10.75 6.25 11.0858 6.25 11.5C6.24999 14.5858 8.91422 17.25 12 17.25C15.0858 17.25 17.75 14.5858 17.75 11.5C17.75 11.0858 18.0858 10.75 18.5 10.75C18.9142 10.75 19.25 11.0858 19.25 11.5C19.25 15.1616 16.3309 18.3169 12.75 18.709V21C12.75 21.4142 12.4142 21.75 12 21.75C11.5858 21.75 11.25 21.4142 11.25 21V18.709C7.66905 18.3169 4.74999 15.1616 4.75 11.5C4.75 11.0858 5.08579 10.75 5.5 10.75Z" fill="currentColor"/>
</svg>
