<svg width="24" height="24" viewBox="0 0 24 24" fill="none" xmlns="http://www.w3.org/2000/svg">
<path fill-rule="evenodd" clip-rule="evenodd" d="M10.75 5C10.75 4.58579 11.0858 4.25 11.5 4.25H15C15.3228 4.25 15.6094 4.45657 15.7115 4.76283L16.2072 6.25H17.75C19.1307 6.25 20.25 7.36929 20.25 8.75C20.25 10.0895 19.1965 11.1829 17.8729 11.247L18.5406 13.2502C20.593 13.272 22.25 14.9425 22.25 17C22.25 19.0711 20.5711 20.75 18.5 20.75C16.4289 20.75 14.75 19.0711 14.75 17C14.75 16.916 14.7528 16.8326 14.7582 16.75H11.2418C11.2472 16.8327 11.25 16.916 11.25 17C11.25 19.0711 9.57107 20.75 7.5 20.75C5.42893 20.75 3.75 19.0711 3.75 17C3.75 16.916 3.75277 16.8327 3.75823 16.75H3C2.58579 16.75 2.25 16.4142 2.25 16V14C2.25 11.9289 3.92893 10.25 6 10.25H10C12.0711 10.25 13.75 11.9289 13.75 14V15.25H15.1825C15.5876 14.4837 16.2504 13.8747 17.0555 13.5383L14.4594 5.75H11.5C11.0858 5.75 10.75 5.41421 10.75 5ZM17.3739 9.75H17.75C18.3023 9.75 18.75 9.30228 18.75 8.75C18.75 8.19772 18.3023 7.75 17.75 7.75H16.7072L17.3739 9.75ZM5.26367 16.75H9.73633C9.74536 16.8319 9.75 16.9153 9.75 17C9.75 18.2426 8.74264 19.25 7.5 19.25C6.25736 19.25 5.25 18.2426 5.25 17C5.25 16.9153 5.25464 16.8319 5.26367 16.75ZM12.25 15.25H3.75V14C3.75 12.7574 4.75736 11.75 6 11.75H10C11.2426 11.75 12.25 12.7574 12.25 14V15.25ZM18.5 14.75C17.2574 14.75 16.25 15.7574 16.25 17C16.25 18.2426 17.2574 19.25 18.5 19.25C19.7426 19.25 20.75 18.2426 20.75 17C20.75 15.7574 19.7426 14.75 18.5 14.75Z" fill="currentColor"/>
</svg>
