<svg width="24" height="24" viewBox="0 0 24 24" fill="none" xmlns="http://www.w3.org/2000/svg">
<path fill-rule="evenodd" clip-rule="evenodd" d="M11.4697 2.46967C11.7626 2.17678 12.2374 2.17678 12.5303 2.46967L15.0303 4.96967C15.3232 5.26256 15.3232 5.73744 15.0303 6.03033C14.7374 6.32322 14.2626 6.32322 13.9697 6.03033L12.75 4.81066V19.1893L13.9697 17.9697C14.2626 17.6768 14.7374 17.6768 15.0303 17.9697C15.3232 18.2626 15.3232 18.7374 15.0303 19.0303L12.5303 21.5303C12.3897 21.671 12.1989 21.75 12 21.75C11.8011 21.75 11.6103 21.671 11.4697 21.5303L8.96967 19.0303C8.67678 18.7374 8.67678 18.2626 8.96967 17.9697C9.26256 17.6768 9.73744 17.6768 10.0303 17.9697L11.25 19.1893V4.81066L10.0303 6.03033C9.73744 6.32322 9.26256 6.32322 8.96967 6.03033C8.67678 5.73744 8.67678 5.26256 8.96967 4.96967L11.4697 2.46967Z" fill="currentColor"/>
<path fill-rule="evenodd" clip-rule="evenodd" d="M6.03033 8.96967C6.32322 9.26256 6.32322 9.73744 6.03033 10.0303L4.81066 11.25H19.1893L17.9697 10.0303C17.6768 9.73744 17.6768 9.26256 17.9697 8.96967C18.2626 8.67678 18.7374 8.67678 19.0303 8.96967L21.5303 11.4697C21.8232 11.7626 21.8232 12.2374 21.5303 12.5303L19.0303 15.0303C18.7374 15.3232 18.2626 15.3232 17.9697 15.0303C17.6768 14.7374 17.6768 14.2626 17.9697 13.9697L19.1893 12.75H4.81066L6.03033 13.9697C6.32322 14.2626 6.32322 14.7374 6.03033 15.0303C5.73744 15.3232 5.26256 15.3232 4.96967 15.0303L2.46967 12.5303C2.17678 12.2374 2.17678 11.7626 2.46967 11.4697L4.96967 8.96967C5.26256 8.67678 5.73744 8.67678 6.03033 8.96967Z" fill="currentColor"/>
</svg>
