<svg width="24" height="24" viewBox="0 0 24 24" fill="none" xmlns="http://www.w3.org/2000/svg">
<path d="M4.34849 7.57527C4.62368 7.5854 4.90906 7.61581 5.18425 7.64622C5.26579 7.65636 5.33713 7.61581 5.36771 7.53472C5.71424 6.64268 6.23405 5.852 6.91693 5.17283C8.21134 3.87532 9.94402 3.16574 11.7888 3.16574C13.6336 3.16574 15.3663 3.87532 16.6709 5.17283C17.7615 6.25748 18.424 7.60568 18.638 9.16675C16.6199 9.42017 14.8567 10.1298 13.2259 11.336C11.9825 9.53168 10.3925 8.21389 8.37442 7.32185L8.41518 7.27116C9.11845 6.41967 10.1071 5.87228 11.1977 5.72022C11.3913 5.68981 11.5952 5.67968 11.7888 5.67968C12.6857 5.67968 13.5419 5.95337 14.2859 6.46021C14.9484 6.91637 15.458 7.54486 15.7842 8.27471C15.8249 8.3558 15.9167 8.39635 15.9982 8.36594C16.253 8.28485 16.518 8.20375 16.783 8.13279C16.834 8.12266 16.8747 8.08211 16.8951 8.04156C16.9155 8.00101 16.9155 7.94019 16.8951 7.89965C16.039 5.88241 13.9903 4.52408 11.7888 4.52408C9.61787 4.52408 7.63038 5.80132 6.74366 7.76787C6.72327 7.80841 6.72327 7.86924 6.74366 7.90978C6.76404 7.95033 6.80481 7.99088 6.85577 8.00101C9.40383 8.78155 11.5748 10.5656 12.8284 12.9174C12.8488 12.9681 12.8998 12.9985 12.9507 13.0086C12.9609 13.0086 12.9711 13.0086 12.9813 13.0086C13.0221 13.0086 13.0628 12.9883 13.1036 12.9579C14.8974 11.2854 17.2417 10.3224 19.698 10.2413C19.7897 10.2413 19.8611 10.1602 19.8611 10.0689C19.8713 7.94019 19.0559 5.9331 17.5576 4.40243C16.039 2.8515 13.9903 2 11.7888 2C8.37442 2 5.32694 4.14901 4.18541 7.34212C4.16503 7.3928 4.17522 7.45362 4.20579 7.49417C4.23637 7.54486 4.28733 7.56513 4.34849 7.57527Z" fill="currentColor"/>
<path d="M21.4714 11.8327C21.4612 11.7618 21.4001 11.701 21.3287 11.6908C20.9007 11.63 20.4624 11.5996 20.0343 11.5996C16.9461 11.5996 14.133 13.1607 12.5227 15.7861L12.4513 15.8976L12.4207 15.776C11.5646 11.8023 7.97692 8.92346 3.88983 8.92346C3.34964 8.92346 2.79926 8.97415 2.24888 9.07551C2.17754 9.08565 2.11638 9.14647 2.10619 9.21743C1.73927 11.5895 2.33042 13.9311 3.76753 15.8165C5.19444 17.6817 7.36538 18.9184 9.7096 19.2022C9.80133 19.2124 9.88286 19.1515 9.90325 19.0704C10.3109 17.3877 9.98479 15.6036 9.01652 14.1743C8.06865 12.7653 6.55 11.8023 4.85809 11.5185C4.80713 11.5084 4.74598 11.5286 4.70521 11.5692C4.66444 11.6097 4.64406 11.6705 4.65425 11.7212C4.7154 12.0355 4.79694 12.3193 4.89886 12.6234C4.91925 12.6741 4.96002 12.7248 5.02117 12.7349C7.36538 13.2924 8.99614 15.4313 8.89422 17.8135V17.8743C5.32694 16.9518 2.98272 13.7689 3.17638 10.1095C3.40061 10.0892 3.62483 10.0791 3.83887 10.0791C6.09135 10.0791 8.21134 11.0421 9.64844 12.7349C11.0855 14.4176 11.7073 16.6477 11.3404 18.8474C11.1671 19.8915 11.1671 20.7937 11.32 21.777C11.3302 21.8479 11.3913 21.9088 11.4627 21.9189C11.7582 21.9594 12.0334 21.9899 12.329 22H12.3392C12.3902 22 12.4411 21.9797 12.4717 21.9392C12.5023 21.8986 12.5227 21.8479 12.5125 21.7973C12.0946 19.5773 12.6653 17.3066 14.0719 15.5732C15.5294 13.779 17.7207 12.7552 20.0751 12.7552C20.177 12.7552 20.2891 12.7552 20.3911 12.7653C20.5847 16.374 18.3934 19.4962 14.9076 20.5504V20.4795C14.8567 18.2088 16.3447 16.151 18.5361 15.4921C18.587 15.4719 18.6278 15.4415 18.6482 15.3908C18.7603 15.0765 18.8418 14.7826 18.9132 14.4582C18.9234 14.3974 18.903 14.3467 18.8622 14.3061C18.8214 14.2656 18.7603 14.2453 18.6991 14.2656C17.0684 14.6204 15.6211 15.6239 14.7242 17.0127C13.8069 18.4318 13.5113 20.1247 13.8986 21.7871C13.919 21.8784 14.0005 21.929 14.0923 21.9189C16.3957 21.5641 18.5055 20.2767 19.8712 18.4115C21.288 16.5058 21.8485 14.1743 21.4714 11.8327Z" fill="currentColor"/>
</svg>
