<svg width="24" height="24" viewBox="0 0 24 24" fill="none" xmlns="http://www.w3.org/2000/svg">
<path d="M4 7.2C4 6.0799 4 5.51984 4.21799 5.09202C4.40973 4.71569 4.71569 4.40973 5.09202 4.21799C5.51984 4 6.07989 4 7.2 4H7.3C8.4201 4 8.98016 4 9.40798 4.21799C9.78431 4.40973 10.0903 4.71569 10.282 5.09202C10.5 5.51984 10.5 6.07989 10.5 7.2V7.3C10.5 8.4201 10.5 8.98016 10.282 9.40798C10.0903 9.78431 9.78431 10.0903 9.40798 10.282C8.98016 10.5 8.42011 10.5 7.3 10.5H7.2C6.0799 10.5 5.51984 10.5 5.09202 10.282C4.71569 10.0903 4.40973 9.78431 4.21799 9.40798C4 8.98016 4 8.42011 4 7.3V7.2Z" stroke="currentColor" stroke-width="1.5"/>
<path d="M4 16.7C4 15.5799 4 15.0198 4.21799 14.592C4.40973 14.2157 4.71569 13.9097 5.09202 13.718C5.51984 13.5 6.07989 13.5 7.2 13.5H7.3C8.4201 13.5 8.98016 13.5 9.40798 13.718C9.78431 13.9097 10.0903 14.2157 10.282 14.592C10.5 15.0198 10.5 15.5799 10.5 16.7V16.8C10.5 17.9201 10.5 18.4802 10.282 18.908C10.0903 19.2843 9.78431 19.5903 9.40798 19.782C8.98016 20 8.42011 20 7.3 20H7.2C6.0799 20 5.51984 20 5.09202 19.782C4.71569 19.5903 4.40973 19.2843 4.21799 18.908C4 18.4802 4 17.9201 4 16.8V16.7Z" stroke="currentColor" stroke-width="1.5"/>
<path d="M13.5 7.2C13.5 6.0799 13.5 5.51984 13.718 5.09202C13.9097 4.71569 14.2157 4.40973 14.592 4.21799C15.0198 4 15.5799 4 16.7 4H16.8C17.9201 4 18.4802 4 18.908 4.21799C19.2843 4.40973 19.5903 4.71569 19.782 5.09202C20 5.51984 20 6.07989 20 7.2V7.3C20 8.4201 20 8.98016 19.782 9.40798C19.5903 9.78431 19.2843 10.0903 18.908 10.282C18.4802 10.5 17.9201 10.5 16.8 10.5H16.7C15.5799 10.5 15.0198 10.5 14.592 10.282C14.2157 10.0903 13.9097 9.78431 13.718 9.40798C13.5 8.98016 13.5 8.42011 13.5 7.3V7.2Z" stroke="currentColor" stroke-width="1.5"/>
<path d="M13.5 16.7C13.5 15.5799 13.5 15.0198 13.718 14.592C13.9097 14.2157 14.2157 13.9097 14.592 13.718C15.0198 13.5 15.5799 13.5 16.7 13.5H16.8C17.9201 13.5 18.4802 13.5 18.908 13.718C19.2843 13.9097 19.5903 14.2157 19.782 14.592C20 15.0198 20 15.5799 20 16.7V16.8C20 17.9201 20 18.4802 19.782 18.908C19.5903 19.2843 19.2843 19.5903 18.908 19.782C18.4802 20 17.9201 20 16.8 20H16.7C15.5799 20 15.0198 20 14.592 19.782C14.2157 19.5903 13.9097 19.2843 13.718 18.908C13.5 18.4802 13.5 17.9201 13.5 16.8V16.7Z" stroke="currentColor" stroke-width="1.5"/>
</svg>
