<svg width="24" height="24" viewBox="0 0 24 24" fill="none" xmlns="http://www.w3.org/2000/svg">
<path fill-rule="evenodd" clip-rule="evenodd" d="M12.0001 4.75C10.2052 4.75 8.7501 6.20507 8.7501 8C8.7501 9.79493 10.2052 11.25 12.0001 11.25C13.795 11.25 15.2501 9.79493 15.2501 8C15.2501 6.20507 13.795 4.75 12.0001 4.75ZM7.2501 8C7.2501 5.37665 9.37674 3.25 12.0001 3.25C14.6234 3.25 16.7501 5.37665 16.7501 8C16.7501 10.6234 14.6234 12.75 12.0001 12.75C9.37674 12.75 7.2501 10.6234 7.2501 8Z" fill="currentColor"/>
<path fill-rule="evenodd" clip-rule="evenodd" d="M12.0001 15.4999C8.66187 15.5 5.66457 17.1519 5.24256 20.1059C5.18398 20.516 4.80408 20.8009 4.39403 20.7423C3.98398 20.6837 3.69905 20.3038 3.75763 19.8938C4.33562 15.848 8.33832 14 12.0001 13.9999C15.6619 13.9999 19.6646 15.8479 20.2426 19.8938C20.3011 20.3039 20.0162 20.6838 19.6062 20.7423C19.1961 20.8009 18.8162 20.516 18.7576 20.1059C18.3356 17.1519 15.3383 15.4999 12.0001 15.4999Z" fill="currentColor"/>
</svg>
