<svg width="24" height="24" viewBox="0 0 24 24" fill="none" xmlns="http://www.w3.org/2000/svg">
<path fill-rule="evenodd" clip-rule="evenodd" d="M3.5 12C3.49997 9.80075 4.53173 8.05791 5.72503 6.78183C6.91512 5.50919 8.30701 4.65393 9.14845 4.20403C9.83973 3.83441 10.6603 3.83442 11.3515 4.20403C12.193 4.65393 13.5849 5.5092 14.7749 6.78183C15.8292 7.90926 16.7574 9.40103 16.9594 11.25H23.25C23.6642 11.25 24 11.5858 24 12C24 12.4142 23.6642 12.75 23.25 12.75H17V17C17 19.0711 15.3211 20.75 13.25 20.75H7.25C5.17893 20.75 3.5 19.0711 3.5 17V12ZM9.85572 5.52682C10.1051 5.39349 10.3949 5.39349 10.6443 5.52682C11.4113 5.93694 12.6455 6.7008 13.6793 7.80636C14.5539 8.74162 15.2553 9.88739 15.4476 11.25H5.0524C5.2447 9.88739 5.94604 8.74162 6.82063 7.80636C7.85448 6.70079 9.08867 5.93694 9.85572 5.52682ZM5 12.75V17C5 18.2426 6.00736 19.25 7.25 19.25H13.25C14.4926 19.25 15.5 18.2426 15.5 17V12.75H5Z" fill="currentColor"/>
</svg>
