<svg width="24" height="24" viewBox="0 0 24 24" fill="none" xmlns="http://www.w3.org/2000/svg">
<path d="M5.88084 19H18.1192C19.0993 19 19.5894 19 20.0448 18.7449C20.3884 18.5525 20.7794 18.1065 20.9252 17.7408C21.1185 17.2559 21.0687 16.8782 20.9691 16.1228C20.2857 10.9419 16.3008 7.62664 13.8782 6.06111C13.4196 5.76473 13.1903 5.61653 12.6824 5.4979C12.3522 5.42076 11.6478 5.42076 11.3176 5.4979C10.8097 5.61653 10.5804 5.76473 10.1218 6.06112C7.69923 7.62664 3.7143 10.9419 3.03094 16.1228C2.93129 16.8782 2.88147 17.256 3.07481 17.7408C3.22065 18.1065 3.61167 18.5525 3.95518 18.7449C4.41059 19 4.90067 19 5.88084 19Z" stroke="currentColor" stroke-width="1.5" stroke-linecap="round" stroke-linejoin="round"/>
<circle cx="12" cy="13" r="1.5" fill="currentColor"/>
</svg>
