<svg width="24" height="24" viewBox="0 0 24 24" fill="none" xmlns="http://www.w3.org/2000/svg">
<path fill-rule="evenodd" clip-rule="evenodd" d="M7.7679 4.25L14 4.25C14.4142 4.25 14.75 4.58579 14.75 5C14.75 5.41421 14.4142 5.75 14 5.75H7.8C6.94755 5.75 6.35331 5.75058 5.89068 5.78838C5.4368 5.82547 5.17604 5.8946 4.97852 5.99524C4.55516 6.21095 4.21095 6.55516 3.99524 6.97852C3.8946 7.17604 3.82547 7.4368 3.78838 7.89068C3.75058 8.35331 3.75 8.94755 3.75 9.8V14.2C3.75 15.0525 3.75058 15.6467 3.78838 16.1093C3.82547 16.5632 3.8946 16.824 3.99524 17.0215C4.21095 17.4448 4.55516 17.789 4.97852 18.0048C5.17604 18.1054 5.4368 18.1745 5.89068 18.2116C6.35331 18.2494 6.94755 18.25 7.8 18.25H16.2C17.0525 18.25 17.6467 18.2494 18.1093 18.2116C18.5632 18.1745 18.824 18.1054 19.0215 18.0048C19.4448 17.789 19.789 17.4448 20.0048 17.0215C20.1054 16.824 20.1745 16.5632 20.2116 16.1093C20.2494 15.6467 20.25 15.0525 20.25 14.2V12C20.25 11.5858 20.5858 11.25 21 11.25C21.4142 11.25 21.75 11.5858 21.75 12V14.2321C21.75 15.045 21.75 15.7006 21.7066 16.2315C21.662 16.7781 21.5676 17.2582 21.3413 17.7025C20.9817 18.4081 20.4081 18.9817 19.7025 19.3413C19.2582 19.5676 18.7781 19.662 18.2315 19.7066C17.7006 19.75 17.045 19.75 16.2321 19.75H7.76788C6.95505 19.75 6.29944 19.75 5.76853 19.7066C5.2219 19.662 4.74175 19.5676 4.29754 19.3413C3.59193 18.9817 3.01825 18.4081 2.65873 17.7025C2.43239 17.2582 2.33803 16.7781 2.29336 16.2315C2.24999 15.7006 2.24999 15.0449 2.25 14.2321V9.7679C2.24999 8.95506 2.24999 8.29944 2.29336 7.76853C2.33803 7.2219 2.43239 6.74175 2.65873 6.29754C3.01825 5.59193 3.59193 5.01825 4.29754 4.65873C4.74175 4.43239 5.2219 4.33803 5.76853 4.29336C6.29944 4.24999 6.95506 4.24999 7.7679 4.25Z" fill="currentColor"/>
<path fill-rule="evenodd" clip-rule="evenodd" d="M16.25 5C16.25 4.58579 16.5858 4.25 17 4.25H21C21.4142 4.25 21.75 4.58579 21.75 5V9C21.75 9.41421 21.4142 9.75 21 9.75C20.5858 9.75 20.25 9.41421 20.25 9V6.81066L16.0303 11.0303C15.7374 11.3232 15.2626 11.3232 14.9697 11.0303C14.6768 10.7374 14.6768 10.2626 14.9697 9.96967L19.1893 5.75H17C16.5858 5.75 16.25 5.41421 16.25 5Z" fill="currentColor"/>
</svg>
