<svg width="24" height="24" viewBox="0 0 24 24" fill="none" xmlns="http://www.w3.org/2000/svg">
<path fill-rule="evenodd" clip-rule="evenodd" d="M19.7966 11.6587C19.7833 11.6451 19.7347 11.5982 19.6051 11.5159C19.3994 11.3851 19.1009 11.2308 18.6407 10.9941L6.77521 4.89186C6.30088 4.64792 5.99108 4.48943 5.75738 4.39497C5.60957 4.33523 5.5407 4.3225 5.52114 4.3195C5.46001 4.33577 5.40729 4.37463 5.37368 4.42821C5.37075 4.44777 5.36254 4.51733 5.37588 4.6762C5.39697 4.92739 5.45671 5.27021 5.5494 5.79547L5.86434 7.5801C6.09994 8.91516 6.19384 9.37022 6.40839 9.71219C6.61447 10.0407 6.90196 10.3103 7.24295 10.495C7.59794 10.6872 8.05807 10.7518 9.40547 10.9015L10.3332 11.0046C10.713 11.0468 11.0004 11.3678 11.0004 11.75C11.0004 12.1322 10.713 12.4532 10.3332 12.4954L9.40546 12.5985C8.05807 12.7482 7.59793 12.8128 7.24295 13.005C6.90195 13.1897 6.61447 13.4593 6.40839 13.7878C6.19384 14.1298 6.09994 14.5848 5.86434 15.9199L5.5494 17.7045C5.45671 18.2298 5.39697 18.5726 5.37588 18.8238C5.36254 18.9827 5.37075 19.0522 5.37368 19.0718C5.40729 19.1254 5.46002 19.1642 5.52114 19.1805C5.54069 19.1775 5.60957 19.1648 5.75738 19.105C5.99108 19.0106 6.30089 18.8521 6.77522 18.6081L18.6407 12.5059C19.1009 12.2692 19.3994 12.1148 19.6051 11.9841C19.7347 11.9017 19.7833 11.8549 19.7966 11.8413C19.8196 11.7826 19.8196 11.7174 19.7966 11.6587ZM21.1484 11.0073C21.369 11.4779 21.369 12.0221 21.1484 12.4927C20.9816 12.8487 20.6789 13.079 20.4097 13.25C20.139 13.4221 19.7782 13.6077 19.3578 13.8238L7.42995 19.9582C6.99569 20.1815 6.62445 20.3725 6.3195 20.4957C6.01828 20.6175 5.64627 20.7331 5.25299 20.657C4.73578 20.557 4.29118 20.2292 4.04257 19.7648C3.85352 19.4116 3.85395 19.022 3.88114 18.6983C3.90866 18.3705 3.98122 17.9594 4.0661 17.4786L4.38716 15.6592C4.3963 15.6074 4.40529 15.5563 4.41416 15.506C4.61131 14.3856 4.74727 13.613 5.13775 12.9906C5.45813 12.48 5.89654 12.0546 6.41526 11.75C5.89654 11.4454 5.45813 11.02 5.13775 10.5094C4.74727 9.88697 4.61131 9.11438 4.41416 7.99403C4.40529 7.94365 4.3963 7.89258 4.38716 7.84078L4.0661 6.02141C3.98122 5.54055 3.90866 5.12947 3.88114 4.80173C3.85395 4.47798 3.85352 4.0884 4.04257 3.73523C4.29118 3.27078 4.73578 2.94304 5.25299 2.84296C5.64627 2.76687 6.01828 2.88253 6.3195 3.00428C6.62443 3.12753 6.99564 3.31846 7.42985 3.54178L19.3578 9.67618C19.7782 9.89234 20.139 10.0779 20.4097 10.25C20.6789 10.421 20.9816 10.6513 21.1484 11.0073Z" fill="currentColor"/>
</svg>
