<svg width="24" height="24" viewBox="0 0 24 24" fill="none" xmlns="http://www.w3.org/2000/svg">
<path fill-rule="evenodd" clip-rule="evenodd" d="M7.05234 7.03769C5.00209 9.08794 5.00209 12.4121 7.05234 14.4623C9.10259 16.5126 12.4267 16.5126 14.477 14.4623C16.5272 12.4121 16.5272 9.08794 14.477 7.03769C12.4267 4.98744 9.10259 4.98744 7.05234 7.03769ZM5.99168 15.523C3.35564 12.8869 3.35564 8.61307 5.99168 5.97703C8.62772 3.34099 12.9016 3.34099 15.5376 5.97703C17.9944 8.43381 18.1615 12.3132 16.0388 14.9635L19.7803 18.705C20.0732 18.9978 20.0732 19.4727 19.7803 19.7656C19.4874 20.0585 19.0125 20.0585 18.7196 19.7656L14.9782 16.0242C12.3279 18.1468 8.44846 17.9798 5.99168 15.523Z" fill="currentColor"/>
</svg>
