<svg width="24" height="24" viewBox="0 0 24 24" fill="none" xmlns="http://www.w3.org/2000/svg">
<path fill-rule="evenodd" clip-rule="evenodd" d="M3.6671 4.75863C3.5587 4.75049 3.41334 4.75 3.16468 4.75H2C1.58579 4.75 1.25 4.41422 1.25 4C1.25 3.58579 1.58579 3.25 2 3.25H3.16468C3.17244 3.25 3.18018 3.25 3.1879 3.25C3.40541 3.24999 3.60795 3.24997 3.77934 3.26283C3.96624 3.27685 4.16869 3.30885 4.37466 3.40016C4.67329 3.53255 4.92891 3.74588 5.11258 4.01602C5.23927 4.20233 5.30696 4.39579 5.3542 4.57716C5.39751 4.74349 5.43373 4.94277 5.47262 5.15678L5.48957 5.25L17.5449 5.25C18.1979 5.24999 18.737 5.24998 19.1701 5.28805C19.6169 5.32732 20.0358 5.41228 20.4132 5.63685C20.9831 5.97604 21.4113 6.50978 21.6187 7.13972C21.7561 7.55679 21.7482 7.98423 21.6896 8.42883C21.6328 8.85988 21.5158 9.38611 21.3742 10.0236L20.7832 12.6827C20.6888 13.1078 20.6092 13.4659 20.5215 13.7577C20.4293 14.0644 20.3147 14.3469 20.1269 14.6075C19.8353 15.0122 19.4392 15.33 18.9808 15.5268C18.6857 15.6536 18.3851 15.7042 18.0657 15.7277C17.7618 15.75 17.395 15.75 16.9595 15.75H10.4772C9.78913 15.75 9.2312 15.75 8.77421 15.7157C8.30144 15.6802 7.88346 15.6053 7.48394 15.4282C6.84401 15.1445 6.29626 14.6874 5.90267 14.1085C5.65694 13.7471 5.50848 13.3493 5.389 12.8905C5.27351 12.447 5.17371 11.8981 5.05064 11.2211L4.00097 5.44795C3.95649 5.2033 3.93 5.06037 3.90261 4.95517C3.88585 4.89082 3.87445 4.86469 3.87105 4.85782C3.84527 4.82053 3.80983 4.79095 3.76853 4.77226C3.76117 4.77014 3.73341 4.7636 3.6671 4.75863ZM3.77065 4.77295L3.76853 4.77226L3.77065 4.77295ZM3.86999 4.85586L3.87105 4.85782L3.86999 4.85586ZM5.7623 6.75L6.52129 10.9245C6.65074 11.6365 6.74095 12.1299 6.84059 12.5125C6.93785 12.886 7.03168 13.1013 7.14309 13.2651C7.37925 13.6124 7.7079 13.8867 8.09185 14.0569C8.273 14.1372 8.50159 14.191 8.88645 14.2199C9.28073 14.2495 9.78232 14.25 10.506 14.25H16.9331C17.4019 14.25 17.7134 14.2495 17.9558 14.2317C18.1888 14.2146 18.3061 14.1841 18.3889 14.1486C18.5973 14.0591 18.7773 13.9146 18.9099 13.7307C18.9625 13.6576 19.0178 13.5496 19.085 13.3259C19.155 13.0931 19.223 12.7892 19.3247 12.3315L19.9025 9.73148C20.0534 9.0524 20.1553 8.59077 20.2024 8.2329C20.2488 7.8811 20.2288 7.7144 20.194 7.60897C20.0997 7.32263 19.9051 7.08002 19.646 6.92584C19.5507 6.86907 19.3923 6.81336 19.0388 6.78229C18.6792 6.75068 18.2065 6.75 17.5108 6.75H5.7623Z" fill="currentColor"/>
<path d="M10 19C10 19.8284 9.32843 20.5 8.5 20.5C7.67157 20.5 7 19.8284 7 19C7 18.1716 7.67157 17.5 8.5 17.5C9.32843 17.5 10 18.1716 10 19Z" fill="currentColor"/>
<path d="M19 19C19 19.8284 18.3284 20.5 17.5 20.5C16.6716 20.5 16 19.8284 16 19C16 18.1716 16.6716 17.5 17.5 17.5C18.3284 17.5 19 18.1716 19 19Z" fill="currentColor"/>
</svg>
