<svg width="24" height="24" viewBox="0 0 24 24" fill="none" xmlns="http://www.w3.org/2000/svg">
<path fill-rule="evenodd" clip-rule="evenodd" d="M8.25 6C8.25 3.92893 9.92893 2.25 12 2.25C14.0711 2.25 15.75 3.92893 15.75 6H17C18.6569 6 20 7.34315 20 9V19C20 20.6569 18.6569 22 17 22H7C5.34315 22 4 20.6569 4 19V9C4 7.34315 5.34315 6 7 6H8.25ZM9.75 6C9.75 4.75736 10.7574 3.75 12 3.75C13.2426 3.75 14.25 4.75736 14.25 6H9.75ZM5.5 9C5.5 8.17157 6.17157 7.5 7 7.5H17C17.8284 7.5 18.5 8.17157 18.5 9V19C18.5 19.8284 17.8284 20.5 17 20.5H7C6.17157 20.5 5.5 19.8284 5.5 19V9Z" fill="currentColor"/>
<path fill-rule="evenodd" clip-rule="evenodd" d="M12 12.25C10.7574 12.25 9.75 11.2426 9.75 10C9.75 9.58579 9.41421 9.25 9 9.25C8.58579 9.25 8.25 9.58579 8.25 10C8.25 12.0711 9.92893 13.75 12 13.75C14.0711 13.75 15.75 12.0711 15.75 10C15.75 9.58579 15.4142 9.25 15 9.25C14.5858 9.25 14.25 9.58579 14.25 10C14.25 11.2426 13.2426 12.25 12 12.25Z" fill="currentColor"/>
</svg>
