<svg width="24" height="24" viewBox="0 0 24 24" fill="none" xmlns="http://www.w3.org/2000/svg">
<path fill-rule="evenodd" clip-rule="evenodd" d="M11.9994 7.00735C12.4136 7.00735 12.7494 7.34314 12.7494 7.75735V10.701L15.2988 9.22915C15.6575 9.02205 16.1162 9.14495 16.3233 9.50367C16.5304 9.86239 16.4075 10.3211 16.0488 10.5282L13.4996 12L16.0488 13.4718C16.4075 13.6789 16.5304 14.1376 16.3233 14.4963C16.1162 14.855 15.6575 14.9779 15.2988 14.7708L12.7494 13.2989V16.2426C12.7494 16.6568 12.4136 16.9926 11.9994 16.9926C11.5852 16.9926 11.2494 16.6568 11.2494 16.2426V13.2991L8.70032 14.7708C8.3416 14.9779 7.88291 14.855 7.6758 14.4963C7.4687 14.1376 7.5916 13.6789 7.95032 13.4718L10.4996 12L7.95032 10.5282C7.5916 10.3211 7.46869 9.86239 7.6758 9.50367C7.88291 9.14495 8.3416 9.02205 8.70032 9.22915L11.2494 10.7009V7.75735C11.2494 7.34314 11.5852 7.00735 11.9994 7.00735Z" fill="currentColor"/>
</svg>
