<svg width="24" height="24" viewBox="0 0 24 24" fill="none" xmlns="http://www.w3.org/2000/svg">
<path fill-rule="evenodd" clip-rule="evenodd" d="M2.25 19C2.25 18.5858 2.58579 18.25 3 18.25H21C21.4142 18.25 21.75 18.5858 21.75 19C21.75 19.4142 21.4142 19.75 21 19.75H3C2.58579 19.75 2.25 19.4142 2.25 19Z" fill="currentColor"/>
<path d="M21.6931 4.71291C21.6565 4.62445 21.6022 4.54158 21.5303 4.46967C21.3839 4.32322 21.1919 4.25 21 4.25H16.5C16.0858 4.25 15.75 4.58579 15.75 5C15.75 5.41421 16.0858 5.75 16.5 5.75H19.1893L13.5 11.4393L10.0303 7.96967C9.73744 7.67678 9.26256 7.67678 8.96967 7.96967L2.46967 14.4697C2.17678 14.7626 2.17678 15.2374 2.46967 15.5303C2.76256 15.8232 3.23744 15.8232 3.53033 15.5303L9.5 9.56066L12.9697 13.0303C13.2626 13.3232 13.7374 13.3232 14.0303 13.0303L20.25 6.81066V9.5C20.25 9.91421 20.5858 10.25 21 10.25C21.4142 10.25 21.75 9.91421 21.75 9.5V5C21.75 4.89831 21.7298 4.80134 21.6931 4.71291Z" fill="currentColor"/>
</svg>
