<svg width="24" height="24" viewBox="0 0 24 24" fill="none" xmlns="http://www.w3.org/2000/svg">
<path fill-rule="evenodd" clip-rule="evenodd" d="M12 3.75C7.44365 3.75 3.75 7.44365 3.75 12C3.75 16.5563 7.44365 20.25 12 20.25C16.5563 20.25 20.25 16.5563 20.25 12C20.25 7.44365 16.5563 3.75 12 3.75ZM2.25 12C2.25 6.61522 6.61522 2.25 12 2.25C17.3848 2.25 21.75 6.61522 21.75 12C21.75 17.3848 17.3848 21.75 12 21.75C6.61522 21.75 2.25 17.3848 2.25 12Z" fill="#00A88F"/>
<path fill-rule="evenodd" clip-rule="evenodd" d="M16.5 9C16.7799 9.30534 16.7593 9.77977 16.4539 10.0597L11.0068 15.0529C10.7108 15.3242 10.2536 15.3143 9.96967 15.0303L7.5 12.5607C7.20711 12.2678 7.20711 11.7929 7.5 11.5C7.79289 11.2071 8.26777 11.2071 8.56066 11.5L10.5226 13.4619L15.4403 8.95393C15.7457 8.67403 16.2201 8.69466 16.5 9Z" fill="#00A88F"/>
</svg>
