<svg width="24" height="24" viewBox="0 0 24 24" fill="none" xmlns="http://www.w3.org/2000/svg">
<path fill-rule="evenodd" clip-rule="evenodd" d="M6.37023 7.43092C4.0535 10.2784 4.22125 14.4743 6.87348 17.1265C9.5257 19.7787 13.7216 19.9465 16.5691 17.6298L6.37023 7.43092ZM17.6297 16.5691C19.9465 13.7216 19.7788 9.52571 17.1265 6.87348C14.4743 4.22124 10.2784 4.0535 7.43089 6.37026L17.6297 16.5691ZM5.81282 5.81282C2.39573 9.2299 2.39573 14.7701 5.81282 18.1872C9.2299 21.6043 14.7701 21.6043 18.1872 18.1872C21.6043 14.7701 21.6043 9.2299 18.1872 5.81282C14.7701 2.39573 9.2299 2.39573 5.81282 5.81282Z" fill="currentColor"/>
</svg>
