<svg width="24" height="24" viewBox="0 0 24 24" fill="none" xmlns="http://www.w3.org/2000/svg">
<path d="M5.35637 12.2155L4.49945 16.5C2.49934 16 1.49924 18.5 3.49953 19.5C3.49953 19.5 5.99948 21 11.4995 21C16.9995 21 19.4995 19.5 19.4995 19.5C21.4995 18.5 20.4995 16 18.4995 16.5L16.9995 10L17.8873 10.8875C18.2674 11.2675 18.8191 11.4202 19.3405 11.2899C20.0219 11.1195 20.4999 10.5072 20.4999 9.80486L20.4995 6.99995L21.2545 6.24499C21.4019 6.09761 21.4439 5.87273 21.3474 5.68795C20.0709 3.24188 17.6333 2.55313 15.5 3.15072C13.1947 3.79648 11.2448 5.94435 11.4995 8.99998H9.27869C7.37197 8.99998 5.73031 10.3458 5.35637 12.2155Z" stroke="currentColor" stroke-width="1.5" stroke-linecap="round" stroke-linejoin="round"/>
<path d="M11.5 14.5C14.5 14.5 14.5 17.5 14.5 17.5H11.5H8.5C8.5 17.5 8.5 14.5 11.5 14.5Z" stroke="currentColor" stroke-width="1.5" stroke-linecap="round" stroke-linejoin="round"/>
</svg>
