<svg width="24" height="24" viewBox="0 0 24 24" fill="none" xmlns="http://www.w3.org/2000/svg">
<path fill-rule="evenodd" clip-rule="evenodd" d="M8.32501 4.75C8.67247 3.03832 10.1858 1.75 12 1.75C13.8142 1.75 15.3275 3.03832 15.675 4.75H20.5C20.9142 4.75 21.25 5.08579 21.25 5.5C21.25 5.91421 20.9142 6.25 20.5 6.25H19.1809L18.0236 18.209C17.9765 18.6953 17.9371 19.1031 17.8784 19.4357C17.817 19.784 17.7257 20.1081 17.5446 20.411C17.2652 20.8784 16.8534 21.2523 16.3612 21.4854C16.0423 21.6364 15.711 21.6961 15.3584 21.7237C15.0216 21.75 14.6121 21.75 14.1235 21.75H9.87652C9.38796 21.75 8.97834 21.75 8.64158 21.7237C8.28899 21.6961 7.95766 21.6364 7.63874 21.4854C7.1466 21.2523 6.73474 20.8784 6.45535 20.411C6.27429 20.1081 6.18301 19.784 6.12157 19.4357C6.06289 19.1031 6.02345 18.6954 5.97639 18.2091L4.81905 6.25H3.5C3.08579 6.25 2.75 5.91421 2.75 5.5C2.75 5.08579 3.08579 4.75 3.5 4.75H8.32501ZM9.87803 4.75C10.1869 3.87611 11.0203 3.25 12 3.25C12.9797 3.25 13.8131 3.87611 14.122 4.75H9.87803ZM6.32606 6.25H17.6739L16.5333 18.036C16.4828 18.5583 16.4485 18.9072 16.4012 19.1752C16.3555 19.434 16.3068 19.5583 16.2571 19.6413C16.1301 19.8538 15.9429 20.0238 15.7192 20.1297C15.6318 20.1711 15.5034 20.2077 15.2413 20.2282C14.97 20.2495 14.6195 20.25 14.0947 20.25H9.90526C9.38047 20.25 9.02993 20.2495 8.75865 20.2282C8.49661 20.2077 8.36822 20.1711 8.28076 20.1297C8.05706 20.0238 7.86985 19.8538 7.74286 19.6414C7.6932 19.5583 7.64442 19.434 7.59877 19.1752C7.5515 18.9072 7.5172 18.5583 7.46665 18.036L6.32606 6.25Z" fill="currentColor"/>
</svg>
