<svg width="24" height="24" viewBox="0 0 24 24" fill="none" xmlns="http://www.w3.org/2000/svg">
<path fill-rule="evenodd" clip-rule="evenodd" d="M12 3.25C12.1989 3.25 12.3897 3.32902 12.5303 3.46967L17.0303 7.96967C17.3232 8.26256 17.3232 8.73744 17.0303 9.03033C16.7374 9.32322 16.2626 9.32322 15.9697 9.03033L12.75 5.81066V15.5C12.75 15.9142 12.4142 16.25 12 16.25C11.5858 16.25 11.25 15.9142 11.25 15.5V5.81066L8.03033 9.03033C7.73744 9.32322 7.26257 9.32322 6.96967 9.03033C6.67678 8.73744 6.67678 8.26256 6.96967 7.96967L11.4697 3.46967C11.6103 3.32902 11.8011 3.25 12 3.25Z" fill="currentColor"/>
<path fill-rule="evenodd" clip-rule="evenodd" d="M5.25 19.5C5.25 19.0858 5.58579 18.75 6 18.75H18C18.4142 18.75 18.75 19.0858 18.75 19.5C18.75 19.9142 18.4142 20.25 18 20.25H6C5.58579 20.25 5.25 19.9142 5.25 19.5Z" fill="currentColor"/>
</svg>
