<svg width="24" height="24" viewBox="0 0 24 24" fill="none" xmlns="http://www.w3.org/2000/svg">
<path fill-rule="evenodd" clip-rule="evenodd" d="M11.9999 11.25C12.4141 11.25 12.7499 11.5858 12.7499 12V17C12.7499 17.4142 12.4141 17.75 11.9999 17.75C11.5856 17.75 11.2499 17.4142 11.2499 17V12C11.2499 11.5858 11.5856 11.25 11.9999 11.25Z" fill="currentColor"/>
<path d="M12.9999 9C12.9999 9.55228 12.5521 10 11.9999 10C11.4476 10 10.9999 9.55228 10.9999 9C10.9999 8.44772 11.4476 8 11.9999 8C12.5521 8 12.9999 8.44772 12.9999 9Z" fill="currentColor"/>
<path fill-rule="evenodd" clip-rule="evenodd" d="M10.8813 2.48775C11.5933 2.17075 12.4064 2.17075 13.1184 2.48775C13.604 2.70394 13.9625 3.10369 14.2864 3.56211C14.6079 4.01716 14.9631 4.63243 15.4016 5.39205L21.1555 15.358C21.594 16.1176 21.9493 16.7328 22.1826 17.2388C22.4176 17.7485 22.5846 18.2588 22.529 18.7875C22.4476 19.5626 22.041 20.2667 21.4105 20.7248C20.9805 21.0372 20.455 21.1478 19.8961 21.1991C19.3412 21.25 18.6308 21.25 17.7537 21.25H6.24603C5.36891 21.25 4.65846 21.25 4.10362 21.1991C3.54469 21.1478 3.01923 21.0372 2.58921 20.7248C1.95869 20.2667 1.55216 19.5626 1.47069 18.7875C1.41513 18.2588 1.58206 17.7485 1.81712 17.2388C2.05045 16.7328 2.40569 16.1176 2.84426 15.3579L8.59806 5.39208C9.03662 4.63245 9.39184 4.01716 9.71335 3.56211C10.0372 3.10369 10.3957 2.70394 10.8813 2.48775ZM12.5083 3.85807C12.1846 3.71398 11.8151 3.71398 11.4914 3.85807C11.3834 3.90619 11.2177 4.03239 10.9384 4.42765C10.6614 4.81971 10.3402 5.3746 9.87809 6.175L4.16232 16.075C3.70021 16.8754 3.38028 17.431 3.17924 17.867C2.97657 18.3064 2.95011 18.513 2.96247 18.6307C2.9995 18.983 3.18429 19.303 3.47089 19.5113C3.5666 19.5808 3.75873 19.6612 4.24066 19.7054C4.71869 19.7492 5.35987 19.75 6.28408 19.75H17.7156C18.6398 19.75 19.281 19.7492 19.759 19.7054C20.241 19.6612 20.4331 19.5808 20.5288 19.5113C20.8154 19.303 21.0002 18.983 21.0372 18.6307C21.0496 18.513 21.0231 18.3064 20.8205 17.867C20.6194 17.431 20.2995 16.8754 19.8374 16.075L14.1216 6.175C13.6595 5.3746 13.3383 4.81971 13.0613 4.42765C12.782 4.03239 12.6164 3.90619 12.5083 3.85807Z" fill="currentColor"/>
</svg>
