<svg width="24" height="24" viewBox="0 0 24 24" fill="none" xmlns="http://www.w3.org/2000/svg">
<path fill-rule="evenodd" clip-rule="evenodd" d="M2.25 6C2.25 3.92893 3.92893 2.25 6 2.25H18C20.0711 2.25 21.75 3.92893 21.75 6V18C21.75 20.0711 20.0711 21.75 18 21.75H6C3.92893 21.75 2.25 20.0711 2.25 18V6ZM6 3.75C4.75736 3.75 3.75 4.75736 3.75 6V18C3.75 19.2426 4.75736 20.25 6 20.25H18C19.2426 20.25 20.25 19.2426 20.25 18V6C20.25 4.75736 19.2426 3.75 18 3.75H6Z" fill="currentColor"/>
<path fill-rule="evenodd" clip-rule="evenodd" d="M5.25 7C5.25 6.0335 6.0335 5.25 7 5.25H17C17.9665 5.25 18.75 6.0335 18.75 7V10C18.75 10.9665 17.9665 11.75 17 11.75H7C6.0335 11.75 5.25 10.9665 5.25 10V7ZM7 6.75C6.86193 6.75 6.75 6.86193 6.75 7V10C6.75 10.1381 6.86193 10.25 7 10.25H17C17.1381 10.25 17.25 10.1381 17.25 10V7C17.25 6.86193 17.1381 6.75 17 6.75H7Z" fill="currentColor"/>
<path fill-rule="evenodd" clip-rule="evenodd" d="M12 8.25C12.4142 8.25 12.75 8.58579 12.75 9V11C12.75 11.4142 12.4142 11.75 12 11.75C11.5858 11.75 11.25 11.4142 11.25 11V9C11.25 8.58579 11.5858 8.25 12 8.25Z" fill="currentColor"/>
</svg>
