<svg width="21" height="20" viewBox="0 0 21 20" fill="none" xmlns="http://www.w3.org/2000/svg">
<path d="M0.988281 20L2.40184 14.8669C1.52792 13.3603 1.06947 11.654 1.07424 9.9097C1.07424 4.44392 5.54415 0 11.0313 0C13.696 0 16.1984 1.03137 18.0752 2.90399C19.9567 4.77662 20.993 7.26711 20.9883 9.91445C20.9883 15.3802 16.5184 19.8242 11.0265 19.8242H11.0217C9.35504 19.8242 7.71702 19.4059 6.26048 18.6169L0.988281 20ZM6.51359 16.8251L6.81445 17.0057C8.08474 17.7567 9.54128 18.1511 11.0265 18.1559H11.0313C15.5919 18.1559 19.3073 14.4629 19.3073 9.9192C19.3073 7.71863 18.4477 5.65114 16.8861 4.09221C15.3245 2.53327 13.2423 1.67776 11.0313 1.67776C6.47061 1.673 2.75523 5.36597 2.75523 9.9097C2.75523 11.4639 3.18981 12.98 4.02075 14.2918L4.21655 14.6055L3.38083 17.6426L6.51359 16.8251Z" fill="white"/>
<path d="M1.33691 19.653L2.70272 14.6958C1.85745 13.2462 1.41332 11.5969 1.41332 9.91442C1.4181 4.63875 5.73042 0.346924 11.0313 0.346924C13.6053 0.346924 16.0169 1.34502 17.8316 3.15111C19.6464 4.95719 20.6444 7.36213 20.6444 9.91917C20.6444 15.1948 16.3274 19.4867 11.0313 19.4867H11.0265C9.41714 19.4867 7.83643 19.0827 6.43242 18.3222L1.33691 19.653Z" fill="currentColor"/>
<path d="M0.988281 20L2.40184 14.8669C1.52792 13.3603 1.06947 11.654 1.07424 9.9097C1.07424 4.44392 5.54415 0 11.0313 0C13.696 0 16.1984 1.03137 18.0752 2.90399C19.9567 4.77662 20.993 7.26711 20.9883 9.91445C20.9883 15.3802 16.5184 19.8242 11.0265 19.8242H11.0217C9.35504 19.8242 7.71702 19.4059 6.26048 18.6169L0.988281 20ZM6.51359 16.8251L6.81445 17.0057C8.08474 17.7567 9.54128 18.1511 11.0265 18.1559H11.0313C15.5919 18.1559 19.3073 14.4629 19.3073 9.9192C19.3073 7.71863 18.4477 5.65114 16.8861 4.09221C15.3245 2.53327 13.2423 1.67776 11.0313 1.67776C6.47061 1.673 2.75523 5.36597 2.75523 9.9097C2.75523 11.4639 3.18981 12.98 4.02075 14.2918L4.21655 14.6055L3.38083 17.6426L6.51359 16.8251Z" fill=""/>
<path fill-rule="evenodd" clip-rule="evenodd" d="M8.54385 5.76521C8.35761 5.35171 8.16181 5.34221 7.98511 5.33746C7.84185 5.3327 7.6747 5.3327 7.50756 5.3327C7.34042 5.3327 7.07298 5.39449 6.84376 5.64164C6.61453 5.88879 5.97461 6.48765 5.97461 7.70913C5.97461 8.92586 6.86764 10.1046 6.9918 10.2709C7.11596 10.4373 8.71577 13.0181 11.242 14.0114C13.3433 14.8384 13.7731 14.6721 14.2268 14.6293C14.6804 14.5865 15.6976 14.0304 15.9077 13.4506C16.1131 12.8707 16.1131 12.3764 16.051 12.2719C15.9889 12.1673 15.8218 12.1055 15.5735 11.9819C15.3251 11.8584 14.1026 11.2595 13.8734 11.174C13.6441 11.0932 13.477 11.0504 13.3146 11.2975C13.1475 11.5447 12.6699 12.1008 12.5267 12.2671C12.3834 12.4335 12.2353 12.4525 11.987 12.3289C11.7387 12.2053 10.9364 11.9439 9.98607 11.0979C9.24586 10.442 8.74443 9.62928 8.60116 9.38213C8.45789 9.13498 8.58683 9.0019 8.711 8.87833C8.82083 8.76902 8.95933 8.58841 9.08349 8.44582C9.20765 8.30324 9.25063 8.19867 9.33182 8.03232C9.413 7.86597 9.3748 7.72339 9.31272 7.59981C9.25063 7.48099 8.76353 6.25476 8.54385 5.76521Z" fill="white"/>
</svg>
