<svg width="96" height="153" viewBox="0 0 96 153" fill="none" xmlns="http://www.w3.org/2000/svg">
<ellipse cx="48" cy="145" rx="48" ry="8" fill="#F5F6FA"/>
<path fill-rule="evenodd" clip-rule="evenodd" d="M22 4C22 2.34315 23.3431 1 25 1H73C74.6569 1 76 2.34315 76 4V20C76 21.6569 74.6569 23 73 23H72V31H73C78.5228 31 83 35.4772 83 41V136C83 141.523 78.5228 146 73 146H25C19.4772 146 15 141.523 15 136V41C15 35.4771 19.4772 31 25 31H26V23H25C23.3431 23 22 21.6569 22 20V4Z" fill="white"/>
<path d="M72 23V22H71V23H72ZM72 31H71V32H72V31ZM26 31V32H27V31H26ZM26 23H27V22H26V23ZM23.4686 0.303916C22.9584 0.51547 22.7164 1.10054 22.9279 1.6107C23.1395 2.12086 23.7245 2.36292 24.2347 2.15137L23.4686 0.303916ZM23.1514 3.23469C23.3629 2.72453 23.1209 2.13947 22.6107 1.92791C22.1005 1.71636 21.5155 1.95842 21.3039 2.46858L23.1514 3.23469ZM21 8C21 8.55228 21.4477 9 22 9C22.5523 9 23 8.55228 23 8H21ZM23 16C23 15.4477 22.5523 15 22 15C21.4477 15 21 15.4477 21 16H23ZM21.3039 21.5314C21.5155 22.0416 22.1005 22.2836 22.6107 22.0721C23.1209 21.8605 23.3629 21.2755 23.1514 20.7653L21.3039 21.5314ZM24.2347 21.8486C23.7245 21.6371 23.1395 21.8791 22.9279 22.3893C22.7164 22.8995 22.9584 23.4845 23.4686 23.6961L24.2347 21.8486ZM25.25 24C25.8023 24 26.25 23.5523 26.25 23C26.25 22.4477 25.8023 22 25.25 22V24ZM25.75 22C25.1977 22 24.75 22.4477 24.75 23C24.75 23.5523 25.1977 24 25.75 24V22ZM25 25C25 25.5523 25.4477 26 26 26C26.5523 26 27 25.5523 27 25H25ZM27 29C27 28.4477 26.5523 28 26 28C25.4477 28 25 28.4477 25 29H27ZM25.75 30C25.1977 30 24.75 30.4477 24.75 31C24.75 31.5523 25.1977 32 25.75 32V30ZM25.25 32C25.8023 32 26.25 31.5523 26.25 31C26.25 30.4477 25.8023 30 25.25 30V32ZM20.7891 30.8351C20.2789 31.0466 20.0368 31.6317 20.2484 32.1419C20.46 32.652 21.045 32.8941 21.5552 32.6825L20.7891 30.8351ZM16.6825 37.5552C16.8941 37.045 16.652 36.4599 16.1419 36.2484C15.6317 36.0368 15.0466 36.2789 14.8351 36.7891L16.6825 37.5552ZM14 43.9687C14 44.521 14.4477 44.9687 15 44.9687C15.5523 44.9687 16 44.521 16 43.9687H14ZM16 49.9062C16 49.354 15.5523 48.9062 15 48.9062C14.4477 48.9062 14 49.354 14 49.9062H16ZM14 55.8437C14 56.396 14.4477 56.8437 15 56.8437C15.5523 56.8437 16 56.396 16 55.8437H14ZM16 61.7812C16 61.229 15.5523 60.7812 15 60.7812C14.4477 60.7812 14 61.229 14 61.7812H16ZM14 67.7188C14 68.271 14.4477 68.7188 15 68.7188C15.5523 68.7188 16 68.271 16 67.7188H14ZM16 73.6562C16 73.104 15.5523 72.6562 15 72.6562C14.4477 72.6562 14 73.104 14 73.6562H16ZM14 79.5938C14 80.146 14.4477 80.5938 15 80.5938C15.5523 80.5938 16 80.146 16 79.5938H14ZM16 85.5312C16 84.979 15.5523 84.5312 15 84.5312C14.4477 84.5312 14 84.979 14 85.5312H16ZM14 91.4688C14 92.021 14.4477 92.4688 15 92.4688C15.5523 92.4688 16 92.021 16 91.4688H14ZM16 97.4062C16 96.854 15.5523 96.4062 15 96.4062C14.4477 96.4062 14 96.854 14 97.4062H16ZM14 103.344C14 103.896 14.4477 104.344 15 104.344C15.5523 104.344 16 103.896 16 103.344H14ZM16 109.281C16 108.729 15.5523 108.281 15 108.281C14.4477 108.281 14 108.729 14 109.281H16ZM14 115.219C14 115.771 14.4477 116.219 15 116.219C15.5523 116.219 16 115.771 16 115.219H14ZM16 121.156C16 120.604 15.5523 120.156 15 120.156C14.4477 120.156 14 120.604 14 121.156H16ZM14 127.094C14 127.646 14.4477 128.094 15 128.094C15.5523 128.094 16 127.646 16 127.094H14ZM16 133.031C16 132.479 15.5523 132.031 15 132.031C14.4477 132.031 14 132.479 14 133.031H16ZM14.8351 140.211C15.0466 140.721 15.6317 140.963 16.1419 140.752C16.652 140.54 16.8941 139.955 16.6825 139.445L14.8351 140.211ZM21.5552 144.317C21.045 144.106 20.46 144.348 20.2484 144.858C20.0368 145.368 20.2789 145.953 20.7891 146.165L21.5552 144.317ZM28 147C28.5523 147 29 146.552 29 146C29 145.448 28.5523 145 28 145V147ZM34 145C33.4477 145 33 145.448 33 146C33 146.552 33.4477 147 34 147V145ZM40 147C40.5523 147 41 146.552 41 146C41 145.448 40.5523 145 40 145V147ZM46 145C45.4477 145 45 145.448 45 146C45 146.552 45.4477 147 46 147V145ZM52 147C52.5523 147 53 146.552 53 146C53 145.448 52.5523 145 52 145V147ZM58 145C57.4477 145 57 145.448 57 146C57 146.552 57.4477 147 58 147V145ZM64 147C64.5523 147 65 146.552 65 146C65 145.448 64.5523 145 64 145V147ZM70 145C69.4477 145 69 145.448 69 146C69 146.552 69.4477 147 70 147V145ZM77.2109 146.165C77.7211 145.953 77.9632 145.368 77.7516 144.858C77.5401 144.348 76.955 144.106 76.4448 144.317L77.2109 146.165ZM81.3175 139.445C81.1059 139.955 81.348 140.54 81.8581 140.752C82.3683 140.963 82.9534 140.721 83.1649 140.211L81.3175 139.445ZM84 133.031C84 132.479 83.5523 132.031 83 132.031C82.4477 132.031 82 132.479 82 133.031H84ZM82 127.094C82 127.646 82.4477 128.094 83 128.094C83.5523 128.094 84 127.646 84 127.094H82ZM84 121.156C84 120.604 83.5523 120.156 83 120.156C82.4477 120.156 82 120.604 82 121.156H84ZM82 115.219C82 115.771 82.4477 116.219 83 116.219C83.5523 116.219 84 115.771 84 115.219H82ZM84 109.281C84 108.729 83.5523 108.281 83 108.281C82.4477 108.281 82 108.729 82 109.281H84ZM82 103.344C82 103.896 82.4477 104.344 83 104.344C83.5523 104.344 84 103.896 84 103.344H82ZM84 97.4062C84 96.854 83.5523 96.4062 83 96.4062C82.4477 96.4062 82 96.854 82 97.4062H84ZM82 91.4688C82 92.021 82.4477 92.4688 83 92.4688C83.5523 92.4688 84 92.021 84 91.4688H82ZM84 85.5312C84 84.979 83.5523 84.5312 83 84.5312C82.4477 84.5312 82 84.979 82 85.5312H84ZM82 79.5938C82 80.146 82.4477 80.5938 83 80.5938C83.5523 80.5938 84 80.146 84 79.5938H82ZM84 73.6562C84 73.104 83.5523 72.6562 83 72.6562C82.4477 72.6562 82 73.104 82 73.6562H84ZM82 67.7188C82 68.271 82.4477 68.7188 83 68.7188C83.5523 68.7188 84 68.271 84 67.7188H82ZM84 61.7812C84 61.229 83.5523 60.7812 83 60.7812C82.4477 60.7812 82 61.229 82 61.7812H84ZM82 55.8438C82 56.396 82.4477 56.8438 83 56.8438C83.5523 56.8438 84 56.396 84 55.8438H82ZM84 49.9062C84 49.354 83.5523 48.9062 83 48.9062C82.4477 48.9062 82 49.354 82 49.9062H84ZM82 43.9688C82 44.521 82.4477 44.9688 83 44.9688C83.5523 44.9688 84 44.521 84 43.9688H82ZM83.1649 36.7891C82.9534 36.2789 82.3683 36.0368 81.8581 36.2484C81.348 36.4599 81.1059 37.045 81.3175 37.5552L83.1649 36.7891ZM76.4448 32.6825C76.955 32.8941 77.5401 32.652 77.7516 32.1419C77.9632 31.6317 77.7211 31.0466 77.2109 30.8351L76.4448 32.6825ZM72.75 30C72.1977 30 71.75 30.4477 71.75 31C71.75 31.5523 72.1977 32 72.75 32V30ZM72.25 32C72.8023 32 73.25 31.5523 73.25 31C73.25 30.4477 72.8023 30 72.25 30V32ZM73 29C73 28.4477 72.5523 28 72 28C71.4477 28 71 28.4477 71 29H73ZM71 25C71 25.5523 71.4477 26 72 26C72.5523 26 73 25.5523 73 25H71ZM72.25 24C72.8023 24 73.25 23.5523 73.25 23C73.25 22.4477 72.8023 22 72.25 22V24ZM72.75 22C72.1977 22 71.75 22.4477 71.75 23C71.75 23.5523 72.1977 24 72.75 24V22ZM74.5314 23.6961C75.0416 23.4845 75.2836 22.8995 75.0721 22.3893C74.8605 21.8791 74.2755 21.6371 73.7653 21.8486L74.5314 23.6961ZM74.8486 20.7653C74.6371 21.2755 74.8791 21.8605 75.3893 22.0721C75.8995 22.2836 76.4845 22.0416 76.6961 21.5314L74.8486 20.7653ZM77 16C77 15.4477 76.5523 15 76 15C75.4477 15 75 15.4477 75 16H77ZM75 8C75 8.55228 75.4477 9 76 9C76.5523 9 77 8.55228 77 8H75ZM76.6961 2.46858C76.4845 1.95842 75.8995 1.71636 75.3893 1.92791C74.8791 2.13947 74.6371 2.72453 74.8486 3.23469L76.6961 2.46858ZM73.7653 2.15137C74.2755 2.36292 74.8605 2.12086 75.0721 1.6107C75.2836 1.10054 75.0416 0.515471 74.5314 0.303916L73.7653 2.15137ZM70 0C69.4477 0 69 0.447715 69 1C69 1.55228 69.4477 2 70 2V0ZM64 2C64.5523 2 65 1.55228 65 1C65 0.447715 64.5523 0 64 0V2ZM58 0C57.4477 0 57 0.447715 57 1C57 1.55228 57.4477 2 58 2V0ZM52 2C52.5523 2 53 1.55228 53 1C53 0.447715 52.5523 0 52 0V2ZM46 0C45.4477 0 45 0.447715 45 1C45 1.55228 45.4477 2 46 2V0ZM40 2C40.5523 2 41 1.55228 41 1C41 0.447715 40.5523 0 40 0V2ZM34 0C33.4477 0 33 0.447715 33 1C33 1.55228 33.4477 2 34 2V0ZM28 2C28.5523 2 29 1.55228 29 1C29 0.447715 28.5523 0 28 0V2ZM25 0C24.4595 0 23.9416 0.107763 23.4686 0.303916L24.2347 2.15137C24.4691 2.05415 24.727 2 25 2V0ZM21.3039 2.46858C21.1078 2.9416 21 3.45948 21 4H23C23 3.72697 23.0542 3.46912 23.1514 3.23469L21.3039 2.46858ZM21 4V8H23V4H21ZM21 16V20H23V16H21ZM21 20C21 20.5405 21.1078 21.0584 21.3039 21.5314L23.1514 20.7653C23.0542 20.5309 23 20.273 23 20H21ZM23.4686 23.6961C23.9416 23.8922 24.4595 24 25 24V22C24.727 22 24.4691 21.9458 24.2347 21.8486L23.4686 23.6961ZM25 24H25.25V22H25V24ZM25.75 24H26V22H25.75V24ZM25 23V25H27V23H25ZM25 29V31H27V29H25ZM26 30H25.75V32H26V30ZM25.25 30H25V32H25.25V30ZM25 30C23.5103 30 22.0874 30.2967 20.7891 30.8351L21.5552 32.6825C22.615 32.2431 23.7778 32 25 32V30ZM14.8351 36.7891C14.2967 38.0874 14 39.5103 14 41H16C16 39.7778 16.2431 38.615 16.6825 37.5552L14.8351 36.7891ZM14 41V43.9687H16V41H14ZM14 49.9062V55.8437H16V49.9062H14ZM14 61.7812V67.7188H16V61.7812H14ZM14 73.6562V79.5938H16V73.6562H14ZM14 85.5312V91.4688H16V85.5312H14ZM14 97.4062V103.344H16V97.4062H14ZM14 109.281V115.219H16V109.281H14ZM14 121.156V127.094H16V121.156H14ZM14 133.031V136H16V133.031H14ZM14 136C14 137.49 14.2967 138.913 14.8351 140.211L16.6825 139.445C16.2431 138.385 16 137.222 16 136H14ZM20.7891 146.165C22.0874 146.703 23.5103 147 25 147V145C23.7778 145 22.615 144.757 21.5552 144.317L20.7891 146.165ZM25 147H28V145H25V147ZM34 147H40V145H34V147ZM46 147H52V145H46V147ZM58 147H64V145H58V147ZM70 147H73V145H70V147ZM73 147C74.4897 147 75.9126 146.703 77.2109 146.165L76.4448 144.317C75.385 144.757 74.2222 145 73 145V147ZM83.1649 140.211C83.7033 138.913 84 137.49 84 136H82C82 137.222 81.7569 138.385 81.3175 139.445L83.1649 140.211ZM84 136V133.031H82V136H84ZM84 127.094V121.156H82V127.094H84ZM84 115.219V109.281H82V115.219H84ZM84 103.344V97.4062H82V103.344H84ZM84 91.4688V85.5312H82V91.4688H84ZM84 79.5938V73.6562H82V79.5938H84ZM84 67.7188V61.7812H82V67.7188H84ZM84 55.8438V49.9062H82V55.8438H84ZM84 43.9688V41H82V43.9688H84ZM84 41C84 39.5103 83.7033 38.0874 83.1649 36.7891L81.3175 37.5552C81.7569 38.615 82 39.7778 82 41H84ZM77.2109 30.8351C75.9126 30.2967 74.4897 30 73 30V32C74.2222 32 75.385 32.2431 76.4448 32.6825L77.2109 30.8351ZM73 30H72.75V32H73V30ZM72.25 30H72V32H72.25V30ZM73 31V29H71V31H73ZM73 25V23H71V25H73ZM72 24H72.25V22H72V24ZM72.75 24H73V22H72.75V24ZM73 24C73.5405 24 74.0584 23.8922 74.5314 23.6961L73.7653 21.8486C73.5309 21.9458 73.273 22 73 22V24ZM76.6961 21.5314C76.8922 21.0584 77 20.5405 77 20H75C75 20.273 74.9458 20.5309 74.8486 20.7653L76.6961 21.5314ZM77 20V16H75V20H77ZM77 8V4H75V8H77ZM77 4C77 3.45948 76.8922 2.9416 76.6961 2.46858L74.8486 3.23469C74.9458 3.46912 75 3.72697 75 4H77ZM74.5314 0.303916C74.0584 0.107763 73.5405 0 73 0V2C73.273 2 73.5309 2.05415 73.7653 2.15137L74.5314 0.303916ZM73 0H70V2H73V0ZM64 0H58V2H64V0ZM52 0H46V2H52V0ZM40 0H34V2H40V0ZM28 0H25V2H28V0Z" fill="#E8EBED"/>
<path d="M54 88C53.6932 85.5321 51.2059 83.7537 48.4444 84.0279C46.0049 84.2702 44.2711 85.8197 44 88" stroke="#D9D9D9" stroke-width="2" stroke-linecap="round"/>
<circle cx="40" cy="75" r="2" fill="#D9D9D9"/>
<circle cx="58" cy="75" r="2" fill="#D9D9D9"/>
</svg>
