<svg width="24" height="24" viewBox="0 0 24 24" fill="none" xmlns="http://www.w3.org/2000/svg">
<path fill-rule="evenodd" clip-rule="evenodd" d="M12 20.25C8.54822 20.25 5.75 17.4518 5.75 14C5.75 12.5835 6.403 10.9975 7.37398 9.44521C8.33534 7.9083 9.55522 6.48787 10.5719 5.421C11.1847 4.77799 11.3433 4.63625 11.6023 4.54932C11.6854 4.52142 11.8285 4.4975 12 4.4975C12.1715 4.4975 12.3146 4.52142 12.3977 4.54932C12.6567 4.63625 12.8153 4.77799 13.4281 5.421C14.4448 6.48787 15.6647 7.9083 16.626 9.44521C17.597 10.9975 18.25 12.5835 18.25 14C18.25 17.4518 15.4518 20.25 12 20.25ZM4.25 14C4.25 18.2802 7.71979 21.75 12 21.75C16.2802 21.75 19.75 18.2802 19.75 14C19.75 12.1658 18.9237 10.2899 17.8977 8.64974C16.8622 6.99422 15.5676 5.49176 14.514 4.38617C14.4888 4.3598 14.464 4.33365 14.4393 4.30775C13.934 3.77639 13.5237 3.34498 12.8749 3.12726C12.5974 3.0341 12.2845 2.9975 12 2.9975C11.7155 2.9975 11.4026 3.0341 11.1251 3.12726C10.4763 3.34498 10.066 3.77639 9.56068 4.30775C9.53604 4.33365 9.51118 4.3598 9.48604 4.38617C8.43245 5.49176 7.13783 6.99422 6.10228 8.64974C5.07634 10.2899 4.25 12.1658 4.25 14Z" fill="currentColor"/>
<path fill-rule="evenodd" clip-rule="evenodd" d="M12 10.25C12.4142 10.25 12.75 10.5858 12.75 11V12.75H14.5C14.9142 12.75 15.25 13.0858 15.25 13.5C15.25 13.9142 14.9142 14.25 14.5 14.25H12.75V16C12.75 16.4142 12.4142 16.75 12 16.75C11.5858 16.75 11.25 16.4142 11.25 16V14.25H9.5C9.08579 14.25 8.75 13.9142 8.75 13.5C8.75 13.0858 9.08579 12.75 9.5 12.75H11.25V11C11.25 10.5858 11.5858 10.25 12 10.25Z" fill="currentColor"/>
</svg>
