<svg width="24" height="24" viewBox="0 0 24 24" fill="none" xmlns="http://www.w3.org/2000/svg">
<path fill-rule="evenodd" clip-rule="evenodd" d="M22.9823 8.35134C22.8513 8.74429 22.4266 8.95666 22.0336 8.82568L19.9123 8.11857C19.5194 7.98758 19.307 7.56285 19.438 7.16989C19.569 6.77693 19.9937 6.56456 20.3867 6.69555L22.508 7.40265C22.9009 7.53364 23.1133 7.95838 22.9823 8.35134Z" fill="currentColor"/>
<path fill-rule="evenodd" clip-rule="evenodd" d="M16.8511 4.58304C17.2441 4.45205 17.4565 4.02731 17.3255 3.63435L16.6184 1.51303C16.4874 1.12008 16.0626 0.907705 15.6697 1.03869C15.2767 1.16968 15.0644 1.59442 15.1953 1.98737L15.9024 4.1087C16.0334 4.50165 16.4582 4.71402 16.8511 4.58304Z" fill="currentColor"/>
<path fill-rule="evenodd" clip-rule="evenodd" d="M17.4978 7.58383C17.7907 7.29094 17.7907 6.81607 17.4978 6.52317C17.205 6.23028 16.7301 6.23028 16.4372 6.52317L15.5295 7.43084C12.2883 4.72548 7.45943 4.89433 4.41637 7.93739C1.19454 11.1592 1.19454 16.3828 4.41637 19.6047C7.63819 22.8265 12.8618 22.8265 16.0836 19.6047C19.1267 16.5616 19.2955 11.7327 16.5902 8.4915L17.4978 7.58383ZM15.023 8.99805C12.3869 6.36201 8.11307 6.36201 5.47703 8.99805C2.84099 11.6341 2.84099 15.908 5.47703 18.544C8.11307 21.18 12.3869 21.18 15.023 18.544C17.659 15.908 17.659 11.6341 15.023 8.99805Z" fill="currentColor"/>
<path fill-rule="evenodd" clip-rule="evenodd" d="M21.7405 2.28053C22.0334 2.57343 22.0334 3.0483 21.7405 3.34119L19.6192 5.46251C19.3263 5.75541 18.8514 5.75541 18.5585 5.46251C18.2656 5.16962 18.2656 4.69475 18.5585 4.40185L20.6798 2.28053C20.9727 1.98764 21.4476 1.98764 21.7405 2.28053Z" fill="currentColor"/>
</svg>
