<svg width="24" height="24" viewBox="0 0 24 24" fill="none" xmlns="http://www.w3.org/2000/svg">
<path d="M6.35048 13.7279C6.55759 13.3692 7.01628 13.2463 7.375 13.4534C7.99612 13.812 8.53718 14.2941 8.9648 14.8698C9.39241 15.4456 9.69752 16.1029 9.86129 16.8012C9.95588 17.2045 9.70564 17.608 9.30237 17.7026C8.8991 17.7972 8.49551 17.547 8.40092 17.1437C8.28394 16.645 8.06601 16.1755 7.76057 15.7642C7.45513 15.3529 7.06866 15.0086 6.625 14.7524C6.26628 14.5453 6.14338 14.0866 6.35048 13.7279Z" fill="currentColor"/>
<path d="M9.59556 7.20592C9.84484 6.87511 9.77875 6.40486 9.44794 6.15558C9.11714 5.9063 8.64688 5.97239 8.3976 6.3032C8.2314 6.52376 8.01536 6.70185 7.76714 6.82291C7.51892 6.94398 7.24558 7.00458 6.96945 6.99976C6.5553 6.99253 6.21371 7.3224 6.20648 7.73655C6.19925 8.1507 6.52912 8.4923 6.94327 8.49953C7.45608 8.50848 7.96372 8.39594 8.4247 8.1711C8.88568 7.94627 9.2869 7.61553 9.59556 7.20592Z" fill="currentColor"/>
<path d="M15.7781 6.89227C15.7191 6.48229 15.3388 6.19783 14.9288 6.25691C14.5189 6.31599 14.2344 6.69624 14.2935 7.10621C14.4085 7.90445 14.7483 8.65349 15.2731 9.26583C15.798 9.87817 16.4862 10.3285 17.2574 10.5643C17.6536 10.6854 18.0728 10.4625 18.1939 10.0664C18.3151 9.67027 18.0921 9.25098 17.696 9.12988C17.197 8.97731 16.7516 8.68589 16.412 8.28967C16.0724 7.89345 15.8526 7.40878 15.7781 6.89227Z" fill="currentColor"/>
<path fill-rule="evenodd" clip-rule="evenodd" d="M12 1.99306C13.0268 1.65132 14.1402 1.67025 15.1557 2.04791C16.0838 2.39305 16.878 3.01844 17.4307 3.83313C18.642 4.05128 19.7417 4.68905 20.5335 5.63941C21.3882 6.66531 21.8199 7.97837 21.7407 9.31134C21.6915 10.1399 21.4472 10.9374 21.0363 11.6427C21.3077 12.0498 21.5075 12.5018 21.6256 12.979C21.7813 13.6082 21.791 14.2646 21.654 14.8981C21.5171 15.5317 21.237 16.1254 20.8353 16.6341C20.525 17.027 20.1485 17.361 19.7239 17.6218C19.7483 17.7974 19.7557 17.9755 19.7457 18.1535C19.7231 18.5577 19.6116 18.9519 19.419 19.308C19.2265 19.6641 18.9577 19.9733 18.6319 20.2135C18.3061 20.4537 17.9313 20.619 17.5342 20.6976C17.2741 20.7492 17.0086 20.7626 16.746 20.7383C16.5665 21.0218 16.3436 21.2767 16.0847 21.4932C15.7045 21.8112 15.2565 22.0379 14.7752 22.1561C14.2939 22.2744 13.7919 22.2809 13.3076 22.1753C12.8312 22.0715 12.3843 21.8617 12 21.5617C11.7055 21.7917 11.3725 21.9699 11.0151 22.0874C10.4951 22.2584 9.94025 22.2952 9.40216 22.1945C8.86408 22.0938 8.36014 21.8589 7.93713 21.5114C7.6687 21.2909 7.43837 21.0296 7.25393 20.7383C6.95684 20.7658 6.65578 20.745 6.36269 20.6752C5.85506 20.5542 5.39231 20.2913 5.0285 19.9172C4.66469 19.5431 4.41483 19.0732 4.30812 18.5624C4.24317 18.2515 4.23287 17.9333 4.27614 17.6218C3.51724 17.1558 2.91863 16.4596 2.57351 15.6264C2.14216 14.585 2.14216 13.415 2.57351 12.3736C2.68024 12.1159 2.81121 11.8714 2.96366 11.6427C2.53398 10.9051 2.29039 10.0735 2.25461 9.21979C2.21757 8.33626 2.40432 7.45769 2.79751 6.66561C3.19071 5.87353 3.77761 5.1936 4.50375 4.68891C5.12406 4.25779 5.82881 3.96648 6.56931 3.8331C7.13499 2.99932 7.95288 2.36483 8.90659 2.02523C9.9064 1.66921 10.9954 1.65869 12 1.99306ZM9.40976 3.43831C10.0031 3.22703 10.6423 3.19359 11.25 3.33772V20.2248C11.0541 20.4247 10.8129 20.5749 10.5466 20.6625C10.2666 20.7545 9.96783 20.7744 9.67809 20.7201C9.38835 20.6659 9.117 20.5394 8.88922 20.3523C8.66145 20.1652 8.48462 19.9236 8.37515 19.6499C8.34768 19.5812 8.3112 19.5188 8.2676 19.4636C8.08108 19.1943 7.73192 19.07 7.40696 19.1819C7.18268 19.2592 6.94106 19.271 6.71032 19.216C6.47957 19.161 6.26923 19.0415 6.10386 18.8715C5.93849 18.7014 5.82492 18.4878 5.77642 18.2556C5.73057 18.0362 5.74463 17.8087 5.81676 17.597C5.83028 17.5725 5.84257 17.547 5.85352 17.5206C6.01203 17.1379 5.8303 16.6992 5.44762 16.5407C4.77379 16.2616 4.23844 15.7262 3.95933 15.0524C3.68022 14.3786 3.68022 13.6214 3.95933 12.9476C4.23844 12.2738 4.77379 11.7384 5.44762 11.4593C6.12145 11.1802 6.87855 11.1802 7.55238 11.4593C7.93506 11.6178 8.37379 11.4361 8.5323 11.0534C8.69081 10.6708 8.50909 10.232 8.12641 10.0735C7.08504 9.64216 5.91497 9.64216 4.8736 10.0735C4.58811 10.1918 4.31871 10.3398 4.06915 10.5138C3.88061 10.0865 3.77297 9.62643 3.75329 9.15698C3.72684 8.52589 3.86023 7.89834 4.14108 7.33256C4.42193 6.76679 4.84115 6.28113 5.35983 5.92064C5.8785 5.56015 6.47983 5.33651 7.10802 5.27049C7.39052 5.2408 7.61984 5.05791 7.72209 4.81304C8.10976 4.17467 8.70566 3.68903 9.40976 3.43831ZM12.913 20.3714C12.8618 20.3309 12.807 20.2981 12.75 20.2729V3.33772C13.3729 3.18998 14.0282 3.22898 14.6329 3.45383C15.3417 3.71746 15.9364 4.22004 16.3146 4.875C16.4103 5.04073 16.5596 5.15613 16.7281 5.2119C16.7985 5.24516 16.8754 5.26792 16.957 5.27793C17.9037 5.39417 18.7705 5.86678 19.381 6.59957C19.9916 7.33236 20.2999 8.27026 20.2434 9.22238C20.1868 10.1745 19.7696 11.0693 19.0766 11.7246C18.3835 12.38 17.4669 12.7466 16.5131 12.75C16.0989 12.7514 15.7642 13.0884 15.7657 13.5026C15.7671 13.9168 16.1041 14.2514 16.5183 14.2499C17.8134 14.2454 19.0597 13.7624 20.0188 12.8962C20.0813 13.039 20.1318 13.1872 20.1695 13.3394C20.2702 13.7465 20.2765 14.1712 20.1879 14.5812C20.0993 14.9911 19.9181 15.3753 19.6582 15.7044C19.3982 16.0335 19.0665 16.2988 18.6883 16.4801C18.6386 16.5039 18.5927 16.5324 18.551 16.5649C18.1822 16.7278 18.0069 17.1553 18.159 17.5318C18.2279 17.7024 18.2583 17.8861 18.2481 18.0698C18.2378 18.2535 18.1871 18.4327 18.0996 18.5946C18.0121 18.7564 17.8899 18.8969 17.7418 19.0061C17.5937 19.1153 17.4233 19.1905 17.2428 19.2262C17.0623 19.262 16.8761 19.2574 16.6976 19.2129C16.5191 19.1684 16.3526 19.085 16.21 18.9687C16.0674 18.8524 15.9522 18.7061 15.8727 18.5401C15.7932 18.3742 15.7513 18.1927 15.75 18.0087C15.7472 17.5945 15.409 17.2611 14.9948 17.264C14.5806 17.2669 14.2472 17.605 14.2501 18.0192C14.2529 18.424 14.3451 18.8232 14.52 19.1883C14.6949 19.5533 14.9482 19.8753 15.2619 20.1311C15.2762 20.1428 15.2907 20.1543 15.3052 20.1657C15.2488 20.2288 15.1878 20.2879 15.1225 20.3425C14.9178 20.5137 14.6766 20.6358 14.4174 20.6994C14.1582 20.7631 13.8879 20.7666 13.6272 20.7098C13.3664 20.6529 13.1221 20.5372 12.913 20.3714Z" fill="currentColor"/>
</svg>
