<svg width="24" height="24" viewBox="0 0 24 24" fill="none" xmlns="http://www.w3.org/2000/svg">
<path fill-rule="evenodd" clip-rule="evenodd" d="M15.6078 7.25779C15.9161 7.30255 16.1646 7.53322 16.2321 7.8373L17.7739 14.7752L19.3292 11.6646C19.4562 11.4105 19.7159 11.25 20 11.25H22C22.4142 11.25 22.75 11.5858 22.75 12C22.75 12.4142 22.4142 12.75 22 12.75H20.4635L18.1708 17.3354C18.0288 17.6194 17.7235 17.7832 17.4084 17.7444C17.0933 17.7056 16.8367 17.4726 16.7679 17.1627L15.1964 10.0909L13.6556 12.8642C13.5233 13.1023 13.2724 13.25 13 13.25H11C10.5858 13.25 10.25 12.9142 10.25 12.5C10.25 12.0858 10.5858 11.75 11 11.75H12.5587L14.8444 7.63577C14.9957 7.36346 15.2995 7.21302 15.6078 7.25779Z" fill="#00A88F"/>
<path d="M8 4.75C5.65279 4.75 3.75 6.65279 3.75 9C3.75 11.0348 5.20094 13.1993 7.06716 15.1026C8.89873 16.9705 10.972 18.4287 11.9051 19.047C11.9667 19.0879 12.0333 19.0879 12.0949 19.047C12.6132 18.7036 13.4832 18.1011 14.4681 17.3131L14.4692 17.3144C14.5993 17.2055 14.767 17.14 14.95 17.14C15.3642 17.14 15.7 17.4758 15.7 17.89C15.7 18.1443 15.5734 18.369 15.3799 18.5046C14.3565 19.3218 13.4578 19.9433 12.9235 20.2974C12.3597 20.6711 11.6403 20.6711 11.0765 20.2974C10.1062 19.6544 7.93412 18.1292 5.99612 16.1527C4.09279 14.2116 2.25 11.6706 2.25 9C2.25 5.82436 4.82436 3.25 8 3.25C9.55491 3.25 10.9657 3.86773 12 4.86939C13.0343 3.86773 14.4451 3.25 16 3.25C19.1756 3.25 21.75 5.82436 21.75 9C21.75 9.41421 21.4142 9.75 21 9.75C20.5858 9.75 20.25 9.41421 20.25 9C20.25 6.65279 18.3472 4.75 16 4.75C14.6102 4.75 13.3763 5.41628 12.5996 6.45002C12.458 6.63858 12.2358 6.74952 12 6.74952C11.7642 6.74952 11.542 6.63858 11.4004 6.45002C10.6237 5.41628 9.38978 4.75 8 4.75Z" fill="#00A88F"/>
</svg>
