<svg width="21" height="20" viewBox="0 0 21 20" fill="none" xmlns="http://www.w3.org/2000/svg">
<g clip-path="url(#clip0_2439_35917)">
<path d="M20.7752 10.225C20.7752 9.56665 20.7169 8.94165 20.6169 8.33331H11.2002V12.0916H16.5919C16.3502 13.325 15.6419 14.3666 14.5919 15.075V17.575H17.8085C19.6919 15.8333 20.7752 13.2666 20.7752 10.225Z" fill="#A6A6A6"/>
<path d="M11.2004 20.0001C13.9004 20.0001 16.1587 19.1001 17.8087 17.5751L14.5921 15.0751C13.6921 15.6751 12.5504 16.0417 11.2004 16.0417C8.59206 16.0417 6.38373 14.2834 5.59206 11.9084H2.27539V14.4834C3.91706 17.7501 7.29206 20.0001 11.2004 20.0001Z" fill="#A6A6A6"/>
<path d="M5.59186 11.9084C5.38353 11.3084 5.27519 10.6668 5.27519 10.0001C5.27519 9.33345 5.39186 8.69178 5.59186 8.09178V5.51678H2.27519C1.59186 6.86678 1.2002 8.38345 1.2002 10.0001C1.2002 11.6168 1.59186 13.1334 2.27519 14.4834L5.59186 11.9084Z" fill="#A6A6A6"/>
<path d="M11.2004 3.95833C12.6754 3.95833 13.9921 4.46667 15.0337 5.45834L17.8837 2.60833C16.1587 0.991668 13.9004 0 11.2004 0C7.29206 0 3.91706 2.25 2.27539 5.51667L5.59206 8.09167C6.38373 5.71667 8.59206 3.95833 11.2004 3.95833Z" fill="#A6A6A6"/>
</g>
<defs>
<clipPath id="clip0_2439_35917">
<rect width="20" height="20" fill="white" transform="translate(0.988281)"/>
</clipPath>
</defs>
</svg>
