<svg width="20" height="20" viewBox="0 0 20 20" fill="none" xmlns="http://www.w3.org/2000/svg">
<path d="M19.7869 10.225C19.7869 9.56667 19.7286 8.94167 19.6286 8.33333H10.2119V12.0917H15.6036C15.3619 13.325 14.6536 14.3667 13.6036 15.075V17.575H16.8202C18.7036 15.8333 19.7869 13.2667 19.7869 10.225Z" fill="#4285F4"/>
<path d="M10.2119 20C12.9119 20 15.1703 19.1 16.8203 17.575L13.6036 15.075C12.7036 15.675 11.5619 16.0417 10.2119 16.0417C7.60359 16.0417 5.39526 14.2834 4.60359 11.9084H1.28693V14.4834C2.92859 17.75 6.30359 20 10.2119 20Z" fill="#34A853"/>
<path d="M4.60358 11.9084C4.39525 11.3084 4.28691 10.6668 4.28691 10.0001C4.28691 9.33343 4.40358 8.69177 4.60358 8.09177V5.51677H1.28691C0.60358 6.86677 0.211914 8.38343 0.211914 10.0001C0.211914 11.6168 0.60358 13.1334 1.28691 14.4834L4.60358 11.9084Z" fill="#FBBC05"/>
<path d="M10.2119 3.95833C11.6869 3.95833 13.0036 4.46667 14.0453 5.45834L16.8953 2.60833C15.1703 0.991668 12.9119 0 10.2119 0C6.30359 0 2.92859 2.25 1.28693 5.51667L4.60359 8.09167C5.39526 5.71667 7.60359 3.95833 10.2119 3.95833Z" fill="#EA4335"/>
</svg>
