<svg width="24" height="24" viewBox="0 0 24 24" fill="none" xmlns="http://www.w3.org/2000/svg">
<path fill-rule="evenodd" clip-rule="evenodd" d="M11.2925 4.97182C11.5854 5.26471 11.5854 5.73959 11.2925 6.03248L8.28726 9.03768L9.34792 10.0983L12.3531 7.09314C12.646 6.80025 13.1209 6.80025 13.4138 7.09314C13.7067 7.38603 13.7067 7.86091 13.4138 8.1538L10.4086 11.159L11.4692 12.2197L14.4744 9.21446C14.7673 8.92157 15.2422 8.92157 15.5351 9.21446C15.828 9.50735 15.828 9.98223 15.5351 10.2751L12.5299 13.2803L13.5906 14.341L16.5958 11.3358C16.8887 11.0429 17.3635 11.0429 17.6564 11.3358C17.9493 11.6287 17.9493 12.1035 17.6564 12.3964L14.6512 15.4016L15.7119 16.4623L18.7171 13.4571C19.01 13.1642 19.4849 13.1642 19.7777 13.4571C20.0706 13.75 20.0706 14.2249 19.7777 14.5178L16.2422 18.0533C15.9493 18.3462 15.4744 18.3462 15.1816 18.0533L6.69627 9.56801C6.40338 9.27512 6.40338 8.80025 6.69627 8.50735L10.2318 4.97182C10.5247 4.67893 10.9996 4.67893 11.2925 4.97182Z" fill="currentColor"/>
<path fill-rule="evenodd" clip-rule="evenodd" d="M9.17114 2.8505C9.46404 3.14339 9.46404 3.61827 9.17114 3.91116L5.28206 7.80025C4.40338 8.67893 4.40338 10.1035 5.28206 10.9822L13.7673 19.4675C14.646 20.3462 16.0706 20.3462 16.9493 19.4675L20.8384 15.5784C21.1313 15.2855 21.6062 15.2855 21.8991 15.5784C22.192 15.8713 22.192 16.3462 21.8991 16.6391L18.01 20.5282C16.5455 21.9926 14.1711 21.9926 12.7067 20.5282L4.2214 12.0429C2.75693 10.5784 2.75693 8.20405 4.2214 6.73959L8.11048 2.8505C8.40338 2.55761 8.87825 2.55761 9.17114 2.8505Z" fill="currentColor"/>
</svg>
