<svg width="24" height="24" viewBox="0 0 24 24" fill="none" xmlns="http://www.w3.org/2000/svg">
<path fill-rule="evenodd" clip-rule="evenodd" d="M4.48985 18.4297C4.21867 19.1522 3.99437 19.8774 3.82142 20.5962C3.72452 20.9989 3.97244 21.4039 4.37516 21.5008C4.77788 21.5977 5.1829 21.3498 5.2798 20.9471C5.45971 20.1994 5.70213 19.4377 6.00262 18.6748C7.4612 14.9718 10.2556 11.3188 13.7481 9.13598C14.0993 8.91644 14.2061 8.45373 13.9866 8.10248C13.767 7.75123 13.3043 7.64445 12.9531 7.86398C9.68778 9.90479 7.02262 13.091 5.34726 16.462C5.28229 16.2572 5.21757 16.0366 5.15601 15.8028C4.79261 14.4224 4.55348 12.6323 4.97004 10.8728C5.37949 9.14323 6.43215 7.39378 8.75518 6.0562C10.8267 4.86341 13.939 3.98188 18.5528 3.78937C18.0554 4.58922 17.8342 5.54102 17.7256 6.49736C17.6332 7.31014 17.6156 8.18313 17.5985 9.03567L17.5972 9.09764C17.5793 9.98375 17.5599 10.8551 17.4672 11.6994C17.2821 13.3861 16.816 14.842 15.605 15.9001C14.3827 16.9681 12.2646 17.75 8.50001 17.75C8.08579 17.75 7.75001 18.0858 7.75001 18.5C7.75001 18.9142 8.08579 19.25 8.50001 19.25C12.4354 19.25 14.9799 18.4382 16.592 17.0296C18.2155 15.6111 18.7558 13.7076 18.9583 11.8631C19.0594 10.9418 19.0792 10.0045 19.0969 9.12794L19.0974 9.10324C19.1152 8.2222 19.1316 7.4093 19.216 6.66669C19.3869 5.1627 19.8094 4.18409 20.836 3.67082C21.1471 3.51526 21.3104 3.16621 21.2305 2.82769C21.1506 2.48916 20.8484 2.25 20.5005 2.25C14.6547 2.25 10.6709 3.22228 8.0067 4.75628C5.31491 6.30619 4.01238 8.40673 3.51039 10.5272C3.01549 12.6176 3.30866 14.6775 3.70543 16.1846C3.90517 16.9434 4.13482 17.5757 4.31541 18.0204C4.3811 18.1822 4.44049 18.3196 4.48985 18.4297Z" fill="currentColor"/>
</svg>
