<svg width="140" height="40" viewBox="0 0 140 40" fill="none" xmlns="http://www.w3.org/2000/svg">
<path d="M4.68818 11.1505C5.23856 11.1708 5.80933 11.2316 6.35971 11.2924C6.52278 11.3127 6.66547 11.2316 6.72663 11.0694C7.4197 9.28535 8.45931 7.704 9.82507 6.34567C12.4139 3.75063 15.8792 2.33148 19.5688 2.33148C23.2584 2.33148 26.7238 3.75063 29.333 6.34567C31.5141 8.51495 32.8391 11.2114 33.2672 14.3335C29.2311 14.8403 25.7046 16.2595 22.443 18.6721C19.9561 15.0634 16.7762 12.4278 12.74 10.6437L12.8216 10.5423C14.2281 8.83933 16.2054 7.74455 18.3865 7.44045C18.7738 7.37963 19.1815 7.35935 19.5688 7.35935C21.3627 7.35935 23.075 7.90674 24.563 8.92043C25.888 9.83274 26.9072 11.0897 27.5595 12.5494C27.6411 12.7116 27.8245 12.7927 27.9876 12.7319C28.4972 12.5697 29.0272 12.4075 29.5572 12.2656C29.6591 12.2453 29.7407 12.1642 29.7815 12.0831C29.8222 12.002 29.8222 11.8804 29.7815 11.7993C28.0692 7.76483 23.9719 5.04815 19.5688 5.04815C15.2269 5.04815 11.252 7.60264 9.47853 11.5357C9.43776 11.6168 9.43776 11.7385 9.47853 11.8196C9.5193 11.9007 9.60084 11.9818 9.70276 12.002C14.7989 13.5631 19.1408 17.1313 21.6481 21.8348C21.6888 21.9361 21.7907 21.997 21.8927 22.0172C21.913 22.0172 21.9334 22.0172 21.9538 22.0172C22.0354 22.0172 22.1169 21.9767 22.1984 21.9159C25.7861 18.5707 30.4745 16.6447 35.3872 16.4825C35.5706 16.4825 35.7133 16.3203 35.7133 16.1379C35.7337 11.8804 34.103 7.86619 31.1064 4.80487C28.0692 1.70299 23.9719 0 19.5688 0C12.74 0 6.64509 4.29802 4.36203 10.6842C4.32126 10.7856 4.34165 10.9072 4.4028 10.9883C4.46395 11.0897 4.56588 11.1303 4.68818 11.1505Z" fill="#12100B"/>
<path d="M38.9341 19.6655C38.9137 19.5236 38.7914 19.4019 38.6487 19.3816C37.7925 19.26 36.916 19.1992 36.0599 19.1992C29.8834 19.1992 24.2573 22.3213 21.0365 27.5722L20.8938 27.7952L20.8327 27.5519C19.1204 19.6047 11.945 13.8469 3.77088 13.8469C2.6905 13.8469 1.58974 13.9483 0.488979 14.151C0.346288 14.1713 0.223981 14.2929 0.203596 14.4349C-0.530244 19.1789 0.652054 23.8621 3.52626 27.633C6.38009 31.3634 10.722 33.8368 15.4104 34.4044C15.5939 34.4247 15.7569 34.3031 15.7977 34.1409C16.6131 30.7755 15.9608 27.2073 14.0243 24.3487C12.1285 21.5307 9.09122 19.6047 5.7074 19.037C5.60548 19.0167 5.48317 19.0573 5.40163 19.1384C5.3201 19.2195 5.27933 19.3411 5.29971 19.4425C5.42202 20.0709 5.58509 20.6386 5.78894 21.2468C5.82971 21.3482 5.91124 21.4496 6.03355 21.4698C10.722 22.5849 13.9835 26.8626 13.7796 31.627V31.7486C6.64508 29.9037 1.95666 23.5377 2.34396 16.2189C2.79242 16.1784 3.24088 16.1581 3.66895 16.1581C8.17392 16.1581 12.4139 18.0841 15.2881 21.4698C18.1623 24.8353 19.4058 29.2955 18.6719 33.6949C18.3254 35.7831 18.3254 37.5874 18.6311 39.554C18.6515 39.6959 18.7738 39.8175 18.9165 39.8378C19.5077 39.9189 20.0581 39.9797 20.6492 40H20.6696C20.7715 40 20.8734 39.9594 20.9346 39.8783C20.9957 39.7972 21.0365 39.6959 21.0161 39.5945C20.1804 35.1546 21.3219 30.6133 24.135 27.1465C27.0499 23.558 31.4326 21.5104 36.1414 21.5104C36.3452 21.5104 36.5695 21.5104 36.7733 21.5307C37.1606 28.7481 32.778 34.9924 25.8065 37.1008V36.9589C25.7046 32.4176 28.6807 28.3021 33.0633 26.9843C33.1653 26.9437 33.2468 26.8829 33.2876 26.7815C33.5118 26.1531 33.6749 25.5651 33.8176 24.9164C33.838 24.7947 33.7972 24.6933 33.7156 24.6123C33.6341 24.5312 33.5118 24.4906 33.3895 24.5312C30.128 25.2407 27.2334 27.2478 25.4396 30.0253C23.605 32.8636 23.0138 36.2494 23.7884 39.5742C23.8292 39.7567 23.9923 39.8581 24.1757 39.8378C28.7826 39.1282 33.0022 36.5535 35.7337 32.8231C38.5671 29.0116 39.6883 24.3487 38.9341 19.6655Z" fill="#12100B"/>
<path d="M58.6865 17.9625V4.82515C58.6865 4.62241 58.5235 4.46022 58.3196 4.46022H56.5054C56.2812 4.46022 56.1385 4.64269 56.1385 4.82515V12.8941H56.1181L48.0051 4.31831C47.9643 4.27776 47.9031 4.23721 47.8216 4.23721H47.4343C47.2305 4.23721 47.0674 4.3994 47.0674 4.60214V17.7395C47.0674 17.9422 47.2305 18.1044 47.4343 18.1044H49.2281C49.4524 18.1044 49.5951 17.922 49.5951 17.7395V9.36646H49.6154L57.7692 18.2666C57.81 18.3072 57.8711 18.3477 57.9527 18.3477H58.3196C58.5031 18.3477 58.6865 18.1652 58.6865 17.9625Z" fill="#12100B"/>
<path d="M82.2509 35.1749V23.3959C82.2509 23.2134 82.1082 23.0715 81.9248 23.0715H80.294C80.0902 23.0715 79.9679 23.2337 79.9679 23.3959V30.6336H79.9475L72.6702 22.9499C72.6295 22.9093 72.5683 22.889 72.5072 22.889H72.1606C71.9772 22.889 71.8345 23.031 71.8345 23.2134V34.9924C71.8345 35.1749 71.9772 35.3168 72.1606 35.3168H73.771C73.9748 35.3168 74.0972 35.1546 74.0972 34.9924V27.4506H74.1175L81.4152 35.4182C81.4559 35.4587 81.5171 35.4993 81.5783 35.4993H81.9044C82.0879 35.5196 82.2509 35.3574 82.2509 35.1749Z" fill="#12100B"/>
<path d="M128.422 35.1749V23.3959C128.422 23.2134 128.279 23.0715 128.096 23.0715H126.465C126.261 23.0715 126.139 23.2337 126.139 23.3959V30.6336H126.118L118.841 22.9701C118.8 22.9296 118.739 22.9093 118.678 22.9093H118.332C118.148 22.9093 118.005 23.0512 118.005 23.2337V35.0127C118.005 35.1952 118.148 35.3371 118.332 35.3371H119.942C120.146 35.3371 120.268 35.1749 120.268 35.0127V27.4709H120.288L127.586 35.4385C127.627 35.479 127.688 35.5195 127.749 35.5195H128.075C128.279 35.5195 128.422 35.3574 128.422 35.1749Z" fill="#12100B"/>
<path d="M85.7978 6.42675V4.82513C85.7978 4.62239 85.6348 4.46021 85.4309 4.46021H76.156C75.9318 4.46021 75.7891 4.64267 75.7891 4.82513V6.42675C75.7891 6.62949 75.9521 6.79168 76.156 6.79168H79.499V17.7597C79.499 17.9625 79.6825 18.1247 79.866 18.1247H81.7006C81.9044 18.1247 82.0675 17.9422 82.0675 17.7597V6.81195H85.4105C85.6348 6.81195 85.7978 6.62949 85.7978 6.42675Z" fill="#12100B"/>
<path d="M100.312 12.9549V4.82513C100.312 4.62239 100.128 4.46021 99.9448 4.46021H98.0694C97.8452 4.46021 97.7025 4.64267 97.7025 4.82513V12.8332C97.7025 14.4754 96.5406 15.7932 94.8283 15.7932C93.116 15.7932 91.9744 14.4754 91.9744 12.813V4.82513C91.9744 4.62239 91.8114 4.46021 91.6075 4.46021H89.7322C89.5283 4.46021 89.3652 4.64267 89.3652 4.82513V12.9549C89.3652 15.9351 91.7502 18.3274 94.8283 18.3274C97.9471 18.3477 100.312 15.9351 100.312 12.9549Z" fill="#12100B"/>
<path d="M128.055 4.46021H120.044C119.82 4.46021 119.677 4.64267 119.677 4.82513V17.78C119.677 17.9828 119.84 18.1449 120.044 18.1449H128.055C128.279 18.1449 128.422 17.9625 128.422 17.78V16.1784C128.422 15.9757 128.259 15.8135 128.055 15.8135H122.225V12.3872H127.077C127.281 12.3872 127.444 12.225 127.444 12.0223V10.4004C127.444 10.1977 127.26 10.0355 127.077 10.0355H122.225V6.81195H128.055C128.279 6.81195 128.422 6.62949 128.422 6.44703V4.84541C128.422 4.64267 128.259 4.46021 128.055 4.46021Z" fill="#12100B"/>
<path d="M140.041 16.2393H132.947C132.723 16.2393 132.581 16.3609 132.581 16.5231V17.8612C132.581 18.0031 132.744 18.145 132.947 18.145H140.041C140.266 18.145 140.408 18.0233 140.408 17.8612V16.5231C140.408 16.3609 140.266 16.2393 140.041 16.2393Z" fill="#12100B"/>
<path d="M51.2668 28.0791C49.8399 27.4912 49.1875 26.9438 49.1875 26.1126C49.1875 25.5449 49.7379 24.8759 50.7368 24.8759C51.7152 24.8759 53.0402 25.7476 53.1829 25.849C53.3868 25.9909 53.6518 25.849 53.7944 25.6463L54.4671 24.6528C54.5894 24.4704 54.5283 24.1866 54.3652 24.0649C54.0187 23.8014 52.6325 22.889 50.8387 22.889C48.0256 22.889 46.8637 24.6934 46.8637 26.2545C46.8637 28.3224 48.5149 29.3766 50.1864 30.0457C51.6745 30.6336 52.4287 31.2621 52.4287 32.1541C52.4287 32.9042 51.7356 33.5125 50.8183 33.5125C49.6768 33.5125 48.2499 32.4785 48.1479 32.4177C47.9849 32.296 47.6995 32.296 47.5568 32.5393L46.9249 33.6341C46.7618 33.9179 46.8637 33.999 47.0064 34.1612C47.3529 34.4856 48.6576 35.5196 50.8795 35.5196C53.3664 35.5196 54.936 33.8571 54.936 32.0528C54.9564 29.7821 52.9791 28.7684 51.2668 28.0791Z" fill="#12100B"/>
<path d="M67.4722 23.0715H65.8007C65.5968 23.0715 65.4745 23.2337 65.4745 23.3959V30.593C65.4745 32.073 64.4349 33.2489 62.9061 33.2489C61.3772 33.2489 60.358 32.073 60.358 30.593V23.4162C60.358 23.2337 60.2153 23.0918 60.0319 23.0918H58.3603C58.1769 23.0918 58.0342 23.254 58.0342 23.4162V30.7147C58.0342 33.3705 60.1745 35.5398 62.9265 35.5398C65.7191 35.5398 67.8391 33.3908 67.8391 30.7147V23.4162C67.7983 23.2337 67.6557 23.0715 67.4722 23.0715Z" fill="#12100B"/>
<path d="M90.0993 28.0791C88.6724 27.4912 88.0201 26.9438 88.0201 26.1126C88.0201 25.5449 88.5704 24.8759 89.5693 24.8759C90.5477 24.8759 91.8727 25.7476 92.0154 25.849C92.2193 25.9909 92.4843 25.849 92.6269 25.6463L93.2996 24.6528C93.4219 24.4704 93.3608 24.1866 93.1977 24.0649C92.8512 23.8014 91.465 22.889 89.6712 22.889C86.8581 22.889 85.6962 24.6934 85.6962 26.2545C85.6962 28.3224 87.3474 29.3766 89.0189 30.0457C90.507 30.6336 91.2612 31.2621 91.2612 32.1541C91.2612 32.9042 90.5681 33.5125 89.6508 33.5125C88.5093 33.5125 87.0824 32.4785 86.9805 32.4177C86.8174 32.296 86.532 32.296 86.3893 32.5393L85.7574 33.6341C85.5943 33.9179 85.6962 33.999 85.8389 34.1612C86.1855 34.4856 87.4901 35.5196 89.712 35.5196C92.1989 35.5196 93.7685 33.8571 93.7685 32.0528C93.7889 29.7821 91.8116 28.7684 90.0993 28.0791Z" fill="#12100B"/>
<path d="M107.079 23.0715H105.448C105.245 23.0715 105.122 23.2337 105.122 23.3959V28.0386V28.9914C103.716 27.9372 101.861 27.6331 99.5981 27.6331C99.5166 27.6331 99.4554 27.6331 99.3739 27.6331V23.3959C99.3739 23.2134 99.2312 23.0715 99.0477 23.0715H97.417C97.2335 23.0715 97.0908 23.2134 97.0908 23.3959V35.0127C97.0908 35.1952 97.2335 35.3371 97.417 35.3371H99.0477C99.2516 35.3371 99.3739 35.1749 99.3739 35.0127V30.1673V29.701C101.922 29.6807 103.716 30.0457 104.796 31.4243C105.02 31.7081 105.122 32.073 105.122 32.4379V35.0127C105.122 35.1952 105.265 35.3371 105.448 35.3371H107.079C107.263 35.3371 107.405 35.1952 107.405 35.0127V23.3959C107.426 23.2134 107.263 23.0715 107.079 23.0715Z" fill="#12100B"/>
<path d="M113.541 23.0715H111.911C111.727 23.0715 111.584 23.2337 111.584 23.3959V35.0127C111.584 35.1952 111.748 35.3371 111.911 35.3371H113.541C113.725 35.3371 113.868 35.1749 113.868 35.0127V23.3959C113.888 23.2337 113.725 23.0715 113.541 23.0715Z" fill="#12100B"/>
<path d="M140.082 23.0715H132.907C132.703 23.0715 132.581 23.2337 132.581 23.3959V35.0127C132.581 35.1952 132.723 35.3371 132.907 35.3371H140.082C140.286 35.3371 140.408 35.1749 140.408 35.0127V33.5733C140.408 33.3908 140.266 33.2489 140.082 33.2489H134.864V30.1876H139.226C139.409 30.1876 139.552 30.0457 139.552 29.8632V28.3832C139.552 28.2007 139.389 28.0588 139.226 28.0588H134.864V25.18H140.082C140.286 25.18 140.408 25.0178 140.408 24.8556V23.4162C140.408 23.2337 140.286 23.0715 140.082 23.0715Z" fill="#12100B"/>
<path d="M72.3034 17.8409C72.4257 18.0436 72.5684 18.145 72.813 18.145H74.5253C74.8107 18.145 74.9737 17.8814 74.8514 17.6381L68.7972 4.48052C68.7361 4.35888 68.6545 4.25751 68.4711 4.25751H68.2672C68.0838 4.25751 68.0022 4.35888 67.9411 4.48052L61.8258 17.6381C61.7034 17.9017 61.8665 18.145 62.1519 18.145H63.8642C64.17 18.145 64.3534 17.9423 64.435 17.7598L65.393 15.6513L65.658 15.0634C65.9842 15.0228 66.3307 15.0026 66.6773 15.0026C69.4292 14.9823 71.3045 16.1176 72.3034 17.8409ZM66.5753 12.9752L68.2876 9.16374H68.3488L70.3057 13.4618L70.3668 13.5834C69.3069 13.1779 68.1042 12.9549 66.7588 12.9549C66.6976 12.9752 66.6365 12.9752 66.5753 12.9752Z" fill="#12100B"/>
<path d="M104.776 4.82513C104.776 4.62239 104.939 4.46021 105.143 4.46021H110.769C113.134 4.46021 115.05 6.34566 115.05 8.65686C115.05 10.4612 113.847 11.9209 112.135 12.6102L114.825 17.5773C114.968 17.8408 114.825 18.1449 114.499 18.1449H112.44C112.257 18.1449 112.155 18.0436 112.135 17.9625L109.525 12.7724H107.344V17.7597C107.344 17.9625 107.161 18.1247 106.977 18.1247H105.163C104.939 18.1247 104.796 17.9422 104.796 17.7597V4.82513H104.776ZM110.565 10.7045C111.605 10.7045 112.502 9.81246 112.502 8.71768C112.502 7.68372 111.605 6.81195 110.565 6.81195H107.365V10.7045H110.565Z" fill="#12100B"/>
<path d="M132.621 13.2387L133.171 12.2656C133.273 12.0628 133.559 11.9817 133.824 12.1439C133.824 12.1439 134.986 12.7927 136.27 12.7927C137.065 12.7927 137.554 12.4886 137.554 11.9412C137.554 11.2722 136.983 10.9275 135.536 10.3193C133.905 9.65027 132.54 8.69741 132.54 7.03496C132.54 5.77799 133.62 4.27774 136.148 4.27774C137.615 4.27774 138.716 4.72376 139.246 5.04814C139.491 5.19006 139.613 5.53471 139.45 5.77799L138.981 6.62949C138.859 6.8525 138.512 6.93359 138.288 6.83223C138.288 6.83223 137.126 6.30511 136.127 6.30511C135.23 6.30511 134.945 6.69031 134.945 7.05524C134.945 7.70399 135.597 7.98783 136.637 8.41357C138.553 9.22452 140.143 9.99492 140.143 11.8804C140.143 13.4415 138.594 14.8201 136.25 14.8201C134.496 14.8201 133.335 14.2119 132.784 13.7861C132.621 13.6645 132.519 13.4415 132.621 13.2387Z" fill="#12100B"/>
</svg>
