<svg width="20" height="12" viewBox="0 0 20 12" fill="none" xmlns="http://www.w3.org/2000/svg">
<g clip-path="url(#clip0_1477_19247)">
<path d="M12.3296 10.7181H7.07715V1.28125H12.3296V10.7181Z" fill="#FF5F00"/>
<path d="M7.41504 6.00417C7.41504 4.0867 8.31311 2.38767 9.70874 1.2833C8.68932 0.48233 7.40291 -0.00311089 5.99514 -0.00311089C2.68203 -0.00311089 0 2.67893 0 5.99204C0 9.30514 2.68203 11.9872 5.99514 11.9872C7.39077 11.9872 8.67718 11.5017 9.70874 10.7008C8.31311 9.62068 7.41504 7.90951 7.41504 6.00417Z" fill="#EB001B"/>
<path d="M19.4104 6.00376C19.4104 9.31686 16.7284 11.9989 13.4152 11.9989C12.0196 11.9989 10.7332 11.5135 9.70166 10.7125C11.0973 9.60812 11.9953 7.9091 11.9953 5.99162C11.9953 4.07415 11.0973 2.37511 9.70166 1.27074C10.7211 0.469774 12.0075 -0.0156603 13.4152 -0.0156603C16.7284 -0.00352383 19.4104 2.69065 19.4104 6.00376Z" fill="#F79E1B"/>
</g>
<defs>
<clipPath id="clip0_1477_19247">
<rect width="19.4078" height="12" fill="white"/>
</clipPath>
</defs>
</svg>
