<svg width="24" height="24" viewBox="0 0 24 24" fill="none" xmlns="http://www.w3.org/2000/svg">
<path d="M20.7628 14.0617L21.493 14.2328C21.5602 13.946 21.4533 13.6465 21.2198 13.467C20.9863 13.2875 20.6693 13.2613 20.4095 13.4001L20.7628 14.0617ZM9.93835 3.23725L10.5999 3.59051C10.7387 3.3307 10.7125 3.01373 10.533 2.78021C10.3535 2.54668 10.054 2.43982 9.76722 2.50703L9.93835 3.23725ZM20.4095 13.4001C19.394 13.9423 18.234 14.25 17 14.25V15.75C18.4865 15.75 19.8884 15.3787 21.116 14.7233L20.4095 13.4001ZM17 14.25C12.9959 14.25 9.75 11.0041 9.75 7.00001H8.25C8.25 11.8325 12.1675 15.75 17 15.75V14.25ZM9.75 7.00001C9.75 5.76597 10.0577 4.60603 10.5999 3.59051L9.27676 2.88398C8.62127 4.11158 8.25 5.51355 8.25 7.00001H9.75ZM3.75 12C3.75 8.09489 6.46398 4.82184 10.1095 3.96746L9.76722 2.50703C5.45878 3.51678 2.25 7.38276 2.25 12H3.75ZM12 20.25C7.44365 20.25 3.75 16.5564 3.75 12H2.25C2.25 17.3848 6.61522 21.75 12 21.75V20.25ZM20.0326 13.8905C19.1782 17.536 15.9051 20.25 12 20.25V21.75C16.6173 21.75 20.4832 18.5412 21.493 14.2328L20.0326 13.8905Z" fill="#202020"/>
</svg>
