<svg width="14" height="17" viewBox="0 0 14 17" fill="none" xmlns="http://www.w3.org/2000/svg">
<path fill-rule="evenodd" clip-rule="evenodd" d="M11.5883 1.21264C10.8442 0.363646 9.50032 0 7.7804 0H2.78912C2.4379 0 2.13858 0.255832 2.08376 0.603763L0.00530712 13.8003C-0.00441375 13.8615 -0.000749907 13.9241 0.0160459 13.9837C0.0328417 14.0434 0.0623702 14.0987 0.102597 14.1458C0.142824 14.193 0.192792 14.2308 0.24906 14.2568C0.305327 14.2828 0.366555 14.2962 0.428526 14.2962H3.5102L3.2975 15.6467C3.28899 15.7002 3.2922 15.755 3.30689 15.8072C3.32158 15.8594 3.3474 15.9078 3.38259 15.949C3.41777 15.9903 3.46148 16.0235 3.5107 16.0462C3.55993 16.069 3.61349 16.0808 3.66772 16.0808H6.26514C6.41402 16.0807 6.55797 16.0275 6.67107 15.9306C6.78417 15.8338 6.85899 15.6998 6.88206 15.5527L6.90765 15.4204L7.39665 12.3139L7.42845 12.1421C7.45152 11.9951 7.52634 11.861 7.63944 11.7642C7.75254 11.6674 7.89649 11.6141 8.04537 11.614H8.43386C10.9502 11.614 12.9204 10.5907 13.4964 7.63036C13.7365 6.39323 13.6126 5.36077 12.9763 4.63457C12.7837 4.41529 12.5447 4.23365 12.2655 4.08527C12.461 2.83461 12.264 1.98379 11.5883 1.21264Z" fill="#009CDE"/>
<path fill-rule="evenodd" clip-rule="evenodd" d="M11.5883 1.21264C10.8442 0.363646 9.50032 0 7.7804 0H2.78912C2.4379 0 2.13858 0.255832 2.08376 0.603763L0.00530712 13.8003C-0.00441375 13.8615 -0.000749907 13.9241 0.0160459 13.9837C0.0328417 14.0434 0.0623702 14.0987 0.102597 14.1458C0.142824 14.193 0.192792 14.2308 0.24906 14.2568C0.305327 14.2828 0.366555 14.2962 0.428526 14.2962H3.5102L4.28354 9.38171L4.25979 9.53594C4.28554 9.36796 4.37055 9.21474 4.49946 9.104C4.62837 8.99326 4.79265 8.93231 4.96259 8.93218H6.42705C9.30333 8.93218 11.5557 7.7623 12.214 4.37838C12.2327 4.28097 12.2497 4.18325 12.2651 4.08527C12.4607 2.83462 12.2637 1.98379 11.5879 1.21264H11.5883Z" fill="#012169"/>
<path fill-rule="evenodd" clip-rule="evenodd" d="M5.46293 3.63537C5.54516 3.5959 5.63653 3.57397 5.73301 3.57397H9.64504C10.1085 3.57397 10.5405 3.6043 10.9359 3.66826C11.0488 3.68653 11.1588 3.70737 11.2656 3.73076C11.4203 3.76537 11.5732 3.80744 11.7239 3.85685C11.9102 3.9179 12.0911 3.9943 12.2648 4.08527C12.4607 2.83462 12.2637 1.98379 11.5879 1.21264C10.8442 0.363646 9.50032 0 7.7804 0H2.78912C2.4379 0 2.13858 0.255832 2.08376 0.603763L0.00530712 13.8003C-0.00441375 13.8615 -0.000749907 13.9241 0.0160459 13.9837C0.0328417 14.0434 0.0623702 14.0987 0.102597 14.1458C0.142824 14.193 0.192792 14.2308 0.24906 14.2568C0.305327 14.2828 0.366555 14.2962 0.428526 14.2962H3.5102L5.11573 4.10171C5.14862 3.89266 5.28275 3.72162 5.46293 3.635V3.63537Z" fill="#003087"/>
</svg>
