<svg width="21" height="20" viewBox="0 0 21 20" fill="none" xmlns="http://www.w3.org/2000/svg">
<g clip-path="url(#clip0_2815_46098)">
<path d="M11.0285 16.0191C7.70617 16.0191 6.18822 14.3266 6.18822 13.0853C6.18777 12.7891 6.30931 12.5059 6.52425 12.3022C6.73918 12.0985 7.02852 11.9923 7.32421 12.0086C8.74667 12.0086 8.37459 14.1422 11.0285 14.1422C12.3851 14.1422 13.182 13.3257 13.182 12.5584C13.182 12.0975 12.9185 11.5706 12.0229 11.3599L9.05947 10.6125C6.67884 10.0066 6.26396 8.68292 6.26396 7.45473C6.26396 4.90617 8.5952 3.98421 10.8145 3.98421C12.8593 3.98421 15.2893 5.11361 15.2893 6.64143C15.2893 7.29997 14.7394 7.6523 14.1006 7.6523C12.8856 7.6523 13.0898 5.94667 10.6466 5.94667C9.43155 5.94667 8.79277 6.51631 8.79277 7.31314C8.79277 8.10998 9.73778 8.37999 10.5675 8.56109L12.7539 9.05499C15.151 9.595 15.7898 11.001 15.7898 12.3477C15.7898 14.4188 14.1862 16.0191 11.0252 16.0191H11.0285ZM20.202 11.6365C20.297 11.0929 20.3443 10.542 20.3436 9.99013C20.3552 7.21803 19.1372 4.58344 17.0179 2.79654C14.8985 1.00964 12.096 0.254362 9.3657 0.73429C8.52651 0.251127 7.57473 -0.00215041 6.6064 1.37534e-05C4.61878 0.0121557 2.78667 1.07742 1.79287 2.79879C0.799066 4.52016 0.792637 6.63944 1.77598 8.36682C1.22728 11.3817 2.18844 14.4744 4.34941 16.6472C6.51039 18.82 9.59774 19.798 12.6156 19.2657C13.4538 19.7485 14.4044 20.0017 15.3716 20C17.3582 19.9872 19.1892 18.9224 20.1828 17.2021C21.1764 15.4817 21.1837 13.3636 20.202 11.6365Z" fill="#0078D7"/>
</g>
<defs>
<clipPath id="clip0_2815_46098">
<rect width="20" height="20" fill="white" transform="translate(0.988281)"/>
</clipPath>
</defs>
</svg>
