<svg width="24" height="24" viewBox="0 0 24 24" fill="none" xmlns="http://www.w3.org/2000/svg">
<path fill-rule="evenodd" clip-rule="evenodd" d="M12 3.75C7.44365 3.75 3.75 7.44365 3.75 12C3.75 16.5563 7.44365 20.25 12 20.25C16.5563 20.25 20.25 16.5563 20.25 12C20.25 7.44365 16.5563 3.75 12 3.75ZM2.25 12C2.25 6.61522 6.61522 2.25 12 2.25C17.3848 2.25 21.75 6.61522 21.75 12C21.75 17.3848 17.3848 21.75 12 21.75C6.61522 21.75 2.25 17.3848 2.25 12Z" fill="#00A88F"/>
<path fill-rule="evenodd" clip-rule="evenodd" d="M7.22709 15.2162C7.51999 14.9233 7.99486 14.9233 8.28775 15.2162C8.77526 15.7037 9.35402 16.0904 9.99098 16.3543C10.6279 16.6181 11.3106 16.7539 12.0001 16.7539C12.6895 16.7539 13.3722 16.6181 14.0092 16.3543C14.6461 16.0904 15.2249 15.7037 15.7124 15.2162C16.0053 14.9233 16.4801 14.9233 16.773 15.2162C17.0659 15.5091 17.0659 15.984 16.773 16.2769C16.1462 16.9037 15.4021 17.4009 14.5832 17.7401C13.7642 18.0793 12.8865 18.2539 12.0001 18.2539C11.1136 18.2539 10.2359 18.0793 9.41695 17.7401C8.598 17.4009 7.85389 16.9037 7.22709 16.2769C6.9342 15.984 6.9342 15.5091 7.22709 15.2162Z" fill="#00A88F"/>
</svg>
