<svg width="24" height="24" viewBox="0 0 24 24" fill="none" xmlns="http://www.w3.org/2000/svg">
<path fill-rule="evenodd" clip-rule="evenodd" d="M13.1407 6.24999H11.0383C10.9994 6.24999 10.9884 6.24997 10.9803 6.24984C10.3049 6.23953 9.75985 5.69449 9.74954 5.01907C9.74942 5.01097 9.7494 4.99998 9.7494 4.96112L9.7494 4.95214C9.7494 4.9225 9.74941 4.89459 9.74894 4.87414C9.71412 3.3538 7.89027 2.59834 6.79061 3.64876C6.77581 3.6629 6.75608 3.68263 6.73511 3.70361L4.97121 5.46752C4.19895 6.23977 3.58694 6.85177 3.13395 7.38536C2.67073 7.93102 2.32989 8.44384 2.13873 9.03216C1.82876 9.98617 1.82876 11.0138 2.13873 11.9678C2.32989 12.5561 2.67073 13.069 3.13395 13.6146C3.58694 14.1482 4.19895 14.7602 4.97123 15.5325L8.72072 19.282C9.98082 20.5421 11.6899 21.25 13.4719 21.25H18.8359C20.9973 21.25 22.7494 19.4979 22.7494 17.3365C22.7494 15.6184 21.6289 14.1013 19.9868 13.596L17.2601 12.757C16.5607 12.5419 16.028 11.9719 15.8604 11.2596L14.2295 4.32821C14.1346 3.92501 13.7308 3.67506 13.3276 3.76993C12.9244 3.8648 12.6745 4.26857 12.7693 4.67177L13.1407 6.24999ZM8.24931 4.90761C8.24366 4.691 7.9836 4.58357 7.82671 4.73343L7.81987 4.74022L6.05521 6.50484C5.25443 7.30562 4.68614 7.87473 4.27746 8.35613C3.87447 8.83084 3.67091 9.17069 3.56532 9.49569C3.35323 10.1484 3.35323 10.8516 3.56532 11.5043C3.67091 11.8293 3.87447 12.1691 4.27746 12.6438C4.68614 13.1253 5.25442 13.6944 6.0552 14.4951L9.78138 18.2213C10.7602 19.2001 12.0877 19.75 13.4719 19.75H18.8359C20.1688 19.75 21.2494 18.6694 21.2494 17.3365C21.2494 16.2769 20.5584 15.3413 19.5457 15.0297L16.819 14.1907C16.3871 14.0578 15.9921 13.8467 15.6494 13.574L13.7369 14.2115C13.3439 14.3425 12.9192 14.1301 12.7882 13.7372C12.6572 13.3442 12.8696 12.9195 13.2625 12.7885L14.6543 12.3246C14.5452 12.0965 14.4595 11.855 14.4003 11.6032L14.1148 10.39L11.2057 11.2212C10.8075 11.3349 10.3924 11.1043 10.2786 10.7061C10.1648 10.3078 10.3954 9.89266 10.7937 9.77887L13.7709 8.92824L13.4936 7.74999H11.0326C11.0021 7.74999 10.9786 7.74999 10.9574 7.74967C9.47149 7.72699 8.2724 6.52789 8.24972 5.04196C8.24939 5.02083 8.24939 4.99732 8.2494 4.9668L8.24937 4.91812L8.24931 4.90761Z" fill="currentColor"/>
</svg>
