<svg width="24" height="24" viewBox="0 0 24 24" fill="none" xmlns="http://www.w3.org/2000/svg">
<path d="M7 14.25C7.41421 14.25 7.75 14.5858 7.75 15V19.25H16.25V15C16.25 14.5858 16.5858 14.25 17 14.25C17.4142 14.25 17.75 14.5858 17.75 15V19.25H20C20.4142 19.25 20.75 19.5858 20.75 20C20.75 20.4142 20.4142 20.75 20 20.75H4C3.58579 20.75 3.25 20.4142 3.25 20C3.25 19.5858 3.58579 19.25 4 19.25H6.25V15C6.25 14.5858 6.58579 14.25 7 14.25Z" fill="#00A88F"/>
<path fill-rule="evenodd" clip-rule="evenodd" d="M8.71257 3.24993C8.74524 3.24995 8.77831 3.24998 8.81181 3.24998H15.1882C15.2217 3.24998 15.2548 3.24995 15.2874 3.24993C15.8508 3.2495 16.2935 3.24916 16.7042 3.38032C17.0654 3.49566 17.3988 3.68444 17.6835 3.9348C18.0073 4.2195 18.2348 4.59931 18.5243 5.08259C18.5411 5.11062 18.5581 5.13899 18.5753 5.16772L20.1901 7.85902C20.2142 7.89923 20.2305 7.92631 20.2463 7.9537C20.566 8.50655 20.7392 9.13188 20.7495 9.77042C20.75 9.80075 20.75 9.83103 20.75 9.87477V9.99998C20.75 11.5188 19.5188 12.75 18 12.75L17.9815 12.75C17.1979 12.7472 16.4914 12.4168 15.992 11.8884C15.4915 12.4189 14.7819 12.75 13.995 12.75C13.2081 12.75 12.4985 12.4189 11.998 11.8884C11.4975 12.418 10.7888 12.7488 10.0031 12.75L9.995 12.75C9.20809 12.75 8.49852 12.4189 7.99801 11.8884C7.49748 12.418 6.78878 12.7488 6.00305 12.75L5.995 12.75C4.47898 12.75 3.25 11.521 3.25 10.005L3.25 9.87487C3.25 9.83108 3.25 9.80077 3.25049 9.77042C3.26079 9.13188 3.434 8.50655 3.75369 7.9537C3.76889 7.92743 3.78448 7.90144 3.80702 7.86387L5.42471 5.16772C5.44195 5.139 5.45894 5.11062 5.47573 5.0826C5.76519 4.59931 5.99268 4.2195 6.31646 3.9348C6.60119 3.68444 6.93462 3.49566 7.29579 3.38032C7.7065 3.24916 8.14923 3.2495 8.71257 3.24993ZM11.25 9.74998L11.25 9.74664C11.2518 9.33308 11.5881 8.99906 12.0017 8.99998C12.4152 9.0009 12.75 9.33641 12.75 9.74998V10.005C12.75 10.6926 13.3074 11.25 13.995 11.25C14.6826 11.25 15.24 10.6926 15.24 10.005V9.74998C15.24 9.33641 15.5748 9.0009 15.9883 8.99998C16.4019 8.99906 16.7382 9.33308 16.74 9.74664L16.74 9.74998L16.7412 10.0099C16.7466 10.6947 17.302 11.2476 17.9868 11.25L18 11.25C18.6904 11.25 19.25 10.6903 19.25 9.99998V9.88055C19.25 9.82901 19.25 9.81139 19.2497 9.79463C19.2435 9.4115 19.1396 9.0363 18.9478 8.70459C18.9394 8.69008 18.9303 8.67496 18.9038 8.63076L17.289 5.93946C16.9236 5.33043 16.8185 5.17157 16.693 5.06126C16.5636 4.94746 16.4121 4.86165 16.2479 4.80922C16.0888 4.7584 15.8984 4.74998 15.1882 4.74998H8.81181C8.10157 4.74998 7.91125 4.7584 7.75211 4.80922C7.58794 4.86165 7.43639 4.94746 7.30696 5.06126C7.18151 5.17157 7.07637 5.33043 6.71095 5.93946L5.09617 8.63076C5.06965 8.67496 5.06061 8.69008 5.05221 8.70459C4.8604 9.0363 4.75648 9.4115 4.75029 9.79463C4.75002 9.81139 4.75 9.82901 4.75 9.88055V10.005C4.75 10.6926 5.30741 11.25 5.995 11.25L6.00077 11.25C6.68747 11.2489 7.24475 10.6941 7.24885 10.0074L7.25001 9.74664C7.25185 9.33308 7.5881 8.99906 8.00167 8.99998C8.41523 9.0009 8.75 9.33641 8.75 9.74998V10.005C8.75 10.6926 9.30741 11.25 9.995 11.25L10.0008 11.25C10.6875 11.2489 11.2448 10.6941 11.2488 10.0074L11.25 9.74998Z" fill="#00A88F"/>
</svg>
