<svg width="21" height="20" viewBox="0 0 21 20" fill="none" xmlns="http://www.w3.org/2000/svg">
<path d="M0.988281 10C0.988281 4.47715 5.46543 0 10.9883 0C16.5111 0 20.9883 4.47715 20.9883 10C20.9883 15.5228 16.5111 20 10.9883 20C5.46543 20 0.988281 15.5228 0.988281 10Z" fill="url(#paint0_linear_2815_46113)"/>
<path fill-rule="evenodd" clip-rule="evenodd" d="M5.51512 9.89446C8.43033 8.62435 10.3743 7.78702 11.3469 7.38246C14.124 6.22737 14.7011 6.02672 15.0772 6.02009C15.1599 6.01863 15.3449 6.03913 15.4647 6.13635C15.5659 6.21844 15.5937 6.32934 15.607 6.40717C15.6203 6.485 15.6369 6.6623 15.6237 6.80083C15.4732 8.38207 14.8221 12.2193 14.4908 13.9903C14.3506 14.7397 14.0746 14.991 13.8074 15.0155C13.2267 15.069 12.7857 14.6318 12.2232 14.2631C11.3431 13.6861 10.8459 13.327 9.99156 12.764C9.00424 12.1134 9.64428 11.7558 10.2069 11.1714C10.3542 11.0184 12.9129 8.69115 12.9624 8.48002C12.9686 8.45362 12.9743 8.3552 12.9159 8.30323C12.8574 8.25125 12.7711 8.26903 12.7088 8.28316C12.6205 8.3032 11.2145 9.23252 8.49075 11.0711C8.09165 11.3452 7.73017 11.4787 7.40629 11.4717C7.04923 11.464 6.36241 11.2698 5.85183 11.1039C5.22558 10.9003 4.72784 10.7927 4.77119 10.4469C4.79376 10.2669 5.04174 10.0827 5.51512 9.89446Z" fill="white"/>
<defs>
<linearGradient id="paint0_linear_2815_46113" x1="10.9883" y1="0" x2="10.9883" y2="19.8517" gradientUnits="userSpaceOnUse">
<stop stop-color="#2AABEE"/>
<stop offset="1" stop-color="#229ED9"/>
</linearGradient>
</defs>
</svg>
