<svg width="31" height="10" viewBox="0 0 31 10" fill="none" xmlns="http://www.w3.org/2000/svg">
<g clip-path="url(#clip0_1477_19243)">
<path d="M20.0562 0.0153809C17.8715 0.0153809 15.9192 1.14774 15.9192 3.23986C15.9192 5.63913 19.3817 5.80485 19.3817 7.01017C19.3817 7.51768 18.8001 7.97199 17.8068 7.97199C16.397 7.97199 15.3433 7.33719 15.3433 7.33719L14.8925 9.44837C14.8925 9.44837 16.1063 9.98458 17.7178 9.98458C20.1064 9.98458 21.9859 8.79662 21.9859 6.66873C21.9859 4.13347 18.5089 3.97268 18.5089 2.85393C18.5089 2.45637 18.9863 2.02076 19.9769 2.02076C21.0945 2.02076 22.0063 2.48243 22.0063 2.48243L22.4475 0.443388C22.4475 0.443388 21.4554 0.0153809 20.0562 0.0153809ZM0.0685248 0.169271L0.015625 0.477052C0.015625 0.477052 0.934723 0.645261 1.76252 0.980802C2.82838 1.36557 2.9043 1.58956 3.08381 2.28526L5.0399 9.82588H7.66204L11.7017 0.169271H9.08553L6.48983 6.73485L5.43064 1.16956C5.3335 0.532614 4.84146 0.169271 4.23919 0.169271H0.0685248ZM12.7536 0.169271L10.7014 9.82588H13.1961L15.2411 0.169271H12.7536ZM26.6675 0.169271C26.0659 0.169271 25.7472 0.491337 25.5133 1.05414L21.8584 9.82588H24.4745L24.9807 8.36393H28.1679L28.4757 9.82588H30.784L28.7702 0.169271H26.6675ZM27.0077 2.77819L27.7832 6.40183H25.7057L27.0077 2.77819Z" fill="url(#paint0_linear_1477_19243)"/>
</g>
<defs>
<linearGradient id="paint0_linear_1477_19243" x1="0.0041437" y1="3.42195" x2="30.786" y2="3.42195" gradientUnits="userSpaceOnUse">
<stop stop-color="#20225F"/>
<stop offset="0.2" stop-color="#1A1F61"/>
<stop offset="0.410233" stop-color="#172272"/>
<stop offset="0.595197" stop-color="#152682"/>
<stop offset="0.802083" stop-color="#12288E"/>
<stop offset="1" stop-color="#0E2C9A"/>
</linearGradient>
<clipPath id="clip0_1477_19243">
<rect width="30.7992" height="10" fill="white"/>
</clipPath>
</defs>
</svg>
