<svg width="24" height="24" viewBox="0 0 24 24" fill="none" xmlns="http://www.w3.org/2000/svg">
<path fill-rule="evenodd" clip-rule="evenodd" d="M18.75 9C18.75 12.4744 16.125 15.3357 12.75 15.7088V17.25H14.5C14.9142 17.25 15.25 17.5858 15.25 18C15.25 18.4142 14.9142 18.75 14.5 18.75H12.75V21C12.75 21.4142 12.4142 21.75 12 21.75C11.5858 21.75 11.25 21.4142 11.25 21V18.75H9.5C9.08579 18.75 8.75 18.4142 8.75 18C8.75 17.5858 9.08579 17.25 9.5 17.25H11.25V15.7088C7.87504 15.3357 5.25 12.4744 5.25 9C5.25 5.27208 8.27208 2.25 12 2.25C15.7279 2.25 18.75 5.27208 18.75 9ZM12 3.75C9.10051 3.75 6.75 6.10051 6.75 9C6.75 11.8995 9.10051 14.25 12 14.25C14.8995 14.25 17.25 11.8995 17.25 9C17.25 6.10051 14.8995 3.75 12 3.75Z" fill="currentColor"/>
</svg>
